<?xml version="1.0" encoding="UTF-8"?>
<svg width="191px" height="195px" viewBox="0 0 191 195" version="1.1" xmlns="http://www.w3.org/2000/svg" xmlns:xlink="http://www.w3.org/1999/xlink">
    <!-- Generator: Sketch 41.1 (35376) - http://www.bohemiancoding.com/sketch -->
    <title>logo Copy</title>
    <desc>Created with Sketch.</desc>
    <defs></defs>
    <g id="2016-New-Year" stroke="none" stroke-width="1" fill="none" fill-rule="evenodd">
        <g id="logo-Copy" transform="translate(0.000000, 1.000000)" fill="#FFFFFF">
            <path d="M96,43.5098007 L96,40.5 C96,40.2238576 96.2238576,40 96.5,40 C96.7761424,40 97,40.2238576 97,40.5 L97,43.5 C96.6658911,43.5 96.3325477,43.503277 96,43.5098007 Z M96,143.490199 L96,192.5 C96,192.776142 96.2238576,193 96.5,193 C96.7761424,193 97,192.776142 97,192.5 L97,143.5 C96.6658911,143.5 96.3325477,143.496723 96,143.490199 Z M107.27941,142.442267 L112.017026,160.129368 C112.088474,160.396107 112.362629,160.554422 112.629368,160.482974 C112.896107,160.411526 113.054422,160.137371 112.982974,159.870632 L108.257174,142.227645 C107.932449,142.302359 107.606516,142.373911 107.27941,142.442267 Z M119.291618,138.268114 L121.565878,142.248069 C121.702883,142.487828 122.008311,142.571127 122.248069,142.434122 C122.487828,142.297117 122.571127,141.991689 122.434122,141.751931 L120.182865,137.812232 C119.88751,137.967072 119.590415,138.119045 119.291618,138.268114 Z M139.054189,120.556428 L154.748934,129.566373 C154.988419,129.703856 155.071109,130.009448 154.933627,130.248934 C154.796144,130.488419 154.490552,130.571109 154.251066,130.433627 L138.502912,121.393019 C138.689382,121.116111 138.873153,120.837234 139.054189,120.556428 Z M59.3290246,60.6219178 L48.8535534,50.1464466 C48.6582912,49.9511845 48.3417088,49.9511845 48.1464466,50.1464466 C47.9511845,50.3417088 47.9511845,50.6582912 48.1464466,50.8535534 L58.6767555,61.3838623 C58.8916701,61.1276816 59.1091058,60.8736874 59.3290246,60.6219178 Z M132.731752,58.5250992 L157.35391,33.8531964 C157.548975,33.6577373 157.548656,33.341155 157.353196,33.14609 C157.157737,32.951025 156.841155,32.9513445 156.64609,33.1468036 L132.025139,57.8174972 C132.263014,58.0510171 132.498564,58.2868971 132.731752,58.5250992 Z M52.6064414,70.4729312 L20.7501388,52.0670675 C20.5110368,51.9289196 20.2052153,52.0107592 20.0670675,52.2498612 C19.9289196,52.4889632 20.0107592,52.7947847 20.2498612,52.9329325 L52.1535196,71.3661574 C52.3015949,71.0667069 52.4525812,70.7689525 52.6064414,70.4729312 Z M130.408309,130.701202 L152.853553,153.146447 C153.048816,153.341709 153.048816,153.658291 152.853553,153.853553 C152.658291,154.048816 152.341709,154.048816 152.146447,153.853553 L129.656383,131.36349 C129.909247,131.145205 130.159902,130.924429 130.408309,130.701202 Z M63.0510525,130.208209 L42.853096,150.35401 C42.6575816,150.54902 42.3409994,150.54861 42.1459898,150.353096 C41.9509803,150.157582 41.9513896,149.840999 42.146904,149.64599 L62.3235145,129.52148 C62.5637318,129.752782 62.8062571,129.981705 63.0510525,130.208209 Z M54.6033966,120.017796 L13.2503125,143.932832 C13.011266,144.071076 12.7054117,143.989359 12.5671679,143.750313 C12.4289241,143.511266 12.5106409,143.205412 12.7496875,143.067168 L54.0806366,119.164932 C54.2521217,119.45109 54.4263874,119.73539 54.6033966,120.017796 Z M141.115508,69.9456979 L179.747525,47.9344321 C179.987455,47.7977277 180.071137,47.492405 179.934432,47.2524747 C179.797728,47.0125445 179.492405,46.9288635 179.252475,47.0655679 L140.634867,69.0686234 C140.797911,69.3591996 140.958137,69.6515701 141.115508,69.9456979 Z M108.546492,44.839835 L116.516797,14.8714886 C116.587772,14.6046232 116.861646,14.4458225 117.128511,14.5167973 C117.395377,14.5877722 117.554178,14.8616459 117.483203,15.1285114 L109.517457,45.0797151 C109.19505,44.9966084 108.871384,44.9166369 108.546492,44.839835 Z M81.6721453,45.8932351 L76.5169956,26.6292547 C76.4456102,26.3624987 76.6039894,26.088381 76.8707453,26.0169956 C77.1375013,25.9456102 77.411619,26.1039894 77.4830044,26.3707453 L82.6278874,45.5963609 C82.3079477,45.692213 81.9893552,45.7911828 81.6721453,45.8932351 Z M69.2893012,51.8748938 L47.5655679,13.7475253 C47.4288635,13.507595 47.5125445,13.2022723 47.7524747,13.0655679 C47.992405,12.9288635 48.2977277,13.0125445 48.4344321,13.2524747 L70.1282425,51.3273257 C69.846662,51.5071183 69.5670024,51.6896535 69.2893012,51.8748938 Z M83.2222347,141.577667 L74.5177508,173.367956 C74.4448247,173.634294 74.6016167,173.909323 74.8679556,173.982249 C75.1342944,174.055175 75.4093231,173.898383 75.4822492,173.632044 L84.1863995,141.842974 C83.8637213,141.757671 83.5423215,141.669224 83.2222347,141.577667 Z M121.609205,49.9653924 L126.067067,42.2498612 C126.205215,42.0107592 126.511037,41.9289196 126.750139,42.0670675 C126.989241,42.2052153 127.07108,42.5110368 126.932933,42.7501388 L122.474314,50.4669794 C122.187775,50.2969909 121.899393,50.1297828 121.609205,49.9653924 Z M71.4669884,136.498144 L63.5664472,150.250938 C63.428894,150.490382 63.5114932,150.795999 63.7509378,150.933553 C63.9903824,151.071106 64.2959995,150.988507 64.4335528,150.749062 L72.331422,137.000919 C72.041456,136.836131 71.7532991,136.668526 71.4669884,136.498144 Z M44.452093,74.8769423 L26.8303567,67.8578803 C26.5738165,67.7556956 26.2830124,67.8808255 26.1808277,68.1373657 C26.078643,68.3939059 26.2037729,68.68471 26.4603132,68.7868947 L44.0820495,75.8059567 C44.3385897,75.9081414 44.6293937,75.7830116 44.7315785,75.5264713 C44.8337632,75.2699311 44.7086333,74.979127 44.452093,74.8769423 Z M23.161381,66.2796216 L17.9301175,64.1485294 C17.6743814,64.0443485 17.382611,64.1672084 17.2784302,64.4229445 C17.1742494,64.6786807 17.2971093,64.970451 17.5528454,65.0746318 L22.784109,67.205724 C23.0398451,67.3099048 23.3316154,67.187045 23.4357962,66.9313088 C23.539977,66.6755727 23.4171172,66.3838024 23.161381,66.2796216 Z M52.2330803,61.564879 L49.1553925,59.2298204 C48.9354012,59.0629119 48.621757,59.1059439 48.4548484,59.3259352 C48.2879399,59.5459264 48.3309719,59.8595706 48.5509631,60.0264792 L51.6286509,62.3615377 C51.8486422,62.5284463 52.1622864,62.4854143 52.329195,62.265423 C52.4961035,62.0454318 52.4530715,61.7317875 52.2330803,61.564879 Z M46.4510854,57.0865453 L29.6243692,44.034419 C29.4061738,43.8651695 29.0920877,43.904848 28.9228382,44.1230433 C28.7535887,44.3412387 28.7932671,44.6553248 29.0114625,44.8245743 L45.8381787,57.8767006 C46.056374,58.0459501 46.3704602,58.0062716 46.5397097,57.7880762 C46.7089592,57.5698809 46.6692807,57.2557948 46.4510854,57.0865453 Z M62.699913,51.6864935 L45.4039765,28.7580109 C45.237679,28.5375574 44.9241553,28.4936553 44.7037018,28.6599528 C44.4832483,28.8262503 44.4393462,29.139774 44.6056437,29.3602275 L61.9015803,52.2887101 C62.0678778,52.5091636 62.3814015,52.5530657 62.601855,52.3867682 C62.8223085,52.2204707 62.8662106,51.9069471 62.699913,51.6864935 Z M75.14278,44.2285395 L72.4444874,37.4142569 C72.3428219,37.1575104 72.0522717,37.0317924 71.7955252,37.1334578 C71.5387787,37.2351233 71.4130607,37.5256736 71.5147262,37.78242 L74.2130188,44.5967027 C74.3146843,44.8534492 74.6052346,44.9791672 74.861981,44.8775017 C75.1187275,44.7758363 75.2444455,44.485286 75.14278,44.2285395 Z M71.2298242,34.5384085 L64.3059644,17.7637304 C64.2006068,17.5084768 63.9082737,17.3869621 63.6530201,17.4923197 C63.3977665,17.5976773 63.2762519,17.8900105 63.3816095,18.145264 L70.3054692,34.9199422 C70.4108268,35.1751958 70.7031599,35.2967104 70.9584135,35.1913528 C71.2136671,35.0859952 71.3351818,34.7936621 71.2298242,34.5384085 Z M85.8122989,13.8073646 L85.5980562,12.0622949 C85.5644068,11.7882104 85.3149391,11.5932992 85.0408546,11.6269486 C84.7667701,11.6605981 84.5718589,11.9100657 84.6055084,12.1841502 L84.819751,13.92922 C84.8534005,14.2033045 85.1028681,14.3982157 85.3769527,14.3645663 C85.6510372,14.3309168 85.8459483,14.0814492 85.8122989,13.8073646 Z M89.1826269,40.5032067 L86.2303278,16.7948608 C86.1962046,16.5208349 85.9464003,16.3263554 85.6723743,16.3604786 C85.3983484,16.3946019 85.2038689,16.6444062 85.2379922,16.9184321 L88.1902912,40.626778 C88.2244145,40.900804 88.4742188,41.0952835 88.7482447,41.0611602 C89.0222707,41.0270369 89.2167502,40.7772327 89.1826269,40.5032067 Z M106.075093,24.8512755 L107.788504,11.9306026 C107.824805,11.6568567 107.632318,11.4055137 107.358573,11.3692122 C107.084827,11.3329108 106.833484,11.5253975 106.797182,11.7991434 L105.083771,24.7198162 C105.04747,24.9935621 105.239956,25.2449052 105.513702,25.2812066 C105.787448,25.3175081 106.038791,25.1250213 106.075093,24.8512755 Z M103.835512,40.2494169 L105.506284,28.2370198 C105.544326,27.9635103 105.353441,27.7109482 105.079932,27.6729065 C104.806422,27.6348648 104.55386,27.8257491 104.515819,28.0992586 L102.845046,40.1116557 C102.807004,40.3851652 102.997889,40.6377274 103.271398,40.6757691 C103.544908,40.7138108 103.79747,40.5229264 103.835512,40.2494169 Z M126.349484,20.9758298 L127.868397,17.1267247 C127.96976,16.8698587 127.8437,16.5794567 127.586834,16.4780936 C127.329968,16.3767306 127.039566,16.5027906 126.938203,16.7596566 L125.41929,20.6087616 C125.317927,20.8656276 125.443987,21.1560297 125.700853,21.2573927 C125.957719,21.3587558 126.248121,21.2326958 126.349484,20.9758298 Z M117.374373,43.4969569 L125.017355,24.3713102 C125.119828,24.1148849 124.995025,23.8239406 124.738599,23.721468 C124.482174,23.6189954 124.19123,23.7437988 124.088757,24.0002241 L116.445775,43.1258708 C116.343302,43.3822962 116.468105,43.6732405 116.724531,43.7757131 C116.980956,43.8781856 117.2719,43.7533823 117.374373,43.4969569 Z M143.398896,33.4704768 L147.473031,27.843316 C147.634973,27.6196434 147.584931,27.3070411 147.361258,27.1450993 C147.137585,26.9831574 146.824983,27.0332002 146.663041,27.2568728 L142.588906,32.8840336 C142.426964,33.1077062 142.477007,33.4203085 142.700679,33.5822503 C142.924352,33.7441922 143.236954,33.6941494 143.398896,33.4704768 Z M130.567509,50.3606609 L141.089766,36.3267641 C141.255419,36.1058263 141.210603,35.7924321 140.989665,35.6267785 C140.768727,35.461125 140.455333,35.5059418 140.289679,35.7268796 L129.767423,49.7607764 C129.601769,49.9817142 129.646586,50.2951085 129.867524,50.460762 C130.088462,50.6264155 130.401856,50.5815987 130.567509,50.3606609 Z M151.618403,53.0848117 L163.835355,43.3527061 C164.051343,43.1806486 164.086956,42.8660756 163.914898,42.6500875 C163.742841,42.4340995 163.428268,42.3984868 163.21228,42.5705443 L150.995328,52.3026498 C150.77934,52.4747073 150.743727,52.7892804 150.915784,53.0052684 C151.087842,53.2212564 151.402415,53.2568692 151.618403,53.0848117 Z M141.795756,60.5383615 L149.085847,54.8520271 C149.303585,54.6821895 149.342416,54.3679975 149.172578,54.1502595 C149.002741,53.9325216 148.688549,53.8936906 148.470811,54.0635281 L141.18072,59.7498625 C140.962982,59.9197 140.924151,60.2338921 141.093989,60.45163 C141.263826,60.669368 141.578018,60.708199 141.795756,60.5383615 Z M173.408146,63.4912911 L175.583463,62.5534904 C175.837044,62.444169 175.95399,62.1499783 175.844668,61.896397 C175.735347,61.6428158 175.441156,61.5258701 175.187575,61.6351915 L173.012258,62.5729922 C172.758677,62.6823136 172.641731,62.9765044 172.751053,63.2300856 C172.860374,63.4836668 173.154565,63.6006125 173.408146,63.4912911 Z M150.056792,73.4241338 L170.777425,64.6010017 C171.031493,64.4928161 171.149753,64.1991516 171.041568,63.9450837 C170.933382,63.6910159 170.639718,63.5727549 170.38565,63.6809405 L149.665017,72.5040726 C149.410949,72.6122583 149.292688,72.9059227 149.400874,73.1599906 C149.509059,73.4140585 149.802724,73.5323194 150.056792,73.4241338 Z M171.873571,127.372132 L176.525092,129.24649 C176.781222,129.349699 177.072524,129.225733 177.175733,128.969603 C177.278942,128.713473 177.154975,128.422171 176.898845,128.318962 L172.247324,126.444603 C171.991194,126.341394 171.699892,126.465361 171.596683,126.721491 C171.493474,126.977621 171.617441,127.268923 171.873571,127.372132 Z M151.121257,119.024729 L168.554016,125.998316 C168.810405,126.100879 169.101393,125.976178 169.203956,125.719788 C169.306519,125.463399 169.181818,125.172411 168.925429,125.069848 L151.49267,118.096261 C151.236281,117.993699 150.945293,118.1184 150.84273,118.374789 C150.740167,118.631178 150.864868,118.922166 151.121257,119.024729 Z M142.652476,133.507366 L164.287095,150.335832 C164.505061,150.505376 164.8192,150.466123 164.988745,150.248157 C165.15829,150.030191 165.119036,149.716051 164.90107,149.546507 L143.266451,132.718041 C143.048485,132.548497 142.734346,132.58775 142.564801,132.805716 C142.395256,133.023682 142.43451,133.337822 142.652476,133.507366 Z M139.857621,155.723741 L147.70949,166.042795 C147.876705,166.262552 148.190409,166.305146 148.410167,166.13793 C148.629925,165.970714 148.672519,165.65701 148.505303,165.437252 L140.653434,155.118199 C140.486218,154.898441 140.172514,154.855847 139.952756,155.023063 C139.732999,155.190279 139.690405,155.503983 139.857621,155.723741 Z M131.195571,144.286382 L137.98539,153.227784 C138.152391,153.447705 138.466053,153.490605 138.685974,153.323604 C138.905895,153.156603 138.948795,152.84294 138.781794,152.623019 L131.991976,143.681617 C131.824975,143.461696 131.511312,143.418796 131.291391,143.585797 C131.07147,143.752798 131.02857,144.066461 131.195571,144.286382 Z M117.476964,151.832108 L127.671848,176.932564 C127.775763,177.188409 128.067405,177.311572 128.323249,177.207658 C128.579094,177.103743 128.702257,176.812101 128.598343,176.556256 L118.403459,151.4558 C118.299544,151.199956 118.007902,151.076792 117.752057,151.180707 C117.496213,151.284621 117.37305,151.576264 117.476964,151.832108 Z M105.240436,179.205455 L105.621275,182.379337 C105.654174,182.653512 105.903107,182.849106 106.177283,182.816207 C106.451458,182.783308 106.647052,182.534375 106.614153,182.260199 L106.233314,179.086318 C106.200415,178.812142 105.951482,178.616549 105.677306,178.649448 C105.403131,178.682346 105.207537,178.931279 105.240436,179.205455 Z M102.183172,154.867907 L104.836737,176.294202 C104.870677,176.568251 105.120351,176.762898 105.3944,176.728958 C105.668449,176.695018 105.863095,176.445344 105.829156,176.171295 L103.17559,154.745 C103.141651,154.470951 102.891976,154.276305 102.617928,154.310245 C102.343879,154.344184 102.149232,154.593858 102.183172,154.867907 Z M86.76188,154.221535 L86.0298793,159.878784 C85.9944442,160.152643 86.1877253,160.403376 86.4615846,160.438811 C86.735444,160.474246 86.9861768,160.280965 87.0216119,160.007106 L87.7536126,154.349857 C87.7890477,154.075997 87.5957666,153.825264 87.3219072,153.789829 C87.0480478,153.754394 86.7973151,153.947675 86.76188,154.221535 Z M85.587024,162.751126 L82.9648478,181.938281 C82.9274568,182.21188 83.1189415,182.463987 83.3925407,182.501378 C83.6661399,182.538769 83.9182472,182.347284 83.9556382,182.073685 L86.5778144,162.88653 C86.6152053,162.612931 86.4237206,162.360824 86.1501214,162.323433 C85.8765222,162.286042 85.6244149,162.477527 85.587024,162.751126 Z M73.1973971,149.774477 L66.6582908,166.341857 C66.5569093,166.598715 66.6829485,166.889126 66.9398072,166.990508 C67.1966659,167.09189 67.487077,166.96585 67.5884585,166.708992 L74.1275648,150.141612 C74.2289463,149.884753 74.1029072,149.594342 73.8460485,149.49296 C73.5891898,149.391579 73.2987787,149.517618 73.1973971,149.774477 Z M65.4509868,168.973757 L62.6574163,175.840388 C62.5533547,176.096173 62.6763506,176.387886 62.9321353,176.491947 C63.18792,176.596009 63.479633,176.473013 63.5836946,176.217228 L66.3772651,169.350597 C66.4813266,169.094813 66.3583308,168.8031 66.1025461,168.699038 C65.8467614,168.594977 65.5550484,168.717972 65.4509868,168.973757 Z M60.5575891,141.66165 L43.4672592,164.22209 C43.3005141,164.442205 43.3437792,164.755817 43.5638944,164.922563 C43.7840096,165.089308 44.0976218,165.046042 44.2643668,164.825927 L61.3546967,142.265487 C61.5214418,142.045372 61.4781767,141.731759 61.2580615,141.565014 C61.0379463,141.398269 60.7243341,141.441534 60.5575891,141.66165 Z M50.2759657,130.767804 L47.6082818,132.791495 C47.3882789,132.958388 47.3452249,133.272029 47.512118,133.492032 C47.6790111,133.712035 47.9926523,133.755089 48.2126553,133.588196 L50.8803392,131.564505 C51.1003421,131.397612 51.1433961,131.083971 50.976503,130.863968 C50.8096099,130.643965 50.4959687,130.600911 50.2759657,130.767804 Z M45.5455362,134.44271 L27.9539195,148.110091 C27.7358559,148.27951 27.6964218,148.593627 27.8658411,148.811691 C28.0352603,149.029754 28.3493772,149.069188 28.5674408,148.899769 L46.1590576,135.232388 C46.3771212,135.062969 46.4165552,134.748852 46.247136,134.530788 C46.0777167,134.312725 45.7635998,134.273291 45.5455362,134.44271 Z M19.4861706,127.771705 L17.0819712,128.814566 C16.8286353,128.924455 16.7123484,129.218907 16.8222371,129.472243 C16.9321258,129.725578 17.2265775,129.841865 17.4799134,129.731977 L19.8841127,128.689115 C20.1374486,128.579226 20.2537356,128.284775 20.1438469,128.031439 C20.0339582,127.778103 19.7395065,127.661816 19.4861706,127.771705 Z M43.3588552,117.548568 L21.9098552,126.769571 C21.6561629,126.878634 21.5389178,127.172706 21.6479811,127.426398 C21.7570444,127.680091 22.0511159,127.797336 22.3048083,127.688272 L43.7538082,118.467269 C44.0075006,118.358206 44.1247457,118.064135 44.0156824,117.810442 C43.9066191,117.55675 43.6125476,117.439505 43.3588552,117.548568 Z M96,0.5 L96,36.5 C96,36.7761424 96.2238576,37 96.5,37 C96.7761424,37 97,36.7761424 97,36.5 L97,0.5 C97,0.223857625 96.7761424,0 96.5,0 C96.2238576,0 96,0.223857625 96,0.5 Z M113.516719,165.128217 L120.016719,189.628217 C120.087532,189.895126 120.361309,190.054093 120.628217,189.983281 C120.895126,189.912468 121.054093,189.638691 120.983281,189.371783 L114.483281,164.871783 C114.412468,164.604874 114.138691,164.445907 113.871783,164.516719 C113.604874,164.587532 113.445907,164.861309 113.516719,165.128217 Z M124.067877,146.751534 L143.567877,180.251534 C143.706795,180.490189 144.012879,180.571042 144.251534,180.432123 C144.490189,180.293205 144.571042,179.987121 144.432123,179.748466 L124.932123,146.248466 C124.793205,146.009811 124.487121,145.928958 124.248466,146.067877 C124.009811,146.206795 123.928958,146.512879 124.067877,146.751534 Z M37.509996,96.5 L10,96.5 C9.72385763,96.5 9.5,96.7238576 9.5,97 C9.5,97.2761424 9.72385763,97.5 10,97.5 L37.509996,97.5 C37.7861384,97.5 38.009996,97.2761424 38.009996,97 C38.009996,96.7238576 37.7861384,96.5 37.509996,96.5 Z M39.4274068,88.8503209 L1.20445851,84.157133 C0.930374455,84.1234797 0.680904049,84.3183873 0.647250759,84.5924714 C0.61359747,84.8665554 0.808505112,85.1160258 1.08258916,85.1496791 L39.3055375,89.842867 C39.5796215,89.8765203 39.829092,89.6816127 39.8627452,89.4075286 C39.8963985,89.1334446 39.7014909,88.8839742 39.4274068,88.8503209 Z M39.2530211,103.825088 L1.11780177,109.184644 C0.84434679,109.223075 0.653822692,109.475909 0.692254283,109.749364 C0.730685873,110.022819 0.983519891,110.213343 1.25697487,110.174912 L39.3921942,104.815356 C39.6656492,104.776925 39.8561733,104.524091 39.8177417,104.250636 C39.7793101,103.977181 39.5264761,103.786657 39.2530211,103.825088 Z M160,96.5 L187.509996,96.5 C187.786138,96.5 188.009996,96.7238576 188.009996,97 C188.009996,97.2761424 187.786138,97.5 187.509996,97.5 L160,97.5 C159.723858,97.5 159.5,97.2761424 159.5,97 C159.5,96.7238576 159.723858,96.5 160,96.5 Z M151.082589,88.8503209 L189.305537,84.157133 C189.579622,84.1234797 189.829092,84.3183873 189.862745,84.5924714 C189.896399,84.8665554 189.701491,85.1160258 189.427407,85.1496791 L151.204459,89.842867 C150.930374,89.8765203 150.680904,89.6816127 150.647251,89.4075286 C150.613597,89.1334446 150.808505,88.8839742 151.082589,88.8503209 Z M151.256975,103.825088 L189.392194,109.184644 C189.665649,109.223075 189.856173,109.475909 189.817742,109.749364 C189.77931,110.022819 189.526476,110.213343 189.253021,110.174912 L151.117802,104.815356 C150.844347,104.776925 150.653823,104.524091 150.692254,104.250636 C150.730686,103.977181 150.98352,103.786657 151.256975,103.825088 Z M189.123199,120.515416 L159.623199,113.015416 C159.355571,112.947375 159.083457,113.109172 159.015416,113.376801 C158.947375,113.644429 159.109172,113.916543 159.376801,113.984584 L188.876801,121.484584 C189.144429,121.552625 189.416543,121.390828 189.484584,121.123199 C189.552625,120.855571 189.390828,120.583457 189.123199,120.515416 Z M155.131559,111.517618 L149.631559,110.017618 C149.365147,109.94496 149.090276,110.102029 149.017618,110.368441 C148.94496,110.634853 149.102029,110.909724 149.368441,110.982382 L154.868441,112.482382 C155.134853,112.55504 155.409724,112.397971 155.482382,112.131559 C155.55504,111.865147 155.397971,111.590276 155.131559,111.517618 Z M179.748069,144.065878 L158.748069,132.065878 C158.508311,131.928873 158.202883,132.012172 158.065878,132.251931 C157.928873,132.491689 158.012172,132.797117 158.251931,132.934122 L179.251931,144.934122 C179.491689,145.071127 179.797117,144.987828 179.934122,144.748069 C180.071127,144.508311 179.987828,144.202883 179.748069,144.065878 Z M45.8535534,47.1464466 L27.9271465,29.2200397 C27.7318844,29.0247776 27.4153019,29.0247776 27.2200397,29.2200397 C27.0247776,29.4153019 27.0247776,29.7318844 27.2200397,29.9271465 L45.1464466,47.8535534 C45.3417088,48.0488155 45.6582912,48.0488155 45.8535534,47.8535534 C46.0488155,47.6582912 46.0488155,47.3417088 45.8535534,47.1464466 Z M160.349136,30.8579162 L163.349136,27.9315093 C163.546808,27.7386867 163.550739,27.4221287 163.357916,27.224457 C163.165094,27.0267854 162.848536,27.0228544 162.650864,27.215677 L159.650864,30.1420838 C159.453192,30.3349064 159.449261,30.6514645 159.642084,30.8491361 C159.834906,31.0468077 160.151464,31.0507387 160.349136,30.8579162 Z M17.2480695,50.0658784 L13.7480695,48.0658784 C13.5083107,47.9288734 13.2028834,48.0121718 13.0658784,48.2519305 C12.9288734,48.4916893 13.0121718,48.7971166 13.2519305,48.9341216 L16.7519305,50.9341216 C16.9916893,51.0711266 17.2971166,50.9878282 17.4341216,50.7480695 C17.5711266,50.5083107 17.4878282,50.2028834 17.2480695,50.0658784 Z M28.6258169,77.5160887 L3.62581693,71.0160887 C3.35856012,70.946602 3.08557552,71.1069263 3.01608875,71.3741831 C2.94660198,71.6414399 3.10692627,71.9144245 3.37418307,71.9839113 L28.3741831,78.4839113 C28.6414399,78.553398 28.9144245,78.3930737 28.9839113,78.1258169 C29.053398,77.8585601 28.8930737,77.5855755 28.6258169,77.5160887 Z M42.1272466,81.0164627 L32.6272466,78.5164627 C32.3601964,78.4461863 32.0867391,78.6057031 32.0164627,78.8727534 C31.9461863,79.1398036 32.1057031,79.4132609 32.3727534,79.4835373 L41.8727534,81.9835373 C42.1398036,82.0538137 42.4132609,81.8942969 42.4835373,81.6272466 C42.5538137,81.3601964 42.3942969,81.0867391 42.1272466,81.0164627 Z M164.353553,164.646447 L156.853553,157.146447 C156.658291,156.951184 156.341709,156.951184 156.146447,157.146447 C155.951184,157.341709 155.951184,157.658291 156.146447,157.853553 L163.646447,165.353553 C163.841709,165.548816 164.158291,165.548816 164.353553,165.353553 C164.548816,165.158291 164.548816,164.841709 164.353553,164.646447 Z M28.9282796,164.352417 L40.3546865,152.852417 C40.5493208,152.656529 40.5483046,152.339948 40.3524167,152.145314 C40.1565288,151.950679 39.8399479,151.951695 39.6453135,152.147583 L28.2189067,163.647583 C28.0242723,163.843471 28.0252885,164.160052 28.2211765,164.354686 C28.4170644,164.549321 28.7336452,164.548305 28.9282796,164.352417 Z M27.1288313,114.983117 L42.1288313,110.983117 C42.3956497,110.911966 42.554269,110.637987 42.4831175,110.371169 C42.4119659,110.10435 42.1379871,109.945731 41.8711687,110.016883 L26.8711687,114.016883 C26.6043503,114.088034 26.445731,114.362013 26.5168825,114.628831 C26.5880341,114.89565 26.8620129,115.054269 27.1288313,114.983117 Z M3.62418768,120.984332 L23.1241877,115.984332 C23.3916768,115.915745 23.5529189,115.643301 23.4843319,115.375812 C23.415745,115.108323 23.1433015,114.947081 22.8758123,115.015668 L3.37581232,120.015668 C3.10832318,120.084255 2.94708111,120.356699 3.01566807,120.624188 C3.08425503,120.891677 3.35669853,121.052919 3.62418768,120.984332 Z M170.127247,76.4835373 L189.127247,71.4835373 C189.394297,71.4132609 189.553814,71.1398036 189.483537,70.8727534 C189.413261,70.6057031 189.139804,70.4461863 188.872753,70.5164627 L169.872753,75.5164627 C169.605703,75.5867391 169.446186,75.8601964 169.516463,76.1272466 C169.586739,76.3942969 169.860196,76.5538137 170.127247,76.4835373 Z M149.624939,81.9841387 L165.124939,77.9841387 C165.392321,77.9151368 165.553141,77.6424434 165.484139,77.375061 C165.415137,77.1076786 165.142443,76.9468594 164.875061,77.0158613 L149.375061,81.0158613 C149.107679,81.0848632 148.946859,81.3575566 149.015861,81.624939 C149.084863,81.8923214 149.357557,82.0531406 149.624939,81.9841387 Z M120.018241,2.86617807 L117.518241,11.8661781 C117.444333,12.1322462 117.60011,12.4078511 117.866178,12.481759 C118.132246,12.5556668 118.407851,12.3998901 118.481759,12.1338219 L120.981759,3.13382193 C121.055667,2.86775381 120.89989,2.59214886 120.633822,2.51824105 C120.367754,2.44433323 120.092149,2.60010994 120.018241,2.86617807 Z M70.5173183,4.13045451 L75.5173183,22.6304545 C75.5893663,22.8970323 75.8638768,23.0547297 76.1304545,22.9826817 C76.3970323,22.9106337 76.5547297,22.6361232 76.4826817,22.3695455 L71.4826817,3.86954549 C71.4106337,3.60296775 71.1361232,3.44527027 70.8695455,3.5173183 C70.6029677,3.58936634 70.4452703,3.86387677 70.5173183,4.13045451 Z M73.5171921,176.870013 L70.0171921,189.870013 C69.9454024,190.136661 70.1033658,190.411018 70.3700133,190.482808 C70.6366607,190.554598 70.9110182,190.396634 70.9828079,190.129987 L74.4828079,177.129987 C74.5545976,176.863339 74.3966342,176.588982 74.1299867,176.517192 C73.8633393,176.445402 73.5889818,176.603366 73.5171921,176.870013 Z M143.066907,12.7501388 L128.066907,38.7501388 C127.928913,38.9893293 128.010948,39.2950982 128.250139,39.4330928 C128.489329,39.5710873 128.795098,39.4890518 128.933093,39.2498612 L143.933093,13.2498612 C144.071087,13.0106707 143.989052,12.7049018 143.749861,12.5669072 C143.510671,12.4289127 143.204902,12.5109482 143.066907,12.7501388 Z M61.5653549,153.252849 L47.0653549,178.752849 C46.9288572,178.992897 47.012801,179.298147 47.2528489,179.434645 C47.4928967,179.571143 47.7981473,179.487199 47.9346451,179.247151 L62.4346451,153.747151 C62.5711428,153.507103 62.487199,153.201853 62.2471511,153.065355 C62.0071033,152.928857 61.7018527,153.012801 61.5653549,153.252849 Z" id="Combined-Shape" stroke="#FFFFFF"></path>
            <path d="M119.76065,115.77244 L130.759348,74.1371889 L135.733972,74.1371889 L122.228406,121.973663 L119.76065,121.973663 L117.292894,121.973663 L113.293598,107.808231 L115.539588,99.793731 L115.539588,99.793731 L119.76065,115.77244 Z M104.742865,74.1371889 L100.723778,74.1371889 L89.72508,115.77244 L85.5040175,99.793731 L85.5040175,99.793731 L83.2580285,107.808231 L87.2573237,121.973663 L89.72508,121.973663 L92.1928363,121.973663 L104.742865,77.5216858 L108.941365,92.3926971 L111.254305,83.5719204 L111.254305,83.5719204 L108.761952,74.1371889 L104.742865,74.1371889 Z M104.804665,115.538499 L115.741563,74.1371889 L120.716187,74.1371889 L107.210621,121.973663 L104.811267,121.973663 L102.380019,121.973663 L98.3124556,107.677478 L100.568619,99.626673 L104.804665,115.538499 Z M89.7287769,77.5085914 L77.1750513,121.973663 L74.707295,121.973663 L72.2395387,121.973663 L58.7339725,74.1371889 L63.7085971,74.1371889 L74.707295,115.77244 L85.7059929,74.1371889 L89.72508,74.1371889 L93.7828096,74.1371889 L96.2653022,83.4621568 L96.2653022,83.4621568 L93.9427812,92.3194695 L89.7287769,77.5085914 Z M81.2187355,83.5719204 L78.7263821,74.1371889 L73.7517575,74.1371889 L78.9057948,92.3926971 L81.2187355,83.5719204 L81.2187355,83.5719204 Z" id="Combined-Shape"></path>
        </g>
    </g>
</svg>