<svg width="67px" height="41px" viewBox="0 0 67 41" version="1.1" xmlns="http://www.w3.org/2000/svg" xmlns:xlink="http://www.w3.org/1999/xlink">
    <g stroke="none" stroke-width="1" fill="none" fill-rule="evenodd">
        <g  transform="translate(-607.000000, -117.000000)" fill="#E06841">
            <g transform="translate(607.242857, 117.000000)">
                <path d="M4.26143334,0 L13.683,35.665 L23.1051539,0 L30.0240309,0 L32.1506188,7.98808603 L30.1610681,15.5755625 L26.551,2.888 L15.7972579,40.9783575 L11.5693293,40.9783575 L0,0 L4.26143334,0 Z M42.8556759,0 L44.990711,8.08211325 L43.009367,15.6382918 L39.413,2.899 L28.6620055,40.9783575 L24.4340769,40.9783575 L21.008144,28.8437645 L22.9321349,21.9782703 L26.548,35.665 L35.9699014,0 L42.8556759,0 Z M53.0960823,0 L41.526753,40.9783575 L37.388694,40.9783575 L33.9042804,28.7317574 L35.836987,21.8351626 L39.465,35.465 L48.834649,0 L53.0960823,0 Z M50.1635719,40.9783575 L46.737639,28.8437645 L48.66163,21.9782703 L52.277,35.667 L61.6993965,0 L65.9608298,0 L54.3915005,40.9783575 L50.1635719,40.9783575 Z M17.1261809,0 L19.261216,8.08211325 L17.279872,15.6382918 L12.8647475,0 L17.1261809,0 Z"></path>
            </g>
        </g>
    </g>
</svg>