<?xml version="1.0" encoding="UTF-8"?>
<svg width="686px" height="426px" viewBox="0 0 686 426" version="1.1" xmlns="http://www.w3.org/2000/svg" xmlns:xlink="http://www.w3.org/1999/xlink">
    <!-- Generator: Sketch 51.2 (57519) - http://www.bohemiancoding.com/sketch -->
    <title>safari-pinned-tab</title>
    <desc>Created with Sketch.</desc>
    <defs></defs>
    <g id="Page-1" stroke="none" stroke-width="1" fill="none" fill-rule="evenodd">
        <g id="safari-pinned-tab" fill="#000000">
            <path d="M528.859966,425.775129 L521.472375,425.775129 L485.858297,299.693748 L505.859028,228.359589 L543.447963,370.580292 L641.392341,0 L685.691813,0 L565.423551,425.775129 L528.859966,425.775129 Z M409.713259,30.1241809 L297.954142,425.775129 L261.390558,425.775129 L254.002967,425.775129 L218.388889,299.693748 L238.38962,228.359589 L275.978555,370.580292 L373.922933,0 L418.222405,0 L445.503585,0 L467.698212,83.9751279 L447.101271,162.485666 L409.713259,30.1241809 Z M395.125262,425.775129 L388.671905,425.775129 L352.449894,298.529967 L372.541229,226.872665 L410.263591,368.498066 L507.657637,0 L551.957109,0 L431.688847,425.775129 L395.125262,425.775129 Z M276.011476,30.0076324 L164.219438,425.775129 L156.831847,425.775129 L120.268263,425.775129 L0,0 L44.2994723,0 L142.24385,370.580292 L240.188229,0 L284.487701,0 L312.112995,0 L334.219812,82.9981622 L313.537557,161.833894 L276.011476,30.0076324 Z M200.228804,83.9751279 L179.631863,162.485666 L133.734704,0 L178.034176,0 L200.228804,83.9751279 Z" id="Combined-Shape"></path>
        </g>
    </g>
</svg>