<?xml version="1.0" encoding="UTF-8"?>
<svg width="50px" height="49px" viewBox="0 0 50 49" version="1.1" xmlns="http://www.w3.org/2000/svg" xmlns:xlink="http://www.w3.org/1999/xlink">
    <!-- Generator: Sketch 51.2 (57519) - http://www.bohemiancoding.com/sketch -->
    <title>Fill 5</title>
    <desc>Created with Sketch.</desc>
    <defs></defs>
    <g id="Page-1" stroke="none" stroke-width="1" fill="none" fill-rule="evenodd">
        <path d="M25.000207,0 C11.1947837,0 0,11.1927137 0,25.000207 C0,36.0459532 7.16332022,45.4170979 17.0966674,48.7228317 C18.3460981,48.9542538 18.8048023,48.1805009 18.8048023,47.5201822 C18.8048023,46.9240323 18.7816187,44.9546678 18.7708549,42.8656593 C11.8157731,44.3779756 10.3481681,39.9159594 10.3481681,39.9159594 C9.21092941,37.0262886 7.57234527,36.2579176 7.57234527,36.2579176 C5.30407783,34.706272 7.74332436,34.7381495 7.74332436,34.7381495 C10.2537777,34.9145105 11.5756572,37.3144277 11.5756572,37.3144277 C13.8054233,41.1364107 17.4241358,40.0314635 18.8507555,39.3926723 C19.0751397,37.7768578 19.7230387,36.6739805 20.4380046,36.0496792 C14.885117,35.4175119 9.04781619,33.2738563 9.04781619,23.6944732 C9.04781619,20.9650176 10.0244256,18.7348375 11.6236804,16.9840613 C11.3641068,16.354378 10.5083834,13.8116332 11.8658663,10.3680397 C11.8658663,10.3680397 13.9652246,9.69612917 18.7427034,12.9306562 C20.7369075,12.3767336 22.8755951,12.0989443 25.000207,12.0894225 C27.1248189,12.0989443 29.2651625,12.3767336 31.2630925,12.9306562 C36.0347754,9.69612917 38.1312358,10.3680397 38.1312358,10.3680397 C39.4920306,13.8116332 38.6358932,16.354378 38.3763196,16.9840613 C39.9793004,18.7348375 40.9492859,20.9650176 40.9492859,23.6944732 C40.9492859,33.296626 35.1008073,35.410888 29.5338439,36.0298075 C30.4305527,36.8056303 31.2295591,38.3270544 31.2295591,40.6594908 C31.2295591,44.0045539 31.2005796,46.6967502 31.2005796,47.5201822 C31.2005796,48.1854688 31.6505899,48.9650176 32.9178224,48.7195198 C42.8457876,45.41006 50,36.0422273 50,25.000207 C50,11.1927137 38.8068723,0 25.000207,0" id="Fill-5" fill="#E06841"></path>
    </g>
</svg>