<?xml version="1.0" encoding="UTF-8"?>
<svg width="1279px" height="116px" viewBox="0 0 1279 116" version="1.1" xmlns="http://www.w3.org/2000/svg" xmlns:xlink="http://www.w3.org/1999/xlink">
    <!-- Generator: Sketch 51.2 (57519) - http://www.bohemiancoding.com/sketch -->
    <title>section-divide-pattern</title>
    <desc>Created with Sketch.</desc>
    <defs>
        <linearGradient x1="50%" y1="0%" x2="50%" y2="100%" id="linearGradient-1">
            <stop stop-color="#F8F9FB" offset="0%"></stop>
            <stop stop-color="#FAFAFB" offset="100%"></stop>
        </linearGradient>
    </defs>
    <g id="Homepage" stroke="none" stroke-width="1" fill="none" fill-rule="evenodd">
        <g id="13&quot;-MacBook-in-Safari" transform="translate(-1.000000, -1122.000000)" fill="url(#linearGradient-1)">
            <g id="Experience-Section" transform="translate(0.000000, 538.000000)">
                <path d="M1,584 L1281,584 L1281,610.374257 L1244.73916,625.934737 C1221.20726,637.815997 1194.474,641.80093 1168.5,637.299158 C1142.4723,632.788078 1115.68636,636.440981 1091.81703,647.756711 L1080.42843,653.155698 C1063.48986,661.185766 1043.5345,659.43773 1028.25,648.585008 C1012.43927,637.358635 992.731712,633.071145 973.68603,636.71431 L897.673963,651.254324 C889.571794,652.804152 881.611278,655.019691 873.873393,657.878402 L819.208966,678.07382 C797.369673,686.142205 773.952033,689.016104 750.809846,686.468014 L691.444233,679.931512 C672.650878,677.862253 653.635734,679.364616 635.400505,684.359457 L600.701288,693.863974 C580.459154,699.408529 559.278765,700.64351 538.529413,697.489075 L493.175691,690.594145 C474.138037,687.699932 456.355388,679.323843 442,666.489065 L440.507776,665.154906 C427.139965,653.203095 410.51267,645.507672 392.75,643.051714 C374.838586,640.575189 356.59523,642.379383 339.515877,648.316351 L330.668252,651.391882 C316.633969,656.270351 303.402384,663.206901 291.406865,671.974345 L290.75,672.454443 C278.699745,681.261892 263.75985,685.17627 248.939002,683.409274 L213.58866,679.194678 C200.256577,677.605179 187.198255,674.232878 174.763646,669.168152 L165,665.191332 C146.687364,657.732432 126.224794,657.509866 107.754252,664.568686 L70.9486338,678.634556 C61.2586128,682.337756 50.3745677,681.112886 41.75,675.348597 L33.9930094,670.164159 C29.9999738,667.495386 25.8810669,665.01993 21.6505239,662.746346 L1,651.391882 L1,584 Z" id="section-divide-pattern"></path>
            </g>
        </g>
    </g>
</svg>