<?xml version="1.0" encoding="UTF-8"?>
<svg width="36px" height="36px" viewBox="0 0 36 36" version="1.1" xmlns="http://www.w3.org/2000/svg" xmlns:xlink="http://www.w3.org/1999/xlink">
    <!-- Generator: Sketch 43.2 (39069) - http://www.bohemiancoding.com/sketch -->
    <title>Combined Shape</title>
    <desc>Created with Sketch.</desc>
    <defs></defs>
    <g id="Services" stroke="none" stroke-width="1" fill="none" fill-rule="evenodd">
        <g id="13&quot;-MacBook-in-Safari" transform="translate(-743.000000, -793.000000)" fill="#EA5747">
            <g id="Web-Dev-Block" transform="translate(647.000000, 687.000000)">
                <path d="M114.179672,141.88042 C104.403819,141.88042 96.4789236,133.955525 96.4789236,124.179672 C96.4789236,114.403819 104.403819,106.478924 114.179672,106.478924 C123.955525,106.478924 131.88042,114.403819 131.88042,124.179672 C131.88042,133.955525 123.955525,141.88042 114.179672,141.88042 Z M114.179672,108.500116 L110.321031,124.24092 L114.179672,139.185497 L118.160809,124.24092 L114.179672,108.500116 Z M114.141116,125.295838 C113.667545,125.295838 113.28364,124.911933 113.28364,124.438362 C113.28364,123.964791 113.667545,123.580886 114.141116,123.580886 C114.614686,123.580886 114.998591,123.964791 114.998591,124.438362 C114.998591,124.911933 114.614686,125.295838 114.141116,125.295838 Z" id="Combined-Shape" transform="translate(114.179672, 124.179672) rotate(30.000000) translate(-114.179672, -124.179672) "></path>
            </g>
        </g>
    </g>
</svg>