<?xml version="1.0" encoding="UTF-8"?>
<svg width="293px" height="356px" viewBox="0 0 293 356" version="1.1" xmlns="http://www.w3.org/2000/svg" xmlns:xlink="http://www.w3.org/1999/xlink">
    <!-- Generator: Sketch 43.2 (39069) - http://www.bohemiancoding.com/sketch -->
    <title>Combined Shape</title>
    <desc>Created with Sketch.</desc>
    <defs></defs>
    <g id="Services" stroke="none" stroke-width="1" fill="none" fill-rule="evenodd">
        <g id="13&quot;-MacBook-in-Safari" transform="translate(-647.000000, -705.000000)" fill="#F5F5F6">
            <g id="Web-Dev-Block" transform="translate(647.000000, 687.000000)">
                <path d="M115.593364,373.091526 C17.7251192,373.091526 -61.6127693,293.753638 -61.6127693,195.885393 C-61.6127693,98.0171473 17.7251192,18.6792589 115.593364,18.6792589 C213.46161,18.6792589 292.799498,98.0171473 292.799498,195.885393 C292.799498,293.753638 213.46161,373.091526 115.593364,373.091526 Z M115.593364,38.9138693 L76.9636536,196.498563 L115.593364,346.112046 L155.449415,196.498563 L115.593364,38.9138693 Z M115.207367,207.059575 C110.466345,207.059575 106.622987,203.216217 106.622987,198.475195 C106.622987,193.734172 110.466345,189.890814 115.207367,189.890814 C119.94839,189.890814 123.791748,193.734172 123.791748,198.475195 C123.791748,203.216217 119.94839,207.059575 115.207367,207.059575 Z" id="Combined-Shape" transform="translate(115.593364, 195.885393) rotate(30.000000) translate(-115.593364, -195.885393) "></path>
            </g>
        </g>
    </g>
</svg>