<?xml version="1.0" encoding="UTF-8"?>
<svg width="241px" height="475px" viewBox="0 0 241 475" version="1.1" xmlns="http://www.w3.org/2000/svg" xmlns:xlink="http://www.w3.org/1999/xlink">
    <!-- Generator: Sketch 51.2 (57519) - http://www.bohemiancoding.com/sketch -->
    <title>wwdc-hero</title>
    <desc>Created with Sketch.</desc>
    <defs>
        <path d="M54.7348519,134.504007 C55.9850756,125.602352 64.208564,119.400098 73.1014785,120.650738 L237.542832,143.776664 C246.436216,145.02737 252.63206,153.258634 251.381998,162.15914 L211.265148,447.793117 C210.014924,456.694772 201.791436,462.897027 192.898522,461.646387 L28.4571681,438.52046 C19.563784,437.269754 13.3679398,429.03849 14.6180021,420.137984 L54.7348519,134.504007 Z M125.700447,160.661892 C125.264793,163.763769 127.424639,166.630491 130.524384,167.066419 L170.046865,172.624595 C173.142866,173.059995 176.012539,170.899896 176.448097,167.798701 C176.883751,164.696824 174.723905,161.830102 171.62416,161.394174 L132.101679,155.835998 C129.005678,155.400598 126.136005,157.560697 125.700447,160.661892 Z" id="path-1"></path>
        <filter x="-9.9%" y="-5.4%" width="119.8%" height="113.8%" filterUnits="objectBoundingBox" id="filter-2">
            <feOffset dx="0" dy="5" in="SourceAlpha" result="shadowOffsetOuter1"></feOffset>
            <feGaussianBlur stdDeviation="7" in="shadowOffsetOuter1" result="shadowBlurOuter1"></feGaussianBlur>
            <feColorMatrix values="0 0 0 0 0   0 0 0 0 0   0 0 0 0 0  0 0 0 0.056640625 0" type="matrix" in="shadowBlurOuter1"></feColorMatrix>
        </filter>
        <filter x="-6.7%" y="-3.2%" width="113.5%" height="109.4%" filterUnits="objectBoundingBox" id="filter-3">
            <feGaussianBlur stdDeviation="1" in="SourceAlpha" result="shadowBlurInner1"></feGaussianBlur>
            <feOffset dx="0" dy="-1" in="shadowBlurInner1" result="shadowOffsetInner1"></feOffset>
            <feComposite in="shadowOffsetInner1" in2="SourceAlpha" operator="arithmetic" k2="-1" k3="1" result="shadowInnerInner1"></feComposite>
            <feColorMatrix values="0 0 0 0 0   0 0 0 0 0   0 0 0 0 0  0 0 0 0.0718410326 0" type="matrix" in="shadowInnerInner1" result="shadowMatrixInner1"></feColorMatrix>
            <feGaussianBlur stdDeviation="1" in="SourceAlpha" result="shadowBlurInner2"></feGaussianBlur>
            <feOffset dx="0" dy="2" in="shadowBlurInner2" result="shadowOffsetInner2"></feOffset>
            <feComposite in="shadowOffsetInner2" in2="SourceAlpha" operator="arithmetic" k2="-1" k3="1" result="shadowInnerInner2"></feComposite>
            <feColorMatrix values="0 0 0 0 1   0 0 0 0 1   0 0 0 0 1  0 0 0 0.5 0" type="matrix" in="shadowInnerInner2" result="shadowMatrixInner2"></feColorMatrix>
            <feMerge>
                <feMergeNode in="shadowMatrixInner1"></feMergeNode>
                <feMergeNode in="shadowMatrixInner2"></feMergeNode>
            </feMerge>
        </filter>
        <path d="M132.527536,270.403834 C133.841552,270.403834 136.173896,269.845018 139.524638,268.72737 C142.875379,267.609721 145.733322,267.050905 148.098551,267.050905 C152.040599,267.050905 155.55554,268.102794 158.643478,270.206603 C159.497589,270.864043 160.351687,271.587217 161.205797,272.376145 C162.059908,273.165073 162.914005,274.085476 163.768116,275.13738 C161.205784,277.372677 159.333339,279.344968 158.150725,281.054313 C155.982598,284.078538 154.898551,287.464305 154.898551,291.211715 C154.898551,295.287844 156.048298,298.969455 158.347826,302.256656 C160.581654,305.478113 163.176797,307.549019 166.133333,308.469436 C165.476325,310.441756 164.655077,312.463355 163.669565,314.534292 C162.684053,316.605229 161.501456,318.69257 160.121739,320.796379 C155.916887,327.17355 151.679248,330.362087 147.408696,330.362087 C145.634774,330.362087 143.30243,329.836143 140.411594,328.784239 C137.586459,327.798078 135.122716,327.305005 133.02029,327.305005 C130.852163,327.305005 128.486969,327.83095 125.924638,328.882854 C123.165204,330.000503 120.997109,330.559318 119.42029,330.559318 C114.427028,330.559318 109.499541,326.318892 104.637681,317.837913 C99.7758211,309.422677 97.3449275,301.139054 97.3449275,292.986794 C97.3449275,285.491975 99.1845227,279.345001 102.863768,274.545687 C106.608714,269.812117 111.306252,267.445367 116.956522,267.445367 C119.387452,267.445367 122.311094,267.93844 125.727536,268.924601 C129.209679,269.910761 131.476323,270.403834 132.527536,270.403834 Z M147.605797,250.483493 C147.605797,252.587302 147.113048,254.855437 146.127536,257.287966 C145.142024,259.720495 143.630928,261.98863 141.594203,264.092439 C139.688879,265.867528 137.882134,267.050902 136.173913,267.642599 C134.925598,267.971319 133.250252,268.234291 131.147826,268.431523 C131.213527,263.566465 132.478249,259.342474 134.942029,255.759425 C137.405809,252.176375 141.528474,249.727447 147.310145,248.412567 C147.441547,248.872775 147.523671,249.267233 147.556522,249.595953 C147.589372,249.924673 147.605797,250.220517 147.605797,250.483493 Z" id="path-4"></path>
        <filter x="-19.6%" y="-12.8%" width="139.3%" height="132.9%" filterUnits="objectBoundingBox" id="filter-5">
            <feOffset dx="0" dy="3" in="SourceAlpha" result="shadowOffsetOuter1"></feOffset>
            <feGaussianBlur stdDeviation="4" in="shadowOffsetOuter1" result="shadowBlurOuter1"></feGaussianBlur>
            <feColorMatrix values="0 0 0 0 0.886853576   0 0 0 0 0.406685174   0 0 0 0 0.227059036  0 0 0 0.446105072 0" type="matrix" in="shadowBlurOuter1"></feColorMatrix>
        </filter>
    </defs>
    <g id="Homepage" stroke="none" stroke-width="1" fill="none" fill-rule="evenodd">
        <g id="13&quot;-MacBook-in-Safari" transform="translate(-701.000000, -1178.000000)">
            <g id="WWDC-Section" transform="translate(308.000000, 1178.000000)">
                <g id="wwdc-hero" transform="translate(380.000000, 0.000000)">
                    <g id="Group">
                        <path d="M134.400151,157.390637 C143.800748,157.390637 152.11654,149.053052 159.306597,133.354033 C165.493041,119.846337 170.633927,101.367009 174.812305,79.1767586 C178.067865,61.8873425 180.55784,43.3550433 182.381514,24.8216199 C183.019881,18.3340987 183.529308,12.3102769 183.922342,6.90505396 C184.059851,5.0139617 184.172976,3.3355367 184.263289,1.88913375 C184.284342,1.55195181 184.321457,0.92224056 184.374632,0 L186.83755,0 C186.789888,0.836443505 186.754081,1.5332747 186.722262,2.04287336 C186.631433,3.49753203 186.517743,5.18433852 186.379614,7.08396679 C185.985112,12.5093739 185.473929,18.5539685 184.833425,25.0632034 C183.003184,43.6633689 180.503939,62.2646584 177.233469,79.6332586 C173.021234,102.003315 167.831682,120.657576 161.546354,134.381178 C153.997044,150.864603 145.029123,159.856026 134.400151,159.856026 L134.400151,157.390637 Z" id="Path-1" fill="#343747" fill-rule="nonzero"></path>
                        <g id="Rectangle-1" transform="translate(133.000000, 291.148562) rotate(-5.000000) translate(-133.000000, -291.148562) ">
                            <use fill="black" fill-opacity="1" filter="url(#filter-2)" xlink:href="#path-1"></use>
                            <use fill="#FFFFFF" fill-rule="evenodd" xlink:href="#path-1"></use>
                            <use fill="black" fill-opacity="1" filter="url(#filter-3)" xlink:href="#path-1"></use>
                        </g>
                        <g id="" fill-rule="nonzero" transform="translate(131.739130, 289.485942) rotate(3.000000) translate(-131.739130, -289.485942) ">
                            <use fill="black" fill-opacity="1" filter="url(#filter-5)" xlink:href="#path-4"></use>
                            <use fill="#E06841" xlink:href="#path-4"></use>
                        </g>
                        <path d="M88,0 C88.0285501,0.821974826 88.0055394,1.41071717 88.0258601,1.91648367 C88.0839732,3.36287176 88.1597333,5.04128101 88.2551423,6.93235644 C88.5278456,12.3375334 88.9031687,18.3613043 89.3971084,24.8487669 C90.8081794,43.3819398 92.8855643,61.9139589 95.7561678,79.2029715 C99.4403099,101.391749 104.169445,119.869626 110.054141,133.374923 C116.890602,149.064511 125.009613,157.390637 134.400151,157.390637 L141.655306,158.37059 C139.32437,159.356386 136.913657,159.856026 134.400151,159.856026 C123.761119,159.856026 114.982187,150.853143 107.795715,134.360287 C101.814852,120.634286 97.0402023,101.978575 93.3257168,79.6070456 C90.4418319,62.238042 88.3566506,43.6364723 86.9404599,25.0360564 C86.444858,18.5267629 86.0682342,12.4821174 85.794508,7.05666431 C85.6986667,5.15701922 85.6225268,3.47019698 85.5640808,2.01552344 C85.5504308,1.67578673 85.5290706,1.00394558 85.5,0 L88,0 Z" id="Path-1" fill="#343747" fill-rule="nonzero"></path>
                    </g>
                </g>
            </g>
        </g>
    </g>
</svg>