<?xml version="1.0" encoding="UTF-8"?>
<svg width="272px" height="151px" viewBox="0 0 272 151" version="1.1" xmlns="http://www.w3.org/2000/svg" xmlns:xlink="http://www.w3.org/1999/xlink">
    <!-- Generator: Sketch 51.1 (57501) - http://www.bohemiancoding.com/sketch -->
    <title>fifth-anniversary-emblem</title>
    <desc>Created with Sketch.</desc>
    <defs></defs>
    <g id="Symbols" stroke="none" stroke-width="1" fill="none" fill-rule="evenodd">
        <g id="Fifth-Anniversary-Artwork" transform="translate(-304.000000, -145.000000)" fill="#FFFFFF">
            <g id="fifth-anniversary-emblem" transform="translate(304.000000, 145.000000)">
                <path d="M216.877278,150 L214.280713,150 L201.763198,105.581701 L208.792987,80.4507731 L222.004617,130.554934 L256.429773,0 L272,0 L229.728522,150 L216.877278,150 Z M175,10.612708 L135.719287,150 L122.868044,150 L120.271478,150 L107.753964,105.581701 L114.783753,80.4507731 L127.995383,130.554934 L162.420538,0 L177.990766,0 L187.579462,0 L195.380354,29.5843236 L188.141011,57.2434796 L175,10.612708 Z M169.872661,150 L167.604457,150 L154.873268,105.171702 L161.934902,79.926932 L175.193429,129.821369 L209.425156,0 L224.995383,0 L182.723905,150 L169.872661,150 Z M101.371119,29.5843236 L94.1317767,57.2434796 L78,0 L93.5702273,0 L101.371119,29.5843236 Z M148.465821,29.2401399 L141.196493,57.0138611 L125.004617,0 L140.695793,0 L148.465821,29.2401399 Z" id="Combined-Shape" fill-opacity="0.469231205"></path>
                <path d="M80.876399,130.424323 L115.389841,0 L131,0 L88.6201123,149.849936 L86.0168878,149.849936 L73.1326857,149.849936 L30.752798,0 L46.3629567,0 L80.876399,130.424323 Z M0,0 L12.8732643,0 L12.8732643,151 L0,151 L0,0 Z" id="Combined-Shape"></path>
            </g>
        </g>
    </g>
</svg>