<?xml version="1.0" encoding="UTF-8"?>
<svg width="139px" height="139px" viewBox="0 0 139 139" version="1.1" xmlns="http://www.w3.org/2000/svg" xmlns:xlink="http://www.w3.org/1999/xlink">
    <!-- Generator: Sketch 64 (93537) - https://sketch.com -->
    <title>Group 6</title>
    <desc>Created with Sketch.</desc>
    <defs>
        <linearGradient x1="50%" y1="0%" x2="50%" y2="100%" id="linearGradient-1">
            <stop stop-color="#54C1FA" offset="0%"></stop>
            <stop stop-color="#0D79E8" offset="100%"></stop>
        </linearGradient>
    </defs>
    <g id="Home" stroke="none" stroke-width="1" fill="none" fill-rule="evenodd">
        <g id="Desktop-HD" transform="translate(-635.000000, -3897.000000)">
            <g id="Group-6" transform="translate(635.000000, 3897.000000)">
                <circle id="Oval" fill="url(#linearGradient-1)" cx="69.5" cy="69.5" r="69.5"></circle>
                <path d="M94.2884698,78.5262769 L107.818069,78.5262769 C110.67997,78.5262769 113,80.8368502 113,83.6870867 C113,86.5373233 110.67997,88.8478966 107.818069,88.8478966 L100.286076,88.8478966 L105.658931,98.0943476 C106.954413,100.531397 106.378643,102.753412 103.93162,104.760394 C101.484597,106.767375 98.9656027,106.337308 96.374637,103.470191 L76.4469328,69.2218422 C73.7121685,64.5217944 73.91112,58.6794039 76.9593351,54.1746824 L78.669705,51.6470588 L94.2884698,78.5262769 L94.2884698,78.5262769 Z M69.2397397,36.0319491 L71.6908521,31.6578151 C73.1150638,29.1162371 76.2693578,28.2454282 78.7361648,29.7128089 C81.2029719,31.1801896 82.0481624,34.4300927 80.6239507,36.9716706 L74.1465925,48.5308443 C73.9384162,49.1334421 73.6246522,49.6991465 73.2137097,50.1956208 L58.0507769,77.2546418 L74.27733,77.2546418 C78.0752279,77.2546418 81.1540325,80.4267674 81.1540325,84.3397826 L81.1540325,87.8823529 L32.1575269,87.8823529 C29.3091034,87.8823529 27,85.5032588 27,82.5684974 C27,79.633736 29.3091034,77.2546418 32.1575269,77.2546418 L46.1399787,77.2546418 L63.2843406,46.6596602 L57.9451614,37.1316247 C56.5209497,34.5900468 57.3661402,31.3401437 59.8329473,29.872763 C62.2997544,28.4053823 65.4540484,29.2761913 66.8782601,31.8177692 L69.2397397,36.0319491 L69.2397397,36.0319491 Z M49.8947368,93.8965333 L44.1374775,103.386504 C42.606699,105.909761 39.3372059,106.747812 36.7790898,105.272639 C34.2180889,103.795803 33.3030727,100.548787 34.7168272,97.9545187 L37.0831616,93.6122464 C38.8375847,90.3928439 42.8727743,89.2035521 46.0960099,90.9558889 C46.4547681,91.1509305 46.7947566,91.3785972 47.1116577,91.6359979 L49.8947368,93.8965333 Z" id="Combined-Shape" fill="#FFFFFF"></path>
            </g>
        </g>
    </g>
</svg>