<?xml version="1.0" encoding="UTF-8"?>
<svg width="67px" height="60px" viewBox="0 0 67 60" version="1.1" xmlns="http://www.w3.org/2000/svg" xmlns:xlink="http://www.w3.org/1999/xlink">
    <!-- Generator: Sketch 64 (93537) - https://sketch.com -->
    <title>Combined Shape</title>
    <desc>Created with Sketch.</desc>
    <g id="Page-1" stroke="none" stroke-width="1" fill="none" fill-rule="evenodd">
        <g id="Desktop-HD" transform="translate(-538.000000, -3240.000000)" fill="#1CAAF8">
            <g id="Group-4" transform="translate(497.000000, 3214.000000)">
                <path d="M92.9232677,62.7703049 L103.824682,62.7703049 C106.130646,62.7703049 108,64.5557479 108,66.7582034 C108,68.9606589 106.130646,70.7461019 103.824682,70.7461019 L97.7558119,70.7461019 L102.084966,77.8910868 C103.128796,79.7742611 102.664871,81.491273 100.693193,83.0421224 C98.7215153,84.5929718 96.6918467,84.260647 94.6041877,82.0451478 L78.5475286,55.5805144 C76.3440045,51.9486593 76.5043087,47.4340849 78.9603945,43.9531636 L80.3385174,42 L92.9232677,62.7703049 L92.9232677,62.7703049 Z M73.6621243,31.4934907 L75.5574612,28.076335 C76.6587412,26.0908066 79.0978173,25.4105144 81.0052903,26.5568597 C82.9127632,27.7032051 83.5663117,30.2420904 82.4650317,32.2276188 L77.4563767,41.2578624 C77.2954033,41.7286231 77.0527834,42.170562 76.7350197,42.5584171 L65.0101938,63.6974325 L77.5574703,63.6974325 C80.4942169,63.6974325 82.8749205,66.1755565 82.8749205,69.2324775 L82.8749205,72 L44.9880877,72 C42.7855277,72 41,70.1414069 41,67.8487162 C41,65.5560255 42.7855277,63.6974325 44.9880877,63.6974325 L55.8000998,63.6974325 L69.0570773,39.7960583 L64.928526,32.352578 C63.827246,30.3670496 64.4807945,27.8281642 66.3882674,26.6818189 C68.2957403,25.5354735 70.7348165,26.2157658 71.8360965,28.2012942 L73.6621243,31.4934907 L73.6621243,31.4934907 Z M59,76.8381922 L54.6390195,84.0216949 C53.4794929,85.9316926 51.0029334,86.5660617 49.0652242,85.4494189 C47.1253298,84.3315169 46.4322278,81.8736646 47.5031117,79.909914 L49.295551,76.6229992 C50.6244828,74.1860488 53.6810384,73.2858057 56.122559,74.6122498 C56.3943094,74.759888 56.6518422,74.932222 56.8918869,75.1270633 L59,76.8381922 Z" id="Combined-Shape"></path>
            </g>
        </g>
    </g>
</svg>