<?xml version="1.0" encoding="UTF-8"?>
<svg width="459px" height="504px" viewBox="0 0 459 504" version="1.1" xmlns="http://www.w3.org/2000/svg" xmlns:xlink="http://www.w3.org/1999/xlink">
    <!-- Generator: Sketch 64 (93537) - https://sketch.com -->
    <title>Device Model</title>
    <desc>Created with Sketch.</desc>
    <g id="Device-Model" stroke="none" stroke-width="1" fill="none" fill-rule="evenodd">
        <path d="M304.396027,0 C351.200761,0 368.173288,4.87334459 385.284399,14.0244669 C402.395511,23.1755893 415.824411,36.6044895 424.975533,53.7156006 L425.424335,54.561327 C432.029822,67.108571 436.330832,79.846715 438.092689,104.585406 C436.80501,105.848227 435.609295,107.204462 434.516504,108.643139 C435.678434,108.22629 436.928516,108 438.228628,108 L446.245269,108 C451.877952,108 456.600528,112.254949 457.185739,117.857149 C458.395246,129.435723 459,141.316673 459,153.5 C459,165.683326 458.395246,177.564276 457.185739,189.142849 C456.60053,194.74505 451.877953,199 446.245268,199 L438.228628,199 C437.310979,199 436.418254,198.887266 435.564061,198.67454 C436.627682,199.950371 437.776013,201.154239 439.000135,202.276782 L439.000135,369.396027 L438.994157,372.168752 C438.803355,416.879717 433.943633,433.515511 424.975533,450.284399 C415.824411,467.395511 402.395511,480.824411 385.284399,489.975533 L384.257659,490.519462 C367.482454,499.31964 350.264666,504 304.396027,504 L134.603973,504 C87.7992392,504 70.8267117,499.126655 53.7156006,489.975533 C36.6044895,480.824411 23.1755893,467.395511 14.0244669,450.284399 L13.4805377,449.257659 C4.77015787,432.65363 0.0959465228,415.616004 2.84217094e-14,370.791249 L2.84217094e-14,134.603973 C2.84217094e-14,87.7992392 4.87334459,70.8267117 14.0244669,53.7156006 C23.1755893,36.6044895 36.6044895,23.1755893 53.7156006,14.0244669 L54.7423407,13.4805377 C71.3463701,4.77015787 88.3839965,0.0959465228 133.208751,0 L304.396027,0 Z" id="Shape" stroke="#151515" stroke-width="2" fill="#000000"></path>
    </g>
</svg>