<?xml version="1.0" encoding="UTF-8"?>
<svg width="459px" height="504px" viewBox="0 0 459 504" version="1.1" xmlns="http://www.w3.org/2000/svg" xmlns:xlink="http://www.w3.org/1999/xlink">
    <!-- Generator: Sketch 64 (93537) - https://sketch.com -->
    <title>Device Model</title>
    <desc>Created with Sketch.</desc>
    <g id="Device-Model" stroke="none" stroke-width="1" fill="none" fill-rule="evenodd">
        <path d="M304.396027,1 L133.208751,1 C88.6599188,1.09535821 71.713057,5.70704318 55.206893,14.3660834 L54.1837309,14.9081264 C37.2529344,23.9628242 23.9628242,37.2529344 14.9062801,54.1871994 C5.80851105,71.1985486 1,88.0824364 1,134.603973 L1,370.791249 C1.09535821,415.340081 5.70704318,432.286943 14.3660834,448.793107 L14.9081264,449.816269 C23.9628242,466.747066 37.2529344,480.037176 54.1871994,489.09372 C71.1985486,498.191489 88.0824364,503 134.603973,503 L304.396027,503 C349.987875,503 367.115483,498.382904 383.793107,489.633917 L384.816269,489.091874 C401.747066,480.037176 415.037176,466.747066 424.09372,449.812801 C433.008151,433.144264 437.804547,416.598381 437.994166,372.164485 L438.000138,369.393871 L438.000135,202.711955 C436.876142,201.648974 435.861919,200.517934 434.949789,199.325248 L433.261453,197.117606 L435.969308,197.74345 C436.696179,197.911446 437.452611,198 438.228628,198 L446.245268,198 C448.80558,198 451.159048,197.032966 452.93894,195.429318 C454.718832,193.82567 455.925147,191.585409 456.191151,189.038954 C457.397132,177.494131 458,165.647809 458,153.5 C458,141.35219 457.397132,129.505868 456.19115,117.961045 C455.925146,115.41459 454.71883,113.174329 452.938939,111.570681 C451.159047,109.967034 448.805579,109 446.245269,109 L438.228628,109 C437.131362,109 436.073252,109.177105 435.082059,109.505224 L432.273703,110.434889 L433.941984,107.991943 C434.853883,106.656605 435.889657,105.39021 437.062114,104.20096 C435.294925,79.9600546 431.052307,67.3984267 424.539466,55.0271659 L424.092205,54.1843567 C415.037176,37.2529344 401.747066,23.9628242 384.812801,14.9062801 C367.801451,5.80851105 350.917564,1 304.396027,1 Z" id="Shape" stroke="#151515" stroke-width="2" fill="#000000"></path>
    </g>
</svg>