<?xml version="1.0" encoding="UTF-8"?>
<svg width="459px" height="504px" viewBox="0 0 459 504" version="1.1" xmlns="http://www.w3.org/2000/svg" xmlns:xlink="http://www.w3.org/1999/xlink">
    <!-- Generator: Sketch 64 (93537) - https://sketch.com -->
    <title>Device Model</title>
    <desc>Created with Sketch.</desc>
    <defs>
        <path d="M114.313322,40 L292.929272,40 C318.083473,40 327.365321,42.5928839 336.561442,47.4649465 L336.840103,47.6132821 C345.931356,52.4753373 353.107849,59.5618481 358.066477,68.5697074 L358.386718,69.1598974 C363.304793,78.3558974 365.946857,87.4781634 366,112.313322 L366,360.929272 C366,386.083473 363.407116,395.365321 358.535054,404.561442 L358.386718,404.840103 C353.524663,413.931356 346.438152,421.107849 337.430293,426.066477 L336.840103,426.386718 C327.644103,431.304793 318.521837,433.946857 293.686678,434 L115.070728,434 C89.916527,434 80.634679,431.407116 71.4385578,426.535054 L71.1598974,426.386718 C62.0686445,421.524663 54.8921508,414.438152 49.9335233,405.430293 L49.6132821,404.840103 C44.6952074,395.644103 42.0531428,386.521837 42,361.686678 L42,113.070728 C42,87.916527 44.5928839,78.634679 49.4649465,69.4385578 L49.6132821,69.1598974 C54.4753373,60.0686445 61.5618481,52.8921508 70.5697074,47.9335233 L71.1598974,47.6132821 C80.3558974,42.6952074 89.4781634,40.0531428 114.313322,40 Z" id="path-1"></path>
    </defs>
    <g id="Device-Model" stroke="none" stroke-width="1" fill="none" fill-rule="evenodd">
        <path d="M133.208751,0 L304.396027,0 C351.200761,0 368.173288,4.87334459 385.284399,14.0244669 C402.395511,23.1755893 415.824411,36.6044895 424.975533,53.7156006 L425.424335,54.561327 C432.029822,67.108571 436.330832,79.846715 438.092689,104.585406 L438.994157,372.168752 C438.803355,416.879717 433.943633,433.515511 424.975533,450.284399 C415.824411,467.395511 402.395511,480.824411 385.284399,489.975533 L384.257659,490.519462 C367.482454,499.31964 350.264666,504 304.396027,504 L134.603973,504 C87.7992392,504 70.8267117,499.126655 53.7156006,489.975533 C36.6044895,480.824411 23.1755893,467.395511 14.0244669,450.284399 L13.4805377,449.257659 C4.77015787,432.65363 0.0959465228,415.616004 2.84217094e-14,370.791249 L2.84217094e-14,134.603973 C2.84217094e-14,87.7992392 4.87334459,70.8267117 14.0244669,53.7156006 C23.1755893,36.6044895 36.6044895,23.1755893 53.7156006,14.0244669 L54.7423407,13.4805377 C71.3463701,4.77015787 88.3839965,0.0959465228 133.208751,0 Z" id="Watch-Case" fill="#1D1B1C"></path>
        <path d="M304.396027,0 C351.200761,0 368.173288,4.87334459 385.284399,14.0244669 C402.395511,23.1755893 415.824411,36.6044895 424.975533,53.7156006 L425.424335,54.561327 L425.866155,55.4076318 L426.296075,56.2456756 C432.409162,68.2710328 436.409567,80.9522489 438.092689,104.585406 L438.093,105 L435.977,105 L435.969,102.999995 L435.96646,102.961676 C434.341268,82.007202 430.907177,69.4351604 423.949622,56.0567637 L423.65768,55.4988392 L423.211907,54.6587983 C414.247184,37.8962241 401.103776,24.7528161 384.341202,15.7880933 C365.415505,5.66651985 347.136184,2.07195159 305.660006,1.99999542 L133.213032,1.99999542 L129.64415,2.01686004 C91.8030813,2.29748215 73.9196952,5.79966328 56.2311545,14.9598469 L55.6786014,15.2478566 L54.6587983,15.7880933 C37.8962241,24.7528161 24.7528161,37.8962241 15.7880933,54.6587983 C5.66651985,73.5844952 2.07195159,91.8638163 1.99999542,133.339994 L1.99999542,370.786968 L2.01686004,374.35585 C2.29748215,412.196919 5.79966328,430.080305 14.9598469,447.768845 L15.2478566,448.321399 L15.7880933,449.341202 C24.7528161,466.103776 37.8962241,479.247184 54.6587983,488.211907 C73.2059813,498.131049 91.1323849,501.781655 130.879069,501.990422 L134.603973,501.999995 L306.844428,501.999995 C346.398589,501.860765 364.712016,498.389553 382.763288,489.043027 L383.321399,488.752143 L384.341202,488.211907 C401.103776,479.247184 414.247184,466.103776 423.211907,449.341202 C431.555834,433.739414 435.223039,419.341771 436.509987,392.331707 L436.565,391.11 L436.566169,388.685971 C437.188317,389.215338 437.87394,389.591463 438.622977,389.796841 L438.623979,389.797115 L438.541755,391.688301 C437.132938,422.237156 432.500506,436.213924 424.975533,450.284399 C415.824411,467.395511 402.395511,480.824411 385.284399,489.975533 L384.257659,490.519462 C367.482454,499.31964 350.264666,504 304.396027,504 L134.603973,504 L131.831248,503.994157 C87.1202826,503.803355 70.4844895,498.943633 53.7156006,489.975533 C36.6044895,480.824411 23.1755893,467.395511 14.0244669,450.284399 L13.4805377,449.257659 L12.9627627,448.260678 C4.58502072,431.96101 0.0940275923,414.719508 1.6143531e-11,370.791249 L1.6143531e-11,134.603973 C1.6143531e-11,87.7992392 4.87334459,70.8267117 14.0244669,53.7156006 C23.1755893,36.6044895 36.6044895,23.1755893 53.7156006,14.0244669 L54.7423407,13.4805377 L55.7393216,12.9627627 C72.03899,4.58502072 89.2804916,0.0940275923 133.208751,0 L304.396027,0 Z M438.417,201 L438.613299,259.135444 C437.879621,259.322328 437.213004,259.665773 436.607586,260.152212 L436.608,257.767 L436.374,201 L438.417,201 Z M438.1,107.021 L438.41,198.978 L436.365,198.978 L435.986,107.021 L438.1,107.021 Z" id="Watch-Case-Outline" fill="#262627" fill-rule="nonzero"></path>
        <g id="Crown" transform="translate(424.000000, 105.000000)">
            <path d="M20.8955224,0 L11.473696,0 C8.77867237,0 6.38526155,1.68381103 5.52947669,4.18187198 C1.83816046,14.9569944 0,29.5584096 0,48 L0.00174757105,48.9806358 C0.0661297225,66.9606811 1.90387839,81.234838 5.52947536,91.8181241 C6.38525665,94.3161895 8.77867048,96 11.473701,96 L20.8955224,96 C28.6852103,96 35,89.8272451 35,82.212766 L35,13.787234 C35,6.17275494 28.6852103,0 20.8955224,0 Z M11.4616806,2.02105263 L20.9022937,2.02105263 C27.5511851,2.02105263 32.9411765,7.28178537 32.9411765,13.7712281 L32.9411765,82.2287719 C32.9411765,88.7182146 27.5511851,93.9789474 20.9022937,93.9789474 L11.4616856,93.9789474 C9.66141377,93.9789474 8.06262314,92.855882 7.49096485,91.1897264 C3.93932403,80.8381123 2.12435652,66.7623726 2.06056817,48.9757367 L2.05882353,47.9982185 C2.05882353,29.7518914 3.87454682,15.3506861 7.49096558,4.81027142 C8.06262621,3.14411894 9.66141567,2.02105263 11.4616806,2.02105263 Z" id="Crown-Gap" fill="#050505" fill-rule="nonzero"></path>
            <path d="M11.9819662,2 L21,2 C27.9035594,2 33.5,7.59644063 33.5,14.5 L33.5,81.5 C33.5,88.4035594 27.9035594,94 21,94 L11.981971,94 C9.8323639,94 7.92333038,92.6260591 7.24074246,90.5877058 C3.80930394,80.3406974 2.06294684,66.4642829 2.00167116,48.9584624 L2,48 C2,30.0415125 3.74691439,15.8456099 7.24074317,5.41229213 C7.92333341,3.37394397 9.83236327,2 11.9819662,2 Z" id="Rectangle" fill="#2B2B2B"></path>
        </g>
        <g id="Side-Button" transform="translate(432.000000, 257.978474)">
            <path d="M9.99999997,132 L9.99999997,0.980620237 L7.66584346,1.00312941 C2.46857988,1.23805363 -2.78968173e-08,8.66234801 -2.78968173e-08,19 L-2.78968173e-08,114 L0.00585557477,114.838362 C0.146386065,124.821898 2.8162508,132 7.99999997,132 L9.99999997,132 Z M5.999,6.759 L5.999,126.047 L5.99275206,126.033455 C4.85166862,123.682534 3.99999997,119.382191 3.99999997,114 L3.99999997,19 C3.99999997,13.5158523 4.8404331,9.16018667 5.95922765,6.84037638 L5.999,6.759 Z" id="Side-Button-Gap" fill="#050505" fill-rule="nonzero"></path>
            <path d="M7.99999997,3 L7.99999997,130 C4.163444,130 1.99999997,122.836556 1.99999997,114 L1.99999997,19 C1.99999997,10.2686411 3.99390104,3.17079531 7.68512933,3.00303642 L7.99999997,3 Z" id="Button" fill="#2B2B2B"></path>
        </g>
        <g id="Screen" transform="translate(18.000000, 15.000000)">
            <path d="M115.447584,4.7130734e-15 L285.343223,4.7130734e-15 C325.907326,4.7130734e-15 340.61685,4.22356531 355.44648,12.154538 C370.276109,20.0855107 381.914489,31.7238909 389.845462,46.5535205 L390.316867,47.4433619 C397.943688,61.9818729 402,76.903956 402,116.656777 L402,355.343223 C402,395.907326 397.776435,410.61685 389.845462,425.44648 C381.914489,440.276109 370.276109,451.914489 355.44648,459.845462 L354.556638,460.316867 C340.018127,467.943688 325.096044,472 285.343223,472 L116.656777,472 L114.253748,471.994936 C75.5042449,471.829574 61.0865575,467.617815 46.5535205,459.845462 C31.7238909,451.914489 20.0855107,440.276109 12.154538,425.44648 L11.6831327,424.556638 C4.13413682,410.166479 0.0831536531,395.400536 3.14204893e-15,356.552416 L3.14204893e-15,116.656777 C3.14204893e-15,76.0926739 4.22356531,61.3831501 12.154538,46.5535205 C20.0855107,31.7238909 31.7238909,20.0855107 46.5535205,12.154538 L47.4433619,11.6831327 C61.8335207,4.13413682 76.5994636,0.0831536531 115.447584,4.7130734e-15 Z" id="Rectangle" fill="#000000"></path>
            <mask id="mask-2" fill="white">
                <use xlink:href="#path-1"></use>
            </mask>
            <use id="Screen-Mask" fill="#000000" fill-rule="nonzero" xlink:href="#path-1"></use>
        </g>
    </g>
</svg>