<?xml version="1.0" encoding="UTF-8"?>
<svg width="459px" height="504px" viewBox="0 0 459 504" version="1.1" xmlns="http://www.w3.org/2000/svg" xmlns:xlink="http://www.w3.org/1999/xlink">
    <!-- Generator: Sketch 64 (93537) - https://sketch.com -->
    <title>Device Model</title>
    <desc>Created with Sketch.</desc>
    <g id="Device-Model" stroke="none" stroke-width="1" fill="none" fill-rule="evenodd">
        <path d="M304.396027,1 L133.208751,1 C88.6599188,1.09535821 71.713057,5.70704318 55.206893,14.3660834 L54.1837309,14.9081264 C37.2529344,23.9628242 23.9628242,37.2529344 14.9062801,54.1871994 C5.80851105,71.1985486 1,88.0824364 1,134.603973 L1,370.791249 C1.09535821,415.340081 5.70704318,432.286943 14.3660834,448.793107 L14.9081264,449.816269 C23.9628242,466.747066 37.2529344,480.037176 54.1871994,489.09372 C71.1985486,498.191489 88.0824364,503 134.603973,503 L304.396027,503 C349.987875,503 367.115483,498.382904 383.793107,489.633917 L384.816269,489.091874 C401.747066,480.037176 415.037176,466.747066 424.09372,449.812801 C433.008151,433.144264 437.804547,416.598381 437.994166,372.164485 L437.092809,104.622684 C435.343567,80.1043002 431.089698,67.4694534 424.539466,55.0271659 L424.092205,54.1843567 C415.037176,37.2529344 401.747066,23.9628242 384.812801,14.9062801 C367.801451,5.80851105 350.917564,1 304.396027,1 Z" id="Watch-Case" stroke="#262627" stroke-width="2" fill="#1D1B1C"></path>
        <g id="Crown" transform="translate(424.000000, 105.000000)">
            <path d="M20.8955224,0 L11.473696,0 C8.77867237,0 6.38526155,1.68381103 5.52947669,4.18187198 C1.83816046,14.9569944 0,29.5584096 0,48 L0.00174757105,48.9806358 C0.0661297225,66.9606811 1.90387839,81.234838 5.52947536,91.8181241 C6.38525665,94.3161895 8.77867048,96 11.473701,96 L20.8955224,96 C28.6852103,96 35,89.8272451 35,82.212766 L35,13.787234 C35,6.17275494 28.6852103,0 20.8955224,0 Z M11.4616806,2.02105263 L20.9022937,2.02105263 C27.5511851,2.02105263 32.9411765,7.28178537 32.9411765,13.7712281 L32.9411765,82.2287719 C32.9411765,88.7182146 27.5511851,93.9789474 20.9022937,93.9789474 L11.4616856,93.9789474 C9.66141377,93.9789474 8.06262314,92.855882 7.49096485,91.1897264 C3.93932403,80.8381123 2.12435652,66.7623726 2.06056817,48.9757367 L2.05882353,47.9982185 C2.05882353,29.7518914 3.87454682,15.3506861 7.49096558,4.81027142 C8.06262621,3.14411894 9.66141567,2.02105263 11.4616806,2.02105263 Z" id="Outline" fill="#050505" fill-rule="nonzero"></path>
            <path d="M11.9819662,2 L21,2 C27.9035594,2 33.5,7.59644063 33.5,14.5 L33.5,81.5 C33.5,88.4035594 27.9035594,94 21,94 L11.981971,94 C9.8323639,94 7.92333038,92.6260591 7.24074246,90.5877058 C3.80930394,80.3406974 2.06294684,66.4642829 2.00167116,48.9584624 L2,48 C2,30.0415125 3.74691439,15.8456099 7.24074317,5.41229213 C7.92333341,3.37394397 9.83236327,2 11.9819662,2 Z" id="Rectangle" fill="#2B2B2B"></path>
        </g>
        <g id="Side-Button" transform="translate(433.000000, 250.978474)">
            <path d="M8.5,117.021526 L8.5,0 L7.0849329,0.026830528 C3.39928458,0.166631213 0.5,2.8534013 0.5,6.1262283 L0.5,110.917197 C0.5,114.288525 3.57004743,117.021526 7.35714286,117.021526 L8.5,117.021526 Z M6.21428571,2.184867 L6.21428571,114.857541 L6.03685388,114.814449 C4.1558181,114.310136 2.78571429,112.756103 2.78571429,110.917197 L2.78571429,6.1262283 C2.78571429,4.28543915 4.16193228,2.72247318 6.05715096,2.22332036 L6.21428571,2.184867 Z" id="Outline" fill="#050505" fill-rule="nonzero"></path>
            <path d="M6.78311038,2.02614523 L7,2.02152571 L7,115.021526 C4.23857625,115.021526 2,112.782949 2,110.021526 L2,7.02152571 C2,4.33277101 4.12230671,2.1397076 6.78311038,2.02614523 L6.78311038,2.02614523 Z" fill="#2B2B2B"></path>
        </g>
        <g id="Screen" transform="translate(18.000000, 15.000000)" fill="#000000">
            <path d="M115.447584,4.7130734e-15 L285.343223,4.7130734e-15 C325.907326,4.7130734e-15 340.61685,4.22356531 355.44648,12.154538 C370.276109,20.0855107 381.914489,31.7238909 389.845462,46.5535205 L390.316867,47.4433619 C397.943688,61.9818729 402,76.903956 402,116.656777 L402,355.343223 C402,395.907326 397.776435,410.61685 389.845462,425.44648 C381.914489,440.276109 370.276109,451.914489 355.44648,459.845462 L354.556638,460.316867 C340.018127,467.943688 325.096044,472 285.343223,472 L116.656777,472 L114.253748,471.994936 C75.5042449,471.829574 61.0865575,467.617815 46.5535205,459.845462 C31.7238909,451.914489 20.0855107,440.276109 12.154538,425.44648 L11.6831327,424.556638 C4.13413682,410.166479 0.0831536531,395.400536 3.14204893e-15,356.552416 L3.14204893e-15,116.656777 C3.14204893e-15,76.0926739 4.22356531,61.3831501 12.154538,46.5535205 C20.0855107,31.7238909 31.7238909,20.0855107 46.5535205,12.154538 L47.4433619,11.6831327 C61.8335207,4.13413682 76.5994636,0.0831536531 115.447584,4.7130734e-15 Z" id="Rectangle"></path>
        </g>
    </g>
</svg>