<?xml version="1.0" encoding="UTF-8"?>
<svg width="459px" height="504px" viewBox="0 0 459 504" version="1.1" xmlns="http://www.w3.org/2000/svg" xmlns:xlink="http://www.w3.org/1999/xlink">
    <!-- Generator: Sketch 64 (93537) - https://sketch.com -->
    <title>Device Model</title>
    <desc>Created with Sketch.</desc>
    <g id="Device-Model" stroke="none" stroke-width="1" fill="none" fill-rule="evenodd">
        <path d="M304.396027,0 C351.200761,0 368.173288,4.87334459 385.284399,14.0244669 C402.395511,23.1755893 415.824411,36.6044895 424.975533,53.7156006 L425.424335,54.561327 C432.029822,67.108571 436.330832,79.846715 438.092689,104.585406 L438.093,105 L435.473696,105 C432.778672,105 430.385262,106.683811 429.529477,109.181872 C425.83816,119.956994 424,134.55841 424,153 L424.001748,153.980636 C424.06613,171.960681 425.903878,186.234838 429.529475,196.818124 C430.385257,199.316189 432.77867,201 435.473701,201 L438.417,201 L438.613299,259.135444 C434.134712,260.27141 432,267.365275 432,276.978474 L432,371.978474 L432.005856,372.816836 C432.133366,381.875434 434.343255,388.624345 438.623979,389.797115 C437.320813,421.666715 432.654077,435.926771 424.975533,450.284399 C415.824411,467.395511 402.395511,480.824411 385.284399,489.975533 L384.257659,490.519462 C367.482454,499.31964 350.264666,504 304.396027,504 L134.603973,504 C87.7992392,504 70.8267117,499.126655 53.7156006,489.975533 C36.6044895,480.824411 23.1755893,467.395511 14.0244669,450.284399 L13.4805377,449.257659 C4.77015787,432.65363 0.0959465228,415.616004 2.84217094e-14,370.791249 L2.84217094e-14,134.603973 C2.84217094e-14,87.7992392 4.87334459,70.8267117 14.0244669,53.7156006 C23.1755893,36.6044895 36.6044895,23.1755893 53.7156006,14.0244669 L54.7423407,13.4805377 C71.3463701,4.77015787 88.3839965,0.0959465228 133.208751,0 L304.396027,0 Z M437.999,264.737474 L437.999,384.025474 L437.992752,384.01193 C436.851669,381.661008 436,377.360666 436,371.978474 L436,276.978474 C436,271.494327 436.840433,267.138661 437.959228,264.818851 L437.999,264.737474 Z M438.1,107.021 L438.41,198.978 L435.461686,198.978947 C433.661414,198.978947 432.062623,197.855882 431.490965,196.189726 C427.939324,185.838112 426.124357,171.762373 426.060568,153.975737 L426.058824,152.998218 C426.058824,134.751891 427.874547,120.350686 431.490966,109.810271 C432.062626,108.144119 433.661416,107.021053 435.461681,107.021053 L438.1,107.021 Z" id="Watch-Case" fill="#1D1B1C"></path>
        <path d="M133.208751,0 L304.396027,0 C351.200761,0 368.173288,4.87334459 385.284399,14.0244669 C402.395511,23.1755893 415.824411,36.6044895 424.975533,53.7156006 L425.424335,54.561327 L425.866155,55.4076318 C432.221844,67.687132 436.370425,80.4026406 438.092689,104.585406 L438.093,105 L435.473696,105 C432.778672,105 430.385262,106.683811 429.529477,109.181872 C425.904077,119.764581 424.06624,134.038151 424.001759,152.015731 L424.001748,153.980636 L424.015807,155.927395 C424.202148,172.993921 426.035718,186.619685 429.529475,196.818124 C430.358513,199.238125 432.630584,200.893967 435.221963,200.995093 L435.473701,201 L438.417,201 L438.613299,259.135444 C434.134712,260.27141 432,267.365275 432,276.978474 L432,371.978474 L432.005856,372.816836 C432.133366,381.875434 434.343255,388.624345 438.623979,389.797115 L438.541755,391.688301 C437.132938,422.237156 432.500506,436.213924 424.975533,450.284399 C415.824411,467.395511 402.395511,480.824411 385.284399,489.975533 L384.257659,490.519462 C367.482454,499.31964 350.264666,504 304.396027,504 L134.603973,504 L131.831248,503.994157 C87.1202826,503.803355 70.4844895,498.943633 53.7156006,489.975533 C36.6044895,480.824411 23.1755893,467.395511 14.0244669,450.284399 L13.4805377,449.257659 L12.9627627,448.260678 C4.58502072,431.96101 0.0940275923,414.719508 2.84217094e-14,370.791249 L2.84217094e-14,134.603973 C2.84217094e-14,87.7992392 4.87334459,70.8267117 14.0244669,53.7156006 C23.1755893,36.6044895 36.6044895,23.1755893 53.7156006,14.0244669 L54.7423407,13.4805377 L55.7393216,12.9627627 C72.03899,4.58502072 89.2804916,0.0940275923 133.208751,0 Z M305.660006,1.99999542 L133.213032,1.99999542 L129.64415,2.01686004 C91.8030813,2.29748215 73.9196952,5.79966328 56.2311545,14.9598469 L55.6786014,15.2478566 L54.6587983,15.7880933 C37.8962241,24.7528161 24.7528161,37.8962241 15.7880933,54.6587983 C5.66651985,73.5844952 2.07195159,91.8638163 1.99999542,133.339994 L1.99999542,370.786968 L2.01686004,374.35585 C2.29748215,412.196919 5.79966328,430.080305 14.9598469,447.768845 L15.2478566,448.321399 L15.7880933,449.341202 C24.7528161,466.103776 37.8962241,479.247184 54.6587983,488.211907 C73.2059813,498.131049 91.1323849,501.781655 130.879069,501.990422 L134.603973,501.999995 L304.396027,501.999995 L306.844428,501.999995 C346.398589,501.860765 364.712016,498.389553 382.763288,489.043027 L383.321399,488.752143 L384.341202,488.211907 C401.103776,479.247184 414.247184,466.103776 423.211907,449.341202 C431.555834,433.739414 435.223039,419.341771 436.509987,392.331707 L436.565,391.11 L436.478107,391.063108 C432.411246,388.785846 430.287344,382.493307 430.026933,373.790334 L430.005904,372.830805 L429.999995,371.978474 L429.999995,276.978474 C429.999995,267.142044 432.093628,260.16142 436.509339,257.817781 L436.608,257.767 L436.424,202.999995 L435.473701,202.999995 C432.022972,202.999995 428.938593,200.893967 427.731177,197.725509 L427.637421,197.4663 C423.999738,186.847734 422.134157,172.696153 422.006965,154.955435 L422.001751,153.9842 L421.999995,152.999995 C421.999995,134.343166 423.866919,119.539969 427.637424,108.533693 C428.742284,105.308575 431.764926,103.117672 435.19474,103.004595 L435.473696,102.999995 L435.969,102.999995 L435.96646,102.961676 C434.341268,82.007202 430.907177,69.4351604 423.949622,56.0567637 L423.65768,55.4988392 L423.211907,54.6587983 C414.247184,37.8962241 401.103776,24.7528161 384.341202,15.7880933 C365.415505,5.66651985 347.136184,2.07195159 305.660006,1.99999542 Z M437.999,264.737474 L437.999,384.025474 L437.992752,384.01193 C436.851669,381.661008 436,377.360666 436,371.978474 L436,276.978474 C436,271.494327 436.840433,267.138661 437.959228,264.818851 L437.999,264.737474 Z M438.1,107.021 L438.41,198.978 L435.461686,198.978947 C433.661414,198.978947 432.062623,197.855882 431.490965,196.189726 C427.939324,185.838112 426.124357,171.762373 426.060568,153.975737 L426.058824,152.998218 C426.058824,134.751891 427.874547,120.350686 431.490966,109.810271 C432.062626,108.144119 433.661416,107.021 435.461681,107.021 L438.1,107.021 Z M436.107,109.021 L435.461681,109.021 C434.569155,109.021 433.779827,109.53633 433.443779,110.302772 L433.382716,110.459332 C429.909042,120.583702 428.123205,134.4613 428.06053,152.032554 L428.05882,152.994649 L428.060555,153.968564 C428.12358,171.542178 429.909606,185.41794 433.382716,195.540666 C433.656771,196.339427 434.407443,196.904626 435.284129,196.972155 L435.461043,196.978947 L436.403,196.978 L436.107,109.021 Z" id="Watch-Case" fill="#262627" fill-rule="nonzero"></path>
        <g id="Crown" transform="translate(426.000000, 107.000000)" fill="#2B2B2B">
            <path d="M9.98196618,0 L19,0 C25.9035594,0 31.5,5.59644063 31.5,12.5 L31.5,79.5 C31.5,86.4035594 25.9035594,92 19,92 L9.98197096,92 C7.8323639,92 5.92333038,90.6260591 5.24074246,88.5877058 C1.80930394,78.3406974 0.0629468429,64.4642829 0.00167115512,46.9584624 L0,46 C0,28.0415125 1.74691439,13.8456099 5.24074317,3.41229213 C5.92333341,1.37394397 7.83236327,0 9.98196618,0 Z" id="Rectangle"></path>
        </g>
        <g id="Side-Button" transform="translate(434.000000, 260.978474)" fill="#2B2B2B">
            <path d="M5.99999997,0 L5.99999997,127 C2.163444,127 -2.78968741e-08,119.836556 -2.78968741e-08,111 L-2.78968741e-08,16 C-2.78968741e-08,7.2686411 1.99390104,0.17079531 5.68512933,0.00303641878 L5.99999997,0 Z" id="Rectangle"></path>
        </g>
        <g id="Screen" transform="translate(18.000000, 15.000000)" fill="#000000">
            <path d="M115.447584,4.7130734e-15 L285.343223,4.7130734e-15 C325.907326,4.7130734e-15 340.61685,4.22356531 355.44648,12.154538 C370.276109,20.0855107 381.914489,31.7238909 389.845462,46.5535205 L390.316867,47.4433619 C397.943688,61.9818729 402,76.903956 402,116.656777 L402,355.343223 C402,395.907326 397.776435,410.61685 389.845462,425.44648 C381.914489,440.276109 370.276109,451.914489 355.44648,459.845462 L354.556638,460.316867 C340.018127,467.943688 325.096044,472 285.343223,472 L116.656777,472 L114.253748,471.994936 C75.5042449,471.829574 61.0865575,467.617815 46.5535205,459.845462 C31.7238909,451.914489 20.0855107,440.276109 12.154538,425.44648 L11.6831327,424.556638 C4.13413682,410.166479 0.0831536531,395.400536 3.14204893e-15,356.552416 L3.14204893e-15,116.656777 C3.14204893e-15,76.0926739 4.22356531,61.3831501 12.154538,46.5535205 C20.0855107,31.7238909 31.7238909,20.0855107 46.5535205,12.154538 L47.4433619,11.6831327 C61.8335207,4.13413682 76.5994636,0.0831536531 115.447584,4.7130734e-15 Z" id="Rectangle"></path>
        </g>
    </g>
</svg>