<?xml version="1.0" encoding="UTF-8" standalone="no"?>
<svg width="110px" height="69px" viewBox="0 0 110 69" version="1.1" xmlns="http://www.w3.org/2000/svg" xmlns:xlink="http://www.w3.org/1999/xlink">
    <!-- Generator: Sketch 3.7.1 (28215) - http://www.bohemiancoding.com/sketch -->
    <title>Combined Shape Copy</title>
    <desc>Created with Sketch.</desc>
    <defs></defs>
    <g id="Page-1" stroke="none" stroke-width="1" fill="none" fill-rule="evenodd">
        <path d="M87.1809678,59.4789305 L102.893393,0 L110,0 L90.7063339,68.3378201 L87.1809678,68.3378201 L83.6556017,68.3378201 L77.9423228,48.1014884 L81.1508786,36.6522031 L81.1508786,36.6522031 L87.1809678,59.4789305 Z M65.7269893,0 L59.9854363,0 L44.2730107,59.4789305 L38.2429215,36.6522031 L35.0343657,48.1014884 L40.7476446,68.3378201 L44.2730107,68.3378201 L47.7983768,68.3378201 L65.7269893,4.83499555 L71.7248462,26.0792974 L75.0290471,13.4781879 L75.0290471,13.4781879 L71.4685422,0 L65.7269893,0 Z M65.8152746,59.1447289 L81.4394149,0 L88.5460215,0 L69.2523554,68.3378201 L65.8247069,68.3378201 L62.3514949,68.3378201 L56.5406902,47.9146991 L59.7637807,36.4135487 L65.8152746,59.1447289 Z M44.278292,4.81628926 L26.3443983,68.3378201 L22.8190322,68.3378201 L19.2936661,68.3378201 L0,0 L7.10660659,0 L22.8190322,59.4789305 L38.5314578,0 L44.2730107,0 L50.0697673,0 L53.6161853,13.3213828 L53.6161853,13.3213828 L50.2982982,25.9746865 L44.278292,4.81628926 Z M32.12109,13.4781879 L28.5605851,0 L21.4539785,0 L28.8168891,26.0792974 L32.12109,13.4781879 L32.12109,13.4781879 Z" id="Combined-Shape-Copy" fill="#FFFFFF"></path>
    </g>
</svg>