<svg xmlns="http://www.w3.org/2000/svg" width="1440" height="618" viewBox="0 0 1440 618">
  <path fill="#939393" fill-opacity=".045" d="M378.207,657 L378.207,555.500977 L453.712371,555.500977 L453.712371,437.910645 L378.207,437.910645 L378.207,61.621582 L167.782195,61.621582 L-59.1465157,432.134277 L-59.1465157,555.500977 L235.035613,555.500977 L235.035613,657 L378.207,657 Z M239.16159,443.274414 L67.5209648,443.274414 L67.5209648,439.148438 L235.860809,166.008789 L239.16159,166.008789 L239.16159,443.274414 Z M709.032542,667.727539 C867.470042,667.727539 964.017893,549.312012 964.017893,359.51709 L964.017893,358.691895 C964.017893,168.896973 867.470042,50.894043 709.032542,50.894043 C550.595042,50.894043 453.634592,168.896973 453.634592,358.691895 L453.634592,359.51709 C453.634592,549.312012 550.595042,667.727539 709.032542,667.727539 Z M709.032542,549.312012 C643.429514,549.312012 606.708323,480.408203 606.708323,359.51709 L606.708323,358.691895 C606.708323,237.800781 643.429514,169.30957 709.032542,169.30957 C774.635569,169.30957 810.944163,237.800781 810.944163,358.691895 L810.944163,359.51709 C810.944163,480.408203 774.635569,549.312012 709.032542,549.312012 Z M1407.89519,657 L1407.89519,555.500977 L1483.40056,555.500977 L1483.40056,437.910645 L1407.89519,437.910645 L1407.89519,61.621582 L1197.47039,61.621582 L970.541677,432.134277 L970.541677,555.500977 L1264.72381,555.500977 L1264.72381,657 L1407.89519,657 Z M1268.84978,443.274414 L1097.20916,443.274414 L1097.20916,439.148438 L1265.549,166.008789 L1268.84978,166.008789 L1268.84978,443.274414 Z" transform="translate(0 -50)"/>
</svg>
