<?xml version="1.0" encoding="UTF-8"?>
<svg width="365px" height="149px" viewBox="0 0 365 149" version="1.1" xmlns="http://www.w3.org/2000/svg" xmlns:xlink="http://www.w3.org/1999/xlink">
    <!-- Generator: Sketch 49.2 (51160) - http://www.bohemiancoding.com/sketch -->
    <title>404</title>
    <desc>Created with Sketch.</desc>
    <defs>
        <path d="M70.078125,145 L70.078125,122.148438 L0.9375,122.148438 L0.9375,92.1679688 C13.7304687,67.65625 29.9414062,40.9960938 54.2578125,4.08203125 L103.964844,4.08203125 L103.964844,94.21875 L121.542969,94.21875 L121.542969,122.148438 L103.964844,122.148438 L103.964844,145 L70.078125,145 Z M31.8945312,93.7304688 L31.8945312,95.4882812 L70.9570312,95.4882812 L70.9570312,29.6679688 L69.1992188,29.6679688 C57.1875,48.2226562 47.7148438,64.2382812 31.8945312,93.7304688 Z M182.56953,148.808594 C145.948437,148.808594 123.389843,120.878906 123.389843,74.1992188 C123.389843,27.5195312 146.241405,0.2734375 182.56953,0.2734375 C218.799999,0.2734375 241.749218,27.421875 241.749218,74.296875 C241.749218,120.78125 219.092968,148.808594 182.56953,148.808594 Z M182.56953,121.269531 C196.241405,121.269531 205.421093,105.351562 205.421093,74.1992188 C205.421093,43.2421875 196.241405,27.8125 182.56953,27.8125 C168.897655,27.8125 159.815624,43.2421875 159.815624,74.1992188 C159.815624,105.351562 168.897655,121.269531 182.56953,121.269531 Z M312.736717,145 L312.736717,122.148438 L243.596092,122.148438 L243.596092,92.1679688 C256.389061,67.65625 272.599998,40.9960938 296.916405,4.08203125 L346.623436,4.08203125 L346.623436,94.21875 L364.201561,94.21875 L364.201561,122.148438 L346.623436,122.148438 L346.623436,145 L312.736717,145 Z M274.553123,93.7304688 L274.553123,95.4882812 L313.615623,95.4882812 L313.615623,29.6679688 L311.857811,29.6679688 C299.846092,48.2226562 290.373436,64.2382812 274.553123,93.7304688 Z" id="path-1"></path>
        <filter x="-0.3%" y="-0.7%" width="100.6%" height="101.3%" filterUnits="objectBoundingBox" id="filter-2">
            <feGaussianBlur stdDeviation="0.5" in="SourceAlpha" result="shadowBlurInner1"></feGaussianBlur>
            <feOffset dx="0" dy="1" in="shadowBlurInner1" result="shadowOffsetInner1"></feOffset>
            <feComposite in="shadowOffsetInner1" in2="SourceAlpha" operator="arithmetic" k2="-1" k3="1" result="shadowInnerInner1"></feComposite>
            <feColorMatrix values="0 0 0 0 0.911538053   0 0 0 0 0.911538053   0 0 0 0 0.911538053  0 0 0 0.5 0" type="matrix" in="shadowInnerInner1"></feColorMatrix>
        </filter>
    </defs>
    <g id="Page-1" stroke="none" stroke-width="1" fill="none" fill-rule="evenodd">
        <g id="404">
            <use fill="#FBFBFB" fill-rule="evenodd" xlink:href="#path-1"></use>
            <use fill="black" fill-opacity="1" filter="url(#filter-2)" xlink:href="#path-1"></use>
        </g>
    </g>
</svg>