<?xml version="1.0" encoding="UTF-8"?>
<svg width="43px" height="38px" viewBox="0 0 43 38" version="1.1" xmlns="http://www.w3.org/2000/svg" xmlns:xlink="http://www.w3.org/1999/xlink">
    <!-- Generator: Sketch 51.2 (57519) - http://www.bohemiancoding.com/sketch -->
    <title>Combined Shape</title>
    <desc>Created with Sketch.</desc>
    <defs></defs>
    <g id="Page-1" stroke="none" stroke-width="1" fill="none" fill-rule="evenodd">
        <path d="M33.4937051,23.9068844 L40.3673469,23.9068844 C41.8213211,23.9068844 43,25.0855633 43,26.5395374 C43,27.9935116 41.8213211,29.1721905 40.3673469,29.1721905 L36.5407573,29.1721905 L39.2704082,33.8890272 C39.9285714,35.1322245 39.6360544,36.2657279 38.3928571,37.2895374 C37.1496599,38.313347 35.869898,38.0939592 34.5535714,36.6313742 L24.4294057,19.1604688 C23.0400231,16.7628615 23.1410993,13.7825178 24.689729,11.4845511 L25.5586735,10.1951497 L33.4937051,23.9068844 Z M21.5612215,3.48385125 L22.8123887,1.31676612 C23.5393758,0.0575875792 25.1494811,-0.37383885 26.4086597,0.353148219 C27.6678382,1.08013529 28.0992646,2.69024064 27.3722776,3.94941918 L24.0659183,9.67620147 C23.959655,9.97474758 23.7994945,10.2550156 23.5897294,10.5009847 L15.8498297,23.9068844 L24.1326531,23.9068844 C26.0712852,23.9068844 27.6428571,25.4784563 27.6428571,27.4170884 L27.6428571,29.1721905 L2.63265306,29.1721905 C1.17867892,29.1721905 0,27.9935116 0,26.5395374 C0,25.0855633 1.17867892,23.9068844 2.63265306,23.9068844 L9.76997785,23.9068844 L18.5212956,8.74915738 L15.7959184,4.02866553 C15.0689313,2.76948699 15.5003577,1.15938164 16.7595363,0.432394571 C18.0187148,-0.294592497 19.6288202,0.136833932 20.3558072,1.39601247 L21.5612215,3.48385125 Z M11.4081633,32.0242313 L8.55686234,36.7297651 C7.7987394,37.9809038 6.17951262,38.3964456 4.91259749,37.6649918 C3.64425369,36.9327131 3.19108901,35.3227037 3.89125542,34.0363542 L5.06319,31.8832697 C5.93207361,30.286952 7.93051408,29.6972502 9.52683172,30.5661339 C9.70450784,30.6628439 9.87288821,30.7757308 10.0298345,30.903361 L11.4081633,32.0242313 Z" id="Combined-Shape" fill="#FFFFFF"></path>
    </g>
</svg>