<svg xmlns="http://www.w3.org/2000/svg" width="22" height="17" viewBox="0 0 22 17">
  <path fill="#E06841" fill-rule="evenodd" d="M17.587185,17 C18.2283702,17 18.7481536,17.4477153 18.7481536,18 C18.7481536,18.5522847 18.2283702,19 17.587185,19 L4.90912228,19 C4.26793699,19 3.74815362,18.5522847 3.74815362,18 C3.74815362,17.4477153 4.26793699,17 4.90912228,17 L17.587185,17 Z M11.2482906,7.24187999 L11.2556906,7.23385328 C12.4603504,5.97733557 14.3950623,5.61084226 16.0029572,6.45926798 C16.2597239,6.59475411 16.4952688,6.75442196 16.7082268,6.93401117 C16.9050484,7.08352242 17.0874048,7.25099416 17.2527351,7.43384806 C17.574704,7.3351521 17.9165253,7.28205128 18.2707144,7.28205128 C20.191251,7.28205128 21.7481536,8.84331472 21.7481536,10.7692308 C21.7481536,11.2707851 21.6425636,11.7476085 21.4524593,12.1785664 L21.4233124,12.2428634 L19.4298608,16 L17.111568,16 L19.4943067,11.5477827 C19.6369968,11.3227398 19.7196474,11.0556644 19.7196474,10.7692308 C19.7196474,9.96676575 19.070938,9.31623932 18.2707144,9.31623932 L18.2238612,9.31698814 L18.2238612,9.31698814 L18.1975573,9.31824786 L18.2128083,9.40036517 C18.2461178,9.5927169 18.26547,9.78983331 18.2697876,9.99064018 L18.2707144,10.0769231 C18.2707144,10.6473289 18.1494112,11.1894865 17.9311219,11.6791506 L17.9007563,11.7455953 L15.6304364,16 L12.9901585,16 L15.703438,10.9591381 C15.8661888,10.7041808 15.9604712,10.4015298 15.9604712,10.0769231 C15.9604712,9.18104767 15.2110303,8.3319429 14.3165221,8.30820217 L14.2382298,8.30720132 C13.6384439,8.30710644 12.9633253,8.6334809 12.6625685,9.19481701 C12.5640764,9.37864367 12.4464336,9.66601429 12.4144114,10.0496536 L12.4105853,10.1025641 L12.3820655,16 L10.1142418,16 L10.0857219,10.1025641 C10.060608,9.69235282 9.93670771,9.38699942 9.83373877,9.19481701 C9.5329819,8.6334809 8.85786334,8.30710644 8.25807745,8.30720132 L8.21820827,8.30769231 C7.30684249,8.30769231 6.53583605,9.16824945 6.53583605,10.0769231 C6.53583605,10.4015298 6.63011849,10.7041808 6.79286926,10.9591381 L9.50614872,16 L6.86587079,16 L4.59555092,11.7455953 C4.35817428,11.2387152 4.22559285,10.6732564 4.22559285,10.0769231 C4.22559285,9.84624952 4.24543095,9.62019572 4.2834989,9.40036517 L4.29861908,9.31824786 L4.27244601,9.31698814 C4.25695786,9.31649009 4.24130456,9.31623932 4.22559285,9.31623932 C3.42536925,9.31623932 2.77665984,9.96676575 2.77665984,10.7692308 C2.77665984,11.0556644 2.85931041,11.3227398 3.00200052,11.5477827 L5.38473926,16 L3.06644644,16 L1.07299485,12.2428634 C0.86456658,11.795229 0.748153619,11.2958628 0.748153619,10.7692308 C0.748153619,8.84331472 2.3050562,7.28205128 4.22559285,7.28205128 C4.5797819,7.28205128 4.92160322,7.3351521 5.24357211,7.43384806 C5.40890248,7.25099416 5.59125882,7.08352242 5.78808043,6.93401117 C6.0010384,6.75442196 6.23658331,6.59475411 6.49335,6.45926798 C8.1046636,5.60903838 10.0441853,5.9788995 11.2482906,7.24187999 Z M11.2481536,2 C12.0765807,2 12.7481536,2.67157288 12.7481536,3.5 C12.7481536,4.32842712 12.0765807,5 11.2481536,5 C10.4197265,5 9.74815362,4.32842712 9.74815362,3.5 C9.74815362,2.67157288 10.4197265,2 11.2481536,2 Z" transform="translate(-.306 -2)"/>
</svg>
