<?xml version="1.0" encoding="UTF-8"?>
<svg width="50px" height="50px" viewBox="0 0 50 50" version="1.1" xmlns="http://www.w3.org/2000/svg" xmlns:xlink="http://www.w3.org/1999/xlink">
    <!-- Generator: Sketch 51.2 (57519) - http://www.bohemiancoding.com/sketch -->
    <title>dribbble-logo</title>
    <desc>Created with Sketch.</desc>
    <defs></defs>
    <g id="Page-1" stroke="none" stroke-width="1" fill="none" fill-rule="evenodd">
        <path d="M25.000014,49.9997769 C11.2149276,49.9997769 1.392e-05,38.7848632 1.392e-05,24.9997769 C1.392e-05,11.2146906 11.2149276,-0.00022312 25.000014,-0.00022312 C38.7850351,-0.00022312 50.0000139,11.2146906 50.0000139,24.9997769 C50.0000139,38.7848632 38.7850351,49.9997769 25.000014,49.9997769 Z M46.0838148,28.4219425 C45.3532467,28.1913328 39.4742601,26.4379302 32.7827355,27.5090742 C35.575705,35.1841084 36.7122817,41.4351827 36.9311071,42.7341368 C41.7216962,39.4948574 45.1320123,34.3635622 46.0838148,28.4219425 Z M33.3412252,44.6891113 C33.0236322,42.8156511 31.7837955,36.2863086 28.7858685,28.495709 C28.738861,28.5117254 28.6919839,28.5269605 28.6449765,28.5433024 C16.6006619,32.7402439 12.2770868,41.0928489 11.892824,41.8784327 C15.5134364,44.7018072 20.0635195,46.386196 25.000014,46.386196 C27.9580302,46.386196 30.7773681,45.7812198 33.3412252,44.6891113 Z M9.1357286,39.3102133 C9.61941016,38.4821797 15.4799062,28.778665 26.4929225,25.2188627 C26.7712558,25.1288845 27.051933,25.0443102 27.3343682,24.9647492 C26.7983404,23.7517366 26.2144589,22.5372916 25.6031672,21.3409465 C14.9392559,24.5323722 4.59130987,24.3990326 3.65702128,24.3798259 C3.65044545,24.596633 3.64614837,24.8139609 3.64614837,25.0323305 C3.64614837,30.5168975 5.7252172,35.524489 9.1357286,39.3102133 Z M4.09721118,20.6588182 C5.05226897,20.6713839 13.8500121,20.7096018 23.8385662,18.0570687 C20.3003796,11.7674509 16.4844455,6.47944261 15.9214634,5.7074012 C9.9474203,8.52524163 5.4818464,14.032531 4.09721118,20.6588182 Z M19.9959382,4.27211256 C20.5862003,5.06238398 24.4645071,10.3438816 27.9636945,16.7728939 C35.5568239,13.926862 38.7712975,9.60634696 39.155365,9.05931616 C35.3843549,5.71365147 30.4257891,3.67846494 25.000014,3.67846494 C23.2770816,3.67846494 21.6017426,3.88498504 19.9959382,4.27211256 Z M41.5292393,11.5286376 C41.079088,12.1375854 37.5007301,16.7247796 29.6054381,19.948238 C30.1023364,20.9654081 30.5786608,21.9998967 31.0221712,23.0412215 C31.1793401,23.4103144 31.3324071,23.7776493 31.4821537,24.1432263 C38.5874347,23.2498251 45.6472708,24.681663 46.3512752,24.8305632 C46.3043329,19.7904832 44.5032719,15.1623366 41.5292393,11.5286376 Z" id="dribbble-logo" fill="#E06841" fill-rule="nonzero"></path>
    </g>
</svg>