<?xml version="1.0" encoding="UTF-8"?>
<svg width="334px" height="334px" viewBox="0 0 334 334" version="1.1" xmlns="http://www.w3.org/2000/svg" xmlns:xlink="http://www.w3.org/1999/xlink">
    <!-- Generator: Sketch 51.2 (57519) - http://www.bohemiancoding.com/sketch -->
    <title>dribbble-background</title>
    <desc>Created with Sketch.</desc>
    <defs></defs>
    <g id="Page-1" stroke="none" stroke-width="1" fill="none" fill-rule="evenodd">
        <path d="M167,334 C74.9156236,334 0,259.084376 0,167 C0,74.9156236 74.9156236,0 167,0 C259.083941,0 334,74.9156236 334,167 C334,259.084376 259.083941,334 167,334 Z M307.83979,189.860066 C302.959595,188.319593 263.687964,176.606864 218.98858,183.762106 C237.645616,235.031335 245.237949,276.788511 246.699702,285.465525 C278.700838,263.827138 301.481749,229.550086 307.83979,189.860066 Z M222.719291,298.524754 C220.59777,286.01004 212.315661,242.394032 192.289508,190.352826 C191.975499,190.459816 191.662359,190.561586 191.34835,190.67075 C110.892328,218.70632 82.0108469,274.501721 79.4439713,279.749421 C103.629662,298.609563 134.024217,309.86128 167,309.86128 C186.759549,309.86128 205.592726,305.820039 222.719291,298.524754 Z M61.0265741,262.593715 C64.2575669,257.062451 103.405681,192.242972 176.972629,168.463493 C178.831896,167.862439 180.70682,167.297483 182.593486,166.766015 C179.012821,158.663091 175.112492,150.550599 171.029064,142.559013 C99.7941362,163.877737 30.6698569,162.987028 24.4288092,162.858728 C24.3848826,164.306999 24.3561781,165.758749 24.3561781,167.217458 C24.3561781,203.854366 38.2443579,237.305077 61.0265741,262.593715 Z M27.3692777,138.002396 C33.7490638,138.086335 92.517988,138.341631 159.24153,120.622709 C135.606443,78.6080624 110.116003,43.284167 106.355282,38.1269304 C66.4486746,56.9501045 36.618641,93.7387977 27.3692777,138.002396 Z M133.572774,28.5392024 C137.515725,33.8182155 163.422814,69.0986193 186.797386,112.044421 C237.51949,93.0329287 258.992174,64.1718881 261.557745,60.5177224 C236.367398,38.1686822 203.244178,24.5736363 167,24.5736363 C155.490812,24.5736363 144.299548,25.9531905 133.572774,28.5392024 Z M277.415225,77.0127896 C274.408215,81.0805609 250.504784,111.723018 197.764234,133.25572 C201.083514,140.050416 204.265361,146.9608 207.228011,153.91685 C208.277899,156.38239 209.300386,158.836188 210.300694,161.278242 C257.763971,155.310322 304.923676,164.874999 309.626425,165.869653 C309.312851,132.201918 297.281763,101.285899 277.415225,77.0127896 Z" id="dribbble-background" fill="#F5F5F6" fill-rule="nonzero"></path>
    </g>
</svg>