<?xml version="1.0" standalone="no"?>
<!DOCTYPE svg PUBLIC "-//W3C//DTD SVG 1.1//EN" "http://www.w3.org/Graphics/SVG/1.1/DTD/svg11.dtd">
<svg width="100%" height="100%" viewBox="0 0 900 900" version="1.1" xmlns="http://www.w3.org/2000/svg" xmlns:xlink="http://www.w3.org/1999/xlink" xml:space="preserve" style="fill-rule:evenodd;clip-rule:evenodd;stroke-linejoin:round;stroke-miterlimit:1.41421;">
    <g id="ball" transform="matrix(1.17191,0,0,1.17191,-77.4773,-77.0744)">
        <path d="M450.094,833.732C238.365,833.732 66.112,661.479 66.112,449.75C66.112,238.021 238.365,65.768 450.094,65.768C661.822,65.768 834.076,238.021 834.076,449.75C834.076,661.479 661.822,833.732 450.094,833.732ZM773.926,502.312C762.705,498.77 672.408,471.839 569.631,488.291C612.529,606.174 629.986,702.186 633.347,722.137C706.927,672.384 759.307,593.571 773.926,502.312ZM578.209,752.164C573.331,723.389 554.288,623.103 508.242,503.445C507.52,503.691 506.8,503.925 506.078,504.176C321.086,568.638 254.679,696.928 248.777,708.994C304.387,752.359 374.273,778.23 450.094,778.23C495.527,778.23 538.83,768.938 578.209,752.164ZM206.43,669.548C213.859,656.83 303.872,507.791 473.024,453.115C477.299,451.733 481.61,450.434 485.948,449.212C477.715,430.581 468.747,411.928 459.358,393.553C295.568,442.571 136.631,440.523 122.281,440.228C122.18,443.558 122.114,446.896 122.114,450.25C122.114,534.489 154.047,611.402 206.43,669.548ZM129.042,383.076C143.711,383.269 278.838,383.856 432.255,343.115C377.911,246.511 319.301,165.291 310.654,153.433C218.897,196.713 150.309,281.301 129.042,383.076ZM373.235,131.388C382.301,143.526 441.869,224.646 495.614,323.391C612.239,279.678 661.611,213.318 667.51,204.916C609.59,153.529 533.43,122.27 450.094,122.27C423.631,122.27 397.899,125.442 373.235,131.388ZM703.971,242.843C697.057,252.196 642.096,322.652 520.83,372.162C528.462,387.785 535.778,403.674 542.59,419.668C545.004,425.337 547.355,430.979 549.655,436.594C658.787,422.872 767.221,444.864 778.034,447.151C777.313,369.739 749.65,298.654 703.971,242.843Z" style="fill:white;"/>
    </g>
</svg>
