<svg xmlns="http://www.w3.org/2000/svg" width="718" height="357" viewBox="0 0 718 357">
  <path fill-rule="evenodd" d="M744,157.051398 L744,125.493333 C744,106.995476 729.068807,92 710.650246,92 L100.349754,92 C81.9311933,92 67,106.995476 67,125.493333 L67,372.506667 C67,391.004524 81.9311933,406 100.349754,406 L710.650246,406 C729.068807,406 744,391.004524 744,372.506667 L744,339.560593 C743.61144,337.967434 742.248669,336.671096 740.705185,336.111751 C740.632275,336.085329 740.555256,336.071875 740.477653,336.072007 L737.241405,336.077438 L737.241405,336.077438 C726.509982,336.077438 717.810445,327.428846 717.810445,316.760268 L717.810445,179.925925 C717.810445,169.257346 726.509982,160.608755 737.274371,160.608783 L740.58909,160.614373 C740.63253,160.60371 740.671228,160.592134 740.705185,160.579645 C742.237625,160.016006 743.613306,158.636907 744,157.051398 Z M766,140.04278 L766,360.244543 C766,384.152314 763.522925,392.821849 758.871497,401.562172 C754.220069,410.302496 747.394287,417.161953 738.696872,421.836329 L737.913884,422.251115 C729.555261,426.612392 720.84037,428.951488 698.291261,429 L116.417917,429 C92.6275166,429 84.0005426,426.510705 75.3031279,421.836329 C66.6057132,417.161953 59.7799312,410.302496 55.1285029,401.562172 L54.7157533,400.775321 C50.3758864,392.375461 48.0482736,383.617575 48,360.95722 L48,140.755457 C48,116.847686 50.4770746,108.178151 55.1285029,99.4378279 C59.7799312,90.6975045 66.6057132,83.8380475 75.3031279,79.1636714 L76.0861163,78.7488855 C84.4447391,74.3876079 93.1596297,72.0485117 115.708739,72 L697.582083,72 C721.372483,72 729.999457,74.4892953 738.696872,79.1636714 C747.394287,83.8380475 754.220069,90.6975045 758.871497,99.4378279 L759.284247,100.224679 C763.624114,108.624539 765.951726,117.382425 766,140.04278 L766,140.04278 Z" transform="translate(-48 -72)"/>
</svg>
