<svg xmlns="http://www.w3.org/2000/svg" width="718" height="357" viewBox="0 0 718 357">
  <path fill="#F4F3F5" fill-rule="evenodd" d="M744,202.051398 L744,170.493333 C744,151.995476 729.068807,137 710.650246,137 L100.349754,137 C81.9311933,137 67,151.995476 67,170.493333 L67,417.506667 C67,436.004524 81.9311933,451 100.349754,451 L710.650246,451 C729.068807,451 744,436.004524 744,417.506667 L744,384.560593 C743.61144,382.967434 742.248669,381.671096 740.705185,381.111751 C740.632275,381.085329 740.555256,381.071875 740.477653,381.072007 L737.241405,381.077438 L737.241405,381.077438 C726.509982,381.077438 717.810445,372.428846 717.810445,361.760268 L717.810445,224.925925 C717.810445,214.257346 726.509982,205.608755 737.274371,205.608783 L740.58909,205.614373 C740.63253,205.60371 740.671228,205.592134 740.705185,205.579645 C742.237625,205.016006 743.613306,203.636907 744,202.051398 Z M766,185.04278 L766,405.244543 C766,429.152314 763.522925,437.821849 758.871497,446.562172 C754.220069,455.302496 747.394287,462.161953 738.696872,466.836329 L737.913884,467.251115 C729.555261,471.612392 720.84037,473.951488 698.291261,474 L116.417917,474 C92.6275166,474 84.0005426,471.510705 75.3031279,466.836329 C66.6057132,462.161953 59.7799312,455.302496 55.1285029,446.562172 L54.7157533,445.775321 C50.3758864,437.375461 48.0482736,428.617575 48,405.95722 L48,185.755457 C48,161.847686 50.4770746,153.178151 55.1285029,144.437828 C59.7799312,135.697504 66.6057132,128.838047 75.3031279,124.163671 L76.0861163,123.748885 C84.4447391,119.387608 93.1596297,117.048512 115.708739,117 L697.582083,117 C721.372483,117 729.999457,119.489295 738.696872,124.163671 C747.394287,128.838047 754.220069,135.697504 758.871497,144.437828 L759.284247,145.224679 C763.624114,153.624539 765.951726,162.382425 766,185.04278 L766,185.04278 Z" transform="translate(-48 -117)"/>
</svg>
