<?xml version="1.0" encoding="UTF-8"?>
<svg width="330px" height="322px" viewBox="0 0 330 322" version="1.1" xmlns="http://www.w3.org/2000/svg" xmlns:xlink="http://www.w3.org/1999/xlink">
    <!-- Generator: Sketch 51.2 (57519) - http://www.bohemiancoding.com/sketch -->
    <title>Fill 5</title>
    <desc>Created with Sketch.</desc>
    <defs></defs>
    <g id="Page-1" stroke="none" stroke-width="1" fill="none" fill-rule="evenodd">
        <path d="M165.001366,0 C73.8855723,0 0,73.8719106 0,165.001366 C0,237.903291 47.2779135,299.752846 112.838005,321.570689 C121.084248,323.098075 124.111695,317.991306 124.111695,313.633202 C124.111695,309.698613 123.958684,296.700807 123.887642,282.913351 C77.9841027,292.894639 68.2979093,263.445332 68.2979093,263.445332 C60.7921341,244.373504 49.9774788,239.302256 49.9774788,239.302256 C35.0069137,229.061395 51.1059408,229.271786 51.1059408,229.271786 C67.6749327,230.435769 76.3993376,246.275223 76.3993376,246.275223 C91.1157938,271.50031 114.999296,264.207659 124.414987,259.991637 C125.895922,249.327261 130.172055,242.048272 134.89083,237.927882 C98.2417719,233.755579 59.7155868,219.607452 59.7155868,156.383523 C59.7155868,138.369116 66.1612089,123.649928 76.7162906,112.094804 C75.0031049,107.938895 69.3553302,91.1567791 78.3147174,68.4290623 C78.3147174,68.4290623 92.1704823,63.9944525 123.701842,85.3423308 C136.863589,81.6864417 150.978928,79.8530325 165.001366,79.7901884 C179.023805,79.8530325 193.150072,81.6864417 206.336411,85.3423308 C237.829518,63.9944525 251.666156,68.4290623 251.666156,68.4290623 C260.647402,91.1567791 254.996895,107.938895 253.283709,112.094804 C263.863382,123.649928 270.265287,138.369116 270.265287,156.383523 C270.265287,219.757731 231.665328,233.711861 194.92337,237.796729 C200.841648,242.91716 206.11509,252.958559 206.11509,268.352639 C206.11509,290.430056 205.923825,308.198551 205.923825,313.633202 C205.923825,318.024094 208.893894,323.169116 217.257628,321.54883 C282.782198,299.706396 330,237.8787 330,165.001366 C330,73.8719106 256.125357,0 165.001366,0" id="Fill-5" fill="#F5F5F6" fill-rule="nonzero"></path>
    </g>
</svg>