<svg xmlns="http://www.w3.org/2000/svg" width="428" height="190" viewBox="0 0 428 190">
  <g fill="none" fill-rule="evenodd" transform="translate(-72.222)">
    <path stroke="#A94E31" stroke-width="2" d="M84.6082116,4 C55.4712904,4 44.8914843,6.99841163 34.2356906,12.6971924 C23.6569812,18.3547481 15.3547481,26.6569812 9.69719242,37.2356906 C3.99841163,47.8914843 1,58.4712904 1,87.6082116 L1.0009186,189.268776 C1.06094107,217.743034 4.05609477,228.216374 9.69719242,238.764309 C15.3547481,249.343019 23.6569812,257.645252 34.2356906,263.302808 C44.8914843,269.001588 55.4712904,272 84.6082116,272 L412.391788,272 C441.52871,272 452.108516,269.001588 462.764309,263.302808 C473.343019,257.645252 481.645252,249.343019 487.302808,238.764309 C493.001588,228.108516 496,217.52871 496,188.391788 L496,87.6082116 C496,58.4712904 493.001588,47.8914843 487.302808,37.2356906 C481.645252,26.6569812 473.343019,18.3547481 462.764309,12.6971924 C452.108516,6.99841163 441.52871,4 412.391788,4 L84.6082116,4 Z"/>
    <path stroke="#A94E31" stroke-width="2" d="M440.785281,51.6867066 C437.462821,49.9098354 434.156955,49 425.079205,49 L26.416081,49.0009659 C17.717902,49.0346432 14.4744179,49.9434005 11.214719,51.6867066 C7.96934287,53.4223527 5.42235272,55.9693429 3.68670659,59.214719 C1.90983538,62.5371793 1,65.8430451 1,74.9207946 L1.0009659,200.583914 C1.03464317,209.282098 1.94340052,212.525582 3.68670659,215.785281 C5.42235272,219.030657 7.96934287,221.577647 11.214719,223.313293 C14.5371793,225.090165 17.8430451,226 26.9207946,226 L425.079205,226 C434.156955,226 437.462821,225.090165 440.785281,223.313293 C444.030657,221.577647 446.577647,219.030657 448.313293,215.785281 C450.090165,212.462821 451,209.156955 451,200.079205 L451,74.9207946 C451,65.8430451 450.090165,62.5371793 448.313293,59.214719 C446.577647,55.9693429 444.030657,53.4223527 440.785281,51.6867066 Z"/>
    <path stroke="#A94E31" stroke-width="2" d="M371.677072 120L350.993088 120C346.78126 120 345.23999 120.402007 343.696463 121.224994 342.230537 122.006606 341.079948 123.153489 340.295947 124.615003 339.470874 126.153083 339.068064 127.68909 339.068064 131.88588L339.068064 152.507221C339.068064 156.704011 339.470874 158.240018 340.295947 159.778098 341.079948 161.239612 342.230537 162.386495 343.696463 163.168106 345.23999 163.991093 346.78126 164.3931 350.993088 164.3931L371.677072 164.3931C375.8889 164.3931 377.43017 163.991093 378.973697 163.168106 380.439623 162.386495 381.590212 161.239612 382.374213 159.778098 383.199286 158.240018 383.602096 156.704011 383.602096 152.507221L383.602096 131.88588C383.602096 127.68909 383.199286 126.153083 382.374213 124.615003 381.590212 123.153489 380.439623 122.006606 378.973697 121.224994 377.43017 120.402007 375.8889 120 371.677072 120zM258.14304 120L237.459056 120C233.247228 120 231.705958 120.402007 230.162431 121.224994 228.696505 122.006606 227.545916 123.153489 226.761915 124.615003 225.936842 126.153083 225.534032 127.68909 225.534032 131.88588L225.534032 152.507221C225.534032 156.704011 225.936842 158.240018 226.761915 159.778098 227.545916 161.239612 228.696505 162.386495 230.162431 163.168106 231.705958 163.991093 233.247228 164.3931 237.459056 164.3931L258.14304 164.3931C262.354868 164.3931 263.896138 163.991093 265.439665 163.168106 266.905591 162.386495 268.05618 161.239612 268.840181 159.778098 269.665254 158.240018 270.068064 156.704011 270.068064 152.507221L270.068064 131.88588C270.068064 127.68909 269.665254 126.153083 268.840181 124.615003 268.05618 123.153489 266.905591 122.006606 265.439665 121.224994 263.896138 120.402007 262.354868 120 258.14304 120zM144.609008 120L123.925024 120C119.713196 120 118.171926 120.402007 116.628399 121.224994 115.162473 122.006606 114.011884 123.153489 113.227883 124.615003 112.40281 126.153083 112 127.68909 112 131.88588L112 152.507221C112 156.704011 112.40281 158.240018 113.227883 159.778098 114.011884 161.239612 115.162473 162.386495 116.628399 163.168106 118.171926 163.991093 119.713196 164.3931 123.925024 164.3931L144.609008 164.3931C148.820836 164.3931 150.362106 163.991093 151.905633 163.168106 153.371559 162.386495 154.522148 161.239612 155.306149 159.778098 156.131222 158.240018 156.534032 156.704011 156.534032 152.507221L156.534032 131.88588C156.534032 127.68909 156.131222 126.153083 155.306149 124.615003 154.522148 123.153489 153.371559 122.006606 151.905633 121.224994 150.362106 120.402007 148.820836 120 144.609008 120z"/>
    <path fill="#A94E31" d="M369 0L430 0C430.552285-1.01453063e-16 431 .44771525 431 1L431 4 431 4 368 4 368 1C368 .44771525 368.447715 1.01453063e-16 369 0zM500 105L500 155C500 155.552285 499.552285 156 499 156L497 156 497 156 497 104 499 104C499.552285 104 500 104.447715 500 105zM500 168L500 218C500 218.552285 499.552285 219 499 219L497 219 497 219 497 167 499 167C499.552285 167 500 167.447715 500 168z"/>
  </g>
</svg>
