<svg xmlns="http://www.w3.org/2000/svg" width="380" height="775" viewBox="0 0 380 775">
  <g fill="none" fill-rule="evenodd" stroke="#A94E31" stroke-width="2" transform="rotate(-10 170.355 123.824)">
    <path d="M240.506023,19.3759738 C256.700367,19.3759738 262.586748,21.0197575 268.510893,24.1744204 C274.357221,27.2876455 278.945627,31.8560342 282.072298,37.6772978 C285.239978,43.57491 286.890256,49.4351705 286.890256,65.556741 L286.890256,65.556741 L286.890256,466.325612 C286.890256,482.447182 285.239978,488.307443 282.072298,494.205055 C278.945627,500.026319 274.357221,504.594707 268.510893,507.707933 C262.586748,510.862595 256.700367,512.506379 240.506023,512.506379 L240.506023,512.506379 L89.2406178,512.506379 C73.0462741,512.506379 67.1598933,510.862595 61.2357485,507.707933 C55.3894198,504.594707 50.8010143,500.026319 47.6743427,494.205055 C44.5066633,488.307443 42.8563848,482.447182 42.8563848,466.325612 L42.8563848,466.325612 L42.8563848,65.556741 C42.8563848,49.4351705 44.5066633,43.57491 47.6743427,37.6772978 C50.8010143,31.8560342 55.3894198,27.2876455 61.2357485,24.1744204 C67.1598933,21.0197575 73.0462741,19.3759738 89.2406178,19.3759738 L89.2406178,19.3759738 Z M102.200682,31.0347436 L80.3465097,31.0347436 C73.6980389,31.0347436 67.6790959,33.7227148 63.3221934,38.0682147 C58.9643412,42.4146617 56.2691795,48.4192849 56.2691795,55.0516771 L56.2691795,476.26156 C56.2691795,482.893953 58.9643412,488.898576 63.3221934,493.245023 C67.6790959,497.590523 73.6980389,500.278494 80.3465097,500.278494 L250.54182,500.278494 C257.190291,500.278494 263.209234,497.590523 267.566136,493.245023 C271.923988,488.898576 274.61915,482.893953 274.61915,476.26156 L274.61915,55.0516771 C274.61915,48.4192849 271.923988,42.4146617 267.566136,38.0682147 C263.209234,33.7227148 257.190291,31.0347436 250.54182,31.0347436 L227.730906,31.0347436 C226.276401,31.3356537 225.038921,32.52169 224.43788,34.4674355 C224.440373,35.9503844 224.44162,36.6943425 224.44162,36.6993097 C224.44162,40.1272784 223.063178,43.2310562 220.833507,45.4776223 C218.606558,47.721446 215.530238,49.109937 212.131846,49.109937 L117.851254,49.109937 C114.451863,49.109937 111.374735,47.7205861 109.147712,45.4728779 C106.918913,43.2233772 105.541489,40.1145186 105.541498,36.67656 L105.520021,34.139014 C105.052667,32.6662243 103.709977,31.3447737 102.200682,31.0347436 Z" transform="rotate(-10 164.873 265.941)"/>
    <rect width="20" height="30" x="201.496" y="508.41" transform="rotate(-10 211.496 523.41)"/>
    <path d="M281.124982,433.90822 L119.455489,433.90822 C112.613117,433.90822 110.117947,434.583292 107.612733,435.919038 C105.185119,437.213408 103.279791,439.112743 101.981475,441.533032 C100.642085,444.029887 99.9653811,446.516904 99.9653811,453.336272 L99.9653811,467.115247 C99.9653811,473.934615 100.642085,476.421632 101.981475,478.918487 C103.279791,481.338777 105.185119,483.238112 107.612733,484.532482 C110.117947,485.868228 112.613117,486.543299 119.455489,486.543299 L281.124982,486.543299 C287.967354,486.543299 290.462524,485.868228 292.967738,484.532482 C295.395352,483.238112 297.300679,481.338777 298.598996,478.918487 C299.938385,476.421632 300.61509,473.934615 300.61509,467.115247 L300.61509,453.336272 C300.61509,446.516904 299.938385,444.029887 298.598996,441.533032 C297.300679,439.112743 295.395352,437.213408 292.967738,435.919038 C290.462524,434.583292 287.967354,433.90822 281.124982,433.90822 Z" transform="rotate(-10 200.29 460.226)"/>
    <path d="M73.2866616,95.8313707 L57.0475934,95.8313707 C53.8015774,95.8313707 52.6105337,96.1331214 51.4200934,96.7678477 C50.3072536,97.3611985 49.4337687,98.2318162 48.8386007,99.3413131 C48.2023604,100.527376 47.9001115,101.714217 47.9001115,104.94812 L47.9001115,121.138007 C47.9001115,124.371911 48.2023604,125.558752 48.8386007,126.744815 C49.4337687,127.854311 50.3072536,128.724929 51.4200934,129.31828 C52.6105337,129.953006 53.8015774,130.254757 57.0475934,130.254757 L73.2866616,130.254757 C76.5326776,130.254757 77.7237213,129.953006 78.9141616,129.31828 C80.0270014,128.724929 80.9004863,127.854311 81.4956542,126.744815 C82.1318946,125.558752 82.4341435,124.371911 82.4341435,121.138007 L82.4341435,104.94812 C82.4341435,101.714217 82.1318946,100.527376 81.4956542,99.3413131 C80.9004863,98.2318162 80.0270014,97.3611985 78.9141616,96.7678477 C77.7237213,96.1331214 76.5326776,95.8313707 73.2866616,95.8313707 Z" transform="rotate(-10 65.167 113.043)"/>
    <path d="M216.07831,70.6533506 L199.839241,70.6533506 C196.593225,70.6533506 195.402182,70.9551012 194.211741,71.5898275 C193.098902,72.1831783 192.225417,73.0537961 191.630249,74.1632929 C190.994008,75.3493559 190.69176,76.5361968 190.69176,79.7701002 L190.69176,95.9599872 C190.69176,99.1938905 190.994008,100.380731 191.630249,101.566794 C192.225417,102.676291 193.098902,103.546909 194.211741,104.14026 C195.402182,104.774986 196.593225,105.076737 199.839241,105.076737 L216.07831,105.076737 C219.324326,105.076737 220.515369,104.774986 221.70581,104.14026 C222.818649,103.546909 223.692134,102.676291 224.287302,101.566794 C224.923543,100.380731 225.225791,99.1938905 225.225791,95.9599872 L225.225791,79.7701002 C225.225791,76.5361968 224.923543,75.3493559 224.287302,74.1632929 C223.692134,73.0537961 222.818649,72.1831783 221.70581,71.5898275 C220.515369,70.9551012 219.324326,70.6533506 216.07831,70.6533506 Z" transform="rotate(-10 207.959 87.865)"/>
    <path d="M168.293703,79.079066 L152.054635,79.079066 C148.808619,79.079066 147.617575,79.3808166 146.427135,80.0155429 C145.314295,80.6088937 144.44081,81.4795115 143.845642,82.5890083 C143.209402,83.7750713 142.907153,84.9619123 142.907153,88.1958156 L142.907153,104.385703 C142.907153,107.619606 143.209402,108.806447 143.845642,109.99251 C144.44081,111.102007 145.314295,111.972624 146.427135,112.565975 C147.617575,113.200701 148.808619,113.502452 152.054635,113.502452 L168.293703,113.502452 C171.539719,113.502452 172.730763,113.200701 173.921203,112.565975 C175.034043,111.972624 175.907528,111.102007 176.502696,109.99251 C177.138936,108.806447 177.441185,107.619606 177.441185,104.385703 L177.441185,88.1958156 C177.441185,84.9619123 177.138936,83.7750713 176.502696,82.5890083 C175.907528,81.4795115 175.034043,80.6088937 173.921203,80.0155429 C172.730763,79.3808166 171.539719,79.079066 168.293703,79.079066 Z" transform="rotate(-10 160.174 96.29)"/>
    <path d="M121.071268,87.4056553 L104.8322,87.4056553 C101.586184,87.4056553 100.39514,87.707406 99.2047,88.3421323 C98.0918602,88.9354831 97.2183753,89.8061008 96.6232074,90.9155977 C95.9869671,92.1016606 95.6847181,93.2885016 95.6847181,96.5224049 L95.6847181,112.712292 C95.6847181,115.946195 95.9869671,117.133036 96.6232074,118.319099 C97.2183753,119.428596 98.0918602,120.299214 99.2047,120.892565 C100.39514,121.527291 101.586184,121.829041 104.8322,121.829041 L121.071268,121.829041 C124.317284,121.829041 125.508328,121.527291 126.698768,120.892565 C127.811608,120.299214 128.685093,119.428596 129.280261,118.319099 C129.916501,117.133036 130.21875,115.946195 130.21875,112.712292 L130.21875,96.5224049 C130.21875,93.2885016 129.916501,92.1016606 129.280261,90.9155977 C128.685093,89.8061008 127.811608,88.9354831 126.698768,88.3421323 C125.508328,87.707406 124.317284,87.4056553 121.071268,87.4056553 Z" transform="rotate(-10 112.952 104.617)"/>
    <path d="M83.2680728,152.438767 L67.0290046,152.438767 C63.7829886,152.438767 62.5919449,152.740517 61.4015046,153.375244 C60.2886648,153.968594 59.4151799,154.839212 58.8200119,155.948709 C58.1837716,157.134772 57.8815227,158.321613 57.8815227,161.555516 L57.8815227,177.745403 C57.8815227,180.979307 58.1837716,182.166148 58.8200119,183.35221 C59.4151799,184.461707 60.2886648,185.332325 61.4015046,185.925676 C62.5919449,186.560402 63.7829886,186.862153 67.0290046,186.862153 L83.2680728,186.862153 C86.5140888,186.862153 87.7051325,186.560402 88.8955728,185.925676 C90.0084126,185.332325 90.8818975,184.461707 91.4770655,183.35221 C92.1133058,182.166148 92.4155547,180.979307 92.4155547,177.745403 L92.4155547,161.555516 C92.4155547,158.321613 92.1133058,157.134772 91.4770655,155.948709 C90.8818975,154.839212 90.0084126,153.968594 88.8955728,153.375244 C87.7051325,152.740517 86.5140888,152.438767 83.2680728,152.438767 Z" transform="rotate(-10 75.149 169.65)"/>
    <path d="M226.059721,127.260747 L209.820653,127.260747 C206.574637,127.260747 205.383593,127.562497 204.193153,128.197223 C203.080313,128.790574 202.206828,129.661192 201.61166,130.770689 C200.97542,131.956752 200.673171,133.143593 200.673171,136.377496 L200.673171,152.567383 C200.673171,155.801286 200.97542,156.988127 201.61166,158.17419 C202.206828,159.283687 203.080313,160.154305 204.193153,160.747656 C205.383593,161.382382 206.574637,161.684133 209.820653,161.684133 L226.059721,161.684133 C229.305737,161.684133 230.496781,161.382382 231.687221,160.747656 C232.800061,160.154305 233.673546,159.283687 234.268713,158.17419 C234.904954,156.988127 235.207203,155.801286 235.207203,152.567383 L235.207203,136.377496 C235.207203,133.143593 234.904954,131.956752 234.268713,130.770689 C233.673546,129.661192 232.800061,128.790574 231.687221,128.197223 C230.496781,127.562497 229.305737,127.260747 226.059721,127.260747 Z" transform="rotate(-10 217.94 144.472)"/>
    <path d="M178.275114,135.686462 L162.036046,135.686462 C158.79003,135.686462 157.598986,135.988213 156.408546,136.622939 C155.295706,137.21629 154.422221,138.086907 153.827053,139.196404 C153.190813,140.382467 152.888564,141.569308 152.888564,144.803211 L152.888564,160.993098 C152.888564,164.227002 153.190813,165.413843 153.827053,166.599906 C154.422221,167.709403 155.295706,168.58002 156.408546,169.173371 C157.598986,169.808097 158.79003,170.109848 162.036046,170.109848 L178.275114,170.109848 C181.52113,170.109848 182.712174,169.808097 183.902614,169.173371 C185.015454,168.58002 185.888939,167.709403 186.484107,166.599906 C187.120347,165.413843 187.422596,164.227002 187.422596,160.993098 L187.422596,144.803211 C187.422596,141.569308 187.120347,140.382467 186.484107,139.196404 C185.888939,138.086907 185.015454,137.21629 183.902614,136.622939 C182.712174,135.988213 181.52113,135.686462 178.275114,135.686462 Z" transform="rotate(-10 170.156 152.898)"/>
    <path d="M131.052679,144.013051 L114.813611,144.013051 C111.567595,144.013051 110.376552,144.314802 109.186111,144.949528 C108.073271,145.542879 107.199786,146.413497 106.604619,147.522994 C105.968378,148.709057 105.666129,149.895898 105.666129,153.129801 L105.666129,169.319688 C105.666129,172.553591 105.968378,173.740432 106.604619,174.926495 C107.199786,176.035992 108.073271,176.90661 109.186111,177.49996 C110.376552,178.134687 111.567595,178.436437 114.813611,178.436437 L131.052679,178.436437 C134.298695,178.436437 135.489739,178.134687 136.680179,177.49996 C137.793019,176.90661 138.666504,176.035992 139.261672,174.926495 C139.897912,173.740432 140.200161,172.553591 140.200161,169.319688 L140.200161,153.129801 C140.200161,149.895898 139.897912,148.709057 139.261672,147.522994 C138.666504,146.413497 137.793019,145.542879 136.680179,144.949528 C135.489739,144.314802 134.298695,144.013051 131.052679,144.013051 Z" transform="rotate(-10 122.933 161.225)"/>
    <path d="M93.249484,209.046163 L77.0104158,209.046163 C73.7643998,209.046163 72.5733561,209.347913 71.3829158,209.98264 C70.270076,210.57599 69.3965911,211.446608 68.8014232,212.556105 C68.1651828,213.742168 67.8629339,214.929009 67.8629339,218.162912 L67.8629339,234.352799 C67.8629339,237.586702 68.1651828,238.773543 68.8014232,239.959606 C69.3965911,241.069103 70.270076,241.939721 71.3829158,242.533072 C72.5733561,243.167798 73.7643998,243.469549 77.0104158,243.469549 L93.249484,243.469549 C96.4955,243.469549 97.6865437,243.167798 98.876984,242.533072 C99.9898238,241.939721 100.863309,241.069103 101.458477,239.959606 C102.094717,238.773543 102.396966,237.586702 102.396966,234.352799 L102.396966,218.162912 C102.396966,214.929009 102.094717,213.742168 101.458477,212.556105 C100.863309,211.446608 99.9898238,210.57599 98.876984,209.98264 C97.6865437,209.347913 96.4955,209.046163 93.249484,209.046163 Z" transform="rotate(-10 85.13 226.258)"/>
    <path d="M236.041132,183.868142 L219.802064,183.868142 C216.556048,183.868142 215.365004,184.169893 214.174564,184.804619 C213.061724,185.39797 212.188239,186.268588 211.593071,187.378085 C210.956831,188.564148 210.654582,189.750989 210.654582,192.984892 L210.654582,209.174779 C210.654582,212.408682 210.956831,213.595523 211.593071,214.781586 C212.188239,215.891083 213.061724,216.761701 214.174564,217.355052 C215.365004,217.989778 216.556048,218.291529 219.802064,218.291529 L236.041132,218.291529 C239.287148,218.291529 240.478192,217.989778 241.668632,217.355052 C242.781472,216.761701 243.654957,215.891083 244.250125,214.781586 C244.886365,213.595523 245.188614,212.408682 245.188614,209.174779 L245.188614,192.984892 C245.188614,189.750989 244.886365,188.564148 244.250125,187.378085 C243.654957,186.268588 242.781472,185.39797 241.668632,184.804619 C240.478192,184.169893 239.287148,183.868142 236.041132,183.868142 Z" transform="rotate(-10 227.922 201.08)"/>
    <path d="M188.256525,192.293858 L172.017457,192.293858 C168.771441,192.293858 167.580398,192.595608 166.389957,193.230335 C165.277117,193.823686 164.403632,194.694303 163.808465,195.8038 C163.172224,196.989863 162.869975,198.176704 162.869975,201.410607 L162.869975,217.600494 C162.869975,220.834398 163.172224,222.021239 163.808465,223.207302 C164.403632,224.316799 165.277117,225.187416 166.389957,225.780767 C167.580398,226.415493 168.771441,226.717244 172.017457,226.717244 L188.256525,226.717244 C191.502541,226.717244 192.693585,226.415493 193.884025,225.780767 C194.996865,225.187416 195.87035,224.316799 196.465518,223.207302 C197.101758,222.021239 197.404007,220.834398 197.404007,217.600494 L197.404007,201.410607 C197.404007,198.176704 197.101758,196.989863 196.465518,195.8038 C195.87035,194.694303 194.996865,193.823686 193.884025,193.230335 C192.693585,192.595608 191.502541,192.293858 188.256525,192.293858 Z" transform="rotate(-10 180.137 209.506)"/>
    <path d="M141.034091,200.620447 L124.795022,200.620447 C121.549006,200.620447 120.357963,200.922198 119.167522,201.556924 C118.054683,202.150275 117.181198,203.020893 116.58603,204.13039 C115.949789,205.316452 115.647541,206.503293 115.647541,209.737197 L115.647541,225.927084 C115.647541,229.160987 115.949789,230.347828 116.58603,231.533891 C117.181198,232.643388 118.054683,233.514006 119.167522,234.107356 C120.357963,234.742083 121.549006,235.043833 124.795022,235.043833 L141.034091,235.043833 C144.280107,235.043833 145.47115,234.742083 146.661591,234.107356 C147.77443,233.514006 148.647915,232.643388 149.243083,231.533891 C149.879324,230.347828 150.181573,229.160987 150.181573,225.927084 L150.181573,209.737197 C150.181573,206.503293 149.879324,205.316452 149.243083,204.13039 C148.647915,203.020893 147.77443,202.150275 146.661591,201.556924 C145.47115,200.922198 144.280107,200.620447 141.034091,200.620447 Z" transform="rotate(-10 132.915 217.832)"/>
    <path d="M103.132069,265.093089 L86.8930012,265.093089 C83.6469852,265.093089 82.4559415,265.39484 81.2655012,266.029566 C80.1526613,266.622917 79.2791764,267.493535 78.6840085,268.603032 C78.0477682,269.789095 77.7455193,270.975936 77.7455193,274.209839 L77.7455193,290.399726 C77.7455193,293.633629 78.0477682,294.82047 78.6840085,296.006533 C79.2791764,297.11603 80.1526613,297.986648 81.2655012,298.579998 C82.4559415,299.214725 83.6469852,299.516475 86.8930012,299.516475 L103.132069,299.516475 C106.378085,299.516475 107.569129,299.214725 108.759569,298.579998 C109.872409,297.986648 110.745894,297.11603 111.341062,296.006533 C111.977302,294.82047 112.279551,293.633629 112.279551,290.399726 L112.279551,274.209839 C112.279551,270.975936 111.977302,269.789095 111.341062,268.603032 C110.745894,267.493535 109.872409,266.622917 108.759569,266.029566 C107.569129,265.39484 106.378085,265.093089 103.132069,265.093089 Z" transform="rotate(-10 95.013 282.305)"/>
    <path d="M245.923717,239.915069 L229.684649,239.915069 C226.438633,239.915069 225.24759,240.21682 224.057149,240.851546 C222.944309,241.444897 222.070824,242.315515 221.475657,243.425011 C220.839416,244.611074 220.537167,245.797915 220.537167,249.031819 L220.537167,265.221706 C220.537167,268.455609 220.839416,269.64245 221.475657,270.828513 C222.070824,271.93801 222.944309,272.808627 224.057149,273.401978 C225.24759,274.036705 226.438633,274.338455 229.684649,274.338455 L245.923717,274.338455 C249.169733,274.338455 250.360777,274.036705 251.551217,273.401978 C252.664057,272.808627 253.537542,271.93801 254.13271,270.828513 C254.76895,269.64245 255.071199,268.455609 255.071199,265.221706 L255.071199,249.031819 C255.071199,245.797915 254.76895,244.611074 254.13271,243.425011 C253.537542,242.315515 252.664057,241.444897 251.551217,240.851546 C250.360777,240.21682 249.169733,239.915069 245.923717,239.915069 Z" transform="rotate(-10 237.804 257.127)"/>
    <path d="M198.139111,248.340784 L181.900043,248.340784 C178.654027,248.340784 177.462983,248.642535 176.272543,249.277261 C175.159703,249.870612 174.286218,250.74123 173.69105,251.850727 C173.05481,253.03679 172.752561,254.223631 172.752561,257.457534 L172.752561,273.647421 C172.752561,276.881324 173.05481,278.068165 173.69105,279.254228 C174.286218,280.363725 175.159703,281.234343 176.272543,281.827694 C177.462983,282.46242 178.654027,282.764171 181.900043,282.764171 L198.139111,282.764171 C201.385127,282.764171 202.57617,282.46242 203.766611,281.827694 C204.879451,281.234343 205.752936,280.363725 206.348103,279.254228 C206.984344,278.068165 207.286593,276.881324 207.286593,273.647421 L207.286593,257.457534 C207.286593,254.223631 206.984344,253.03679 206.348103,251.850727 C205.752936,250.74123 204.879451,249.870612 203.766611,249.277261 C202.57617,248.642535 201.385127,248.340784 198.139111,248.340784 Z" transform="rotate(-10 190.02 265.552)"/>
    <path d="M150.916676,256.667374 L134.677608,256.667374 C131.431592,256.667374 130.240548,256.969124 129.050108,257.603851 C127.937268,258.197202 127.063783,259.067819 126.468615,260.177316 C125.832375,261.363379 125.530126,262.55022 125.530126,265.784123 L125.530126,281.97401 C125.530126,285.207914 125.832375,286.394755 126.468615,287.580818 C127.063783,288.690315 127.937268,289.560932 129.050108,290.154283 C130.240548,290.789009 131.431592,291.09076 134.677608,291.09076 L150.916676,291.09076 C154.162692,291.09076 155.353736,290.789009 156.544176,290.154283 C157.657016,289.560932 158.530501,288.690315 159.125669,287.580818 C159.761909,286.394755 160.064158,285.207914 160.064158,281.97401 L160.064158,265.784123 C160.064158,262.55022 159.761909,261.363379 159.125669,260.177316 C158.530501,259.067819 157.657016,258.197202 156.544176,257.603851 C155.353736,256.969124 154.162692,256.667374 150.916676,256.667374 Z" transform="rotate(-10 142.797 273.88)"/>
    <path d="M113.113481,321.700485 L96.8744124,321.700485 C93.6283964,321.700485 92.4373527,322.002236 91.2469124,322.636962 C90.1340725,323.230313 89.2605876,324.100931 88.6654197,325.210427 C88.0291794,326.39649 87.7269305,327.583331 87.7269305,330.817235 L87.7269305,347.007122 C87.7269305,350.241025 88.0291794,351.427866 88.6654197,352.613929 C89.2605876,353.723426 90.1340725,354.594044 91.2469124,355.187394 C92.4373527,355.822121 93.6283964,356.123871 96.8744124,356.123871 L113.113481,356.123871 C116.359497,356.123871 117.55054,355.822121 118.740981,355.187394 C119.85382,354.594044 120.727305,353.723426 121.322473,352.613929 C121.958714,351.427866 122.260962,350.241025 122.260962,347.007122 L122.260962,330.817235 C122.260962,327.583331 121.958714,326.39649 121.322473,325.210427 C120.727305,324.100931 119.85382,323.230313 118.740981,322.636962 C117.55054,322.002236 116.359497,321.700485 113.113481,321.700485 Z" transform="rotate(-10 104.994 338.912)"/>
    <path d="M255.905129,296.522465 L239.66606,296.522465 C236.420044,296.522465 235.229001,296.824216 234.03856,297.458942 C232.925721,298.052293 232.052236,298.92291 231.457068,300.032407 C230.820827,301.21847 230.518579,302.405311 230.518579,305.639215 L230.518579,321.829102 C230.518579,325.063005 230.820827,326.249846 231.457068,327.435909 C232.052236,328.545406 232.925721,329.416023 234.03856,330.009374 C235.229001,330.644101 236.420044,330.945851 239.66606,330.945851 L255.905129,330.945851 C259.151145,330.945851 260.342188,330.644101 261.532629,330.009374 C262.645468,329.416023 263.518953,328.545406 264.114121,327.435909 C264.750362,326.249846 265.05261,325.063005 265.05261,321.829102 L265.05261,305.639215 C265.05261,302.405311 264.750362,301.21847 264.114121,300.032407 C263.518953,298.92291 262.645468,298.052293 261.532629,297.458942 C260.342188,296.824216 259.151145,296.522465 255.905129,296.522465 Z" transform="rotate(-10 247.786 313.734)"/>
    <path d="M208.120522,304.94818 L191.881454,304.94818 C188.635438,304.94818 187.444394,305.249931 186.253954,305.884657 C185.141114,306.478008 184.267629,307.348626 183.672461,308.458123 C183.036221,309.644186 182.733972,310.831027 182.733972,314.06493 L182.733972,330.254817 C182.733972,333.48872 183.036221,334.675561 183.672461,335.861624 C184.267629,336.971121 185.141114,337.841739 186.253954,338.43509 C187.444394,339.069816 188.635438,339.371567 191.881454,339.371567 L208.120522,339.371567 C211.366538,339.371567 212.557582,339.069816 213.748022,338.43509 C214.860862,337.841739 215.734347,336.971121 216.329515,335.861624 C216.965755,334.675561 217.268004,333.48872 217.268004,330.254817 L217.268004,314.06493 C217.268004,310.831027 216.965755,309.644186 216.329515,308.458123 C215.734347,307.348626 214.860862,306.478008 213.748022,305.884657 C212.557582,305.249931 211.366538,304.94818 208.120522,304.94818 Z" transform="rotate(-10 200.001 322.16)"/>
    <path d="M160.898087,313.27477 L144.659019,313.27477 C141.413003,313.27477 140.221959,313.57652 139.031519,314.211247 C137.918679,314.804598 137.045194,315.675215 136.450026,316.784712 C135.813786,317.970775 135.511537,319.157616 135.511537,322.391519 L135.511537,338.581406 C135.511537,341.81531 135.813786,343.002151 136.450026,344.188214 C137.045194,345.29771 137.918679,346.168328 139.031519,346.761679 C140.221959,347.396405 141.413003,347.698156 144.659019,347.698156 L160.898087,347.698156 C164.144103,347.698156 165.335147,347.396405 166.525587,346.761679 C167.638427,346.168328 168.511912,345.29771 169.10708,344.188214 C169.74332,343.002151 170.045569,341.81531 170.045569,338.581406 L170.045569,322.391519 C170.045569,319.157616 169.74332,317.970775 169.10708,316.784712 C168.511912,315.675215 167.638427,314.804598 166.525587,314.211247 C165.335147,313.57652 164.144103,313.27477 160.898087,313.27477 Z" transform="rotate(-10 152.779 330.486)"/>
    <path d="M123.094892,378.307881 L106.855824,378.307881 C103.609808,378.307881 102.418764,378.609632 101.228324,379.244358 C100.115484,379.837709 99.2419988,380.708327 98.6468309,381.817823 C98.0105906,383.003886 97.7083417,384.190727 97.7083417,387.424631 L97.7083417,403.614518 C97.7083417,406.848421 98.0105906,408.035262 98.6468309,409.221325 C99.2419988,410.330822 100.115484,411.20144 101.228324,411.79479 C102.418764,412.429517 103.609808,412.731267 106.855824,412.731267 L123.094892,412.731267 C126.340908,412.731267 127.531951,412.429517 128.722392,411.79479 C129.835232,411.20144 130.708717,410.330822 131.303884,409.221325 C131.940125,408.035262 132.242374,406.848421 132.242374,403.614518 L132.242374,387.424631 C132.242374,384.190727 131.940125,383.003886 131.303884,381.817823 C130.708717,380.708327 129.835232,379.837709 128.722392,379.244358 C127.531951,378.609632 126.340908,378.307881 123.094892,378.307881 Z" transform="rotate(-10 114.975 395.52)"/>
    <path d="M170.879498,369.882166 L154.64043,369.882166 C151.394414,369.882166 150.203371,370.183916 149.01293,370.818643 C147.90009,371.411993 147.026605,372.282611 146.431438,373.392108 C145.795197,374.578171 145.492948,375.765012 145.492948,378.998915 L145.492948,395.188802 C145.492948,398.422706 145.795197,399.609547 146.431438,400.79561 C147.026605,401.905106 147.90009,402.775724 149.01293,403.369075 C150.203371,404.003801 151.394414,404.305552 154.64043,404.305552 L170.879498,404.305552 C174.125514,404.305552 175.316558,404.003801 176.506998,403.369075 C177.619838,402.775724 178.493323,401.905106 179.088491,400.79561 C179.724731,399.609547 180.02698,398.422706 180.02698,395.188802 L180.02698,378.998915 C180.02698,375.765012 179.724731,374.578171 179.088491,373.392108 C178.493323,372.282611 177.619838,371.411993 176.506998,370.818643 C175.316558,370.183916 174.125514,369.882166 170.879498,369.882166 Z" transform="rotate(-10 162.76 387.094)"/>
    <path d="M136.73286,455.65264 L120.493791,455.65264 C117.247775,455.65264 116.056732,455.954391 114.866291,456.589117 C113.753452,457.182468 112.879967,458.053085 112.284799,459.162582 C111.648558,460.348645 111.346309,461.535486 111.346309,464.769389 L111.346309,480.959276 C111.346309,484.19318 111.648558,485.380021 112.284799,486.566084 C112.879967,487.675581 113.753452,488.546198 114.866291,489.139549 C116.056732,489.774275 117.247775,490.076026 120.493791,490.076026 L136.73286,490.076026 C139.978876,490.076026 141.169919,489.774275 142.36036,489.139549 C143.473199,488.546198 144.346684,487.675581 144.941852,486.566084 C145.578093,485.380021 145.880341,484.19318 145.880341,480.959276 L145.880341,464.769389 C145.880341,461.535486 145.578093,460.348645 144.941852,459.162582 C144.346684,458.053085 143.473199,457.182468 142.36036,456.589117 C141.169919,455.954391 139.978876,455.65264 136.73286,455.65264 Z" transform="rotate(-10 128.613 472.864)"/>
    <path d="M279.524508,430.47462 L263.285439,430.47462 C260.039423,430.47462 258.84838,430.77637 257.657939,431.411097 C256.5451,432.004447 255.671615,432.875065 255.076447,433.984562 C254.440206,435.170625 254.137958,436.357466 254.137958,439.591369 L254.137958,455.781256 C254.137958,459.01516 254.440206,460.202001 255.076447,461.388064 C255.671615,462.49756 256.5451,463.368178 257.657939,463.961529 C258.84838,464.596255 260.039423,464.898006 263.285439,464.898006 L279.524508,464.898006 C282.770524,464.898006 283.961567,464.596255 285.152008,463.961529 C286.264847,463.368178 287.138332,462.49756 287.7335,461.388064 C288.369741,460.202001 288.671989,459.01516 288.671989,455.781256 L288.671989,439.591369 C288.671989,436.357466 288.369741,435.170625 287.7335,433.984562 C287.138332,432.875065 286.264847,432.004447 285.152008,431.411097 C283.961567,430.77637 282.770524,430.47462 279.524508,430.47462 Z" transform="rotate(-10 271.405 447.686)"/>
    <path d="M231.739901,438.900335 L215.500833,438.900335 C212.254817,438.900335 211.063773,439.202086 209.873333,439.836812 C208.760493,440.430163 207.887008,441.300781 207.29184,442.410277 C206.6556,443.59634 206.353351,444.783181 206.353351,448.017085 L206.353351,464.206972 C206.353351,467.440875 206.6556,468.627716 207.29184,469.813779 C207.887008,470.923276 208.760493,471.793894 209.873333,472.387244 C211.063773,473.021971 212.254817,473.323721 215.500833,473.323721 L231.739901,473.323721 C234.985917,473.323721 236.176961,473.021971 237.367401,472.387244 C238.480241,471.793894 239.353726,470.923276 239.948894,469.813779 C240.585134,468.627716 240.887383,467.440875 240.887383,464.206972 L240.887383,448.017085 C240.887383,444.783181 240.585134,443.59634 239.948894,442.410277 C239.353726,441.300781 238.480241,440.430163 237.367401,439.836812 C236.176961,439.202086 234.985917,438.900335 231.739901,438.900335 Z" transform="rotate(-10 223.62 456.112)"/>
    <path d="M184.517466,447.226924 L168.278398,447.226924 C165.032382,447.226924 163.841338,447.528675 162.650898,448.163401 C161.538058,448.756752 160.664573,449.62737 160.069405,450.736867 C159.433165,451.92293 159.130916,453.109771 159.130916,456.343674 L159.130916,472.533561 C159.130916,475.767464 159.433165,476.954305 160.069405,478.140368 C160.664573,479.249865 161.538058,480.120483 162.650898,480.713834 C163.841338,481.34856 165.032382,481.650311 168.278398,481.650311 L184.517466,481.650311 C187.763482,481.650311 188.954526,481.34856 190.144966,480.713834 C191.257806,480.120483 192.131291,479.249865 192.726459,478.140368 C193.362699,476.954305 193.664948,475.767464 193.664948,472.533561 L193.664948,456.343674 C193.664948,453.109771 193.362699,451.92293 192.726459,450.736867 C192.131291,449.62737 191.257806,448.756752 190.144966,448.163401 C188.954526,447.528675 187.763482,447.226924 184.517466,447.226924 Z" transform="rotate(-10 176.398 464.439)"/>
    <path d="M218.551378,537.483372 C225.157887,571.25967 219.9854,599.7273 204.193181,625.854329 L203.446061,627.077849 C191.538487,646.380606 175.857324,662.453362 147.712196,686.411465 L143.07951,690.331236 C138.723459,693.998234 130.631779,700.787374 129.164623,702.023767 L126.506881,704.269551 C98.5401235,727.968019 81.7100676,745.308186 68.1412449,764.315103 L67.7179441,764.910188 L60.3752696,759.70585 L61.2569017,758.47077 C75.1135999,739.196546 92.1271665,721.653682 119.771919,698.180666 L124.539575,694.15382 C127.934183,691.301412 136.48247,684.127672 139.197725,681.832148 L141.838514,679.59214 C169.611071,655.952871 184.806745,640.332315 196.138019,621.779489 L196.490873,621.198747 C210.987426,597.215299 215.797104,571.302457 209.900707,540.156423 L209.71875,539.210999 L218.551378,537.483372 Z"/>
  </g>
</svg>
