<svg xmlns="http://www.w3.org/2000/svg" width="282.663" height="282.663" viewBox="0 0 282.663 282.663">
  <g fill="none" fill-rule="evenodd">
    <circle cx="141.332" cy="141.332" r="103" stroke="#D0623E" stroke-width="2" transform="rotate(-10 141.332 141.332)"/>
    <path stroke="#D0623E" stroke-width="2" d="M81.9474257,19.3422396 L83.9259149,19.3316235 L83.9259149,19.3316235 L198.736624,19.3316235 L198.736624,19.3316235 L200.064063,19.3372876 C200.282478,19.3387029 200.49949,19.3403537 200.715113,19.3422396 L201.992306,19.3563747 L201.992306,19.3563747 L203.236873,19.3761398 L203.236873,19.3761398 L204.449512,19.4015211 C204.648997,19.4062186 204.84718,19.4111494 205.044077,19.4163135 L206.210131,19.450093 C206.401939,19.4561884 206.592489,19.4625164 206.781796,19.4690767 L207.902836,19.5112232 L207.902836,19.5112232 L208.994738,19.5589305 C209.174332,19.5673443 209.352741,19.5759893 209.52998,19.5848651 L210.579484,19.6408874 L210.579484,19.6408874 L211.601593,19.7024357 L211.601593,19.7024357 L212.597006,19.7694963 C212.760722,19.7811316 212.923355,19.7929961 213.08492,19.8050893 L214.041596,19.8803922 L214.041596,19.8803922 L214.973321,19.9611725 L214.973321,19.9611725 L215.880791,20.0474166 C216.030053,20.0622451 216.178334,20.0773007 216.325648,20.0925831 L217.198044,20.1869967 C217.485052,20.2193735 217.768308,20.2526551 218.047929,20.2868392 L218.876001,20.3920969 L218.876001,20.3920969 L219.682958,20.5027559 C220.081273,20.5594334 220.471932,20.6181312 220.855327,20.6788415 L221.612547,20.802943 C223.481964,21.1198936 225.176313,21.4870264 226.744644,21.9033667 L227.365372,22.0725249 C227.570119,22.1297842 227.772741,22.187916 227.973356,22.246918 L228.569293,22.4265322 L228.569293,22.4265322 L229.15388,22.6113537 C229.250405,22.6425904 229.346485,22.6740435 229.442136,22.7057127 L230.011009,22.898319 L230.011009,22.898319 L230.570276,23.0960978 L230.570276,23.0960978 L231.120635,23.2990353 L231.120635,23.2990353 L231.662785,23.5071176 C231.931924,23.6124427 232.198245,23.7196918 232.462142,23.8288573 L232.986819,24.0497411 C233.073765,24.0869801 233.160471,24.1244315 233.246951,24.1620949 L233.763237,24.390618 L233.763237,24.390618 L234.274801,24.6242165 L234.274801,24.6242165 L234.782341,24.8628767 L234.782341,24.8628767 L235.286554,25.1065847 L235.286554,25.1065847 L235.788138,25.3553266 L235.788138,25.3553266 L236.53711,25.7378478 L236.53711,25.7378478 L237.035174,25.9991139 C237.118149,26.0430741 237.201117,26.087242 237.284091,26.1316173 C245.581536,30.5691521 252.093419,37.0810541 256.530941,45.3785227 L256.794701,45.8764065 L256.794701,45.8764065 L257.053468,46.3748265 L257.053468,46.3748265 L257.307229,46.8744805 L257.307229,46.8744805 L257.555971,47.376066 L257.555971,47.376066 L257.799678,47.8802806 L257.799678,47.8802806 L258.038337,48.3878219 L258.038337,48.3878219 L258.271935,48.8993876 C258.310446,48.9850227 258.348744,49.0708545 258.386832,49.1568975 L258.612811,49.6758077 L258.612811,49.6758077 L258.833694,50.2004861 L258.833694,50.2004861 L259.049467,50.7316305 L259.049467,50.7316305 L259.260116,51.2699384 C259.329477,51.4506458 259.397981,51.6326634 259.465627,51.8161074 L259.665986,52.3708352 C259.69895,52.4640418 259.731697,52.5576341 259.76423,52.6516266 L259.956835,53.2205004 C259.988505,53.3161519 260.019958,53.4122327 260.051194,53.5087573 L260.236015,54.0933468 C260.327125,54.3884207 260.416282,54.6877505 260.503479,54.9917287 L260.675256,55.605999 C261.069958,57.0543005 261.421852,58.6095292 261.730146,60.3115646 L261.8596,61.0501127 C261.94412,61.5486253 262.025071,62.0595872 262.102435,62.5839285 L262.21579,63.3805912 C262.234233,63.5150796 262.252451,63.6504332 262.270445,63.7866666 L262.375702,64.614741 L262.375702,64.614741 L262.475544,65.4646286 L262.475544,65.4646286 L262.569958,66.337027 L262.569958,66.337027 L262.658928,67.2326337 L262.658928,67.2326337 L262.742442,68.1521463 C262.769369,68.4627123 262.795384,68.7773789 262.820485,69.0962624 L262.893043,70.0656797 L262.893043,70.0656797 L262.960104,71.0610957 L262.960104,71.0610957 L263.021652,72.0832081 L263.021652,72.0832081 L263.077674,73.1327144 C263.08655,73.3099537 263.095195,73.4883635 263.103609,73.6679583 L263.151316,74.7598635 L263.151316,74.7598635 L263.193462,75.8809067 L263.193462,75.8809067 L263.230034,77.0317854 L263.230034,77.0317854 L263.261018,78.2131972 L263.261018,78.2131972 L263.286399,79.4258398 L263.286399,79.4258398 L263.306164,80.6704107 C263.308989,80.8805386 263.31158,81.092026 263.313936,81.3048873 L263.325251,82.5986587 L263.325251,82.5986587 L263.331624,84.6026695 L263.331624,84.6026695 L263.331624,198.060578 L263.32879,199.405119 C263.327846,199.626355 263.326666,199.846173 263.325251,200.064588 L263.313936,201.35836 L263.313936,201.35836 L263.296984,202.619156 L263.296984,202.619156 L263.274409,203.847676 C263.270179,204.049778 263.265715,204.250565 263.261018,204.45005 L263.230034,205.631462 L263.230034,205.631462 L263.193462,206.78234 L263.193462,206.78234 L263.151316,207.903384 L263.151316,207.903384 L263.103609,208.995289 L263.103609,208.995289 L263.050355,210.058754 C263.041018,210.233667 263.03145,210.407423 263.021652,210.580039 L262.960104,211.602151 L262.960104,211.602151 L262.893043,212.597567 L262.893043,212.597567 L262.820485,213.566985 C262.807934,213.726426 262.795155,213.884814 262.782148,214.042162 L262.701368,214.973889 C262.659611,215.433631 262.615805,215.884277 262.569958,216.32622 L262.475544,217.198618 L262.475544,217.198618 L262.375702,218.048506 L262.375702,218.048506 L262.270445,218.876581 C262.252451,219.012814 262.234233,219.148168 262.21579,219.282656 L262.102435,220.079319 C262.025071,220.60366 261.94412,221.114622 261.8596,221.613134 L261.730146,222.351683 C261.421852,224.053718 261.069958,225.608947 260.675256,227.057248 L260.503479,227.671518 C260.416282,227.975497 260.327125,228.274826 260.236015,228.5699 L260.051194,229.15449 C260.019958,229.251014 259.988505,229.347095 259.956835,229.442747 L259.76423,230.011621 L259.76423,230.011621 L259.566452,230.570889 L259.566452,230.570889 L259.363515,231.12125 L259.363515,231.12125 L259.155433,231.663402 C259.120325,231.753115 259.085003,231.842515 259.049467,231.931617 L258.833694,232.462761 C258.797306,232.550727 258.760704,232.638423 258.723891,232.725865 L258.500458,233.247572 C258.462794,233.334052 258.424919,233.420306 258.386832,233.50635 L258.15577,234.020189 C258.116837,234.105445 258.077692,234.190519 258.038337,234.275425 L257.799678,234.782966 L257.799678,234.782966 L257.555971,235.287181 L257.555971,235.287181 L257.307229,235.788767 L257.307229,235.788767 L257.053468,236.288421 L257.053468,236.288421 L256.794701,236.786841 L256.794701,236.786841 L256.530941,237.284724 L256.530941,237.284724 C252.093419,245.582193 245.581536,252.094095 237.284091,256.53163 L236.786209,256.79539 L236.786209,256.79539 L236.28779,257.054159 L236.28779,257.054159 L235.788138,257.30792 L235.788138,257.30792 L235.286554,257.556662 L235.286554,257.556662 L234.782341,257.80037 C234.698047,257.840568 234.613615,257.880556 234.52903,257.920332 L234.019565,258.156463 C233.93431,258.195397 233.848872,258.234119 233.763237,258.272629 L233.246951,258.501152 L233.246951,258.501152 L232.725245,258.724586 L232.725245,258.724586 L232.197422,258.942916 L232.197422,258.942916 L231.662785,259.156129 C231.573072,259.191238 231.483046,259.226132 231.392693,259.260813 L230.846525,259.466325 L230.846525,259.466325 L230.291799,259.666684 L230.291799,259.666684 L229.727817,259.861879 C229.63301,259.89398 229.537788,259.925865 229.442136,259.957534 L228.862962,260.144954 C228.668109,260.206562 228.471422,260.267302 228.272786,260.327174 L227.670913,260.504179 C226.252353,260.911098 224.732562,261.275321 223.071663,261.596057 L222.351093,261.73085 C221.743225,261.840955 221.116632,261.945499 220.469496,262.044445 L219.682958,262.160491 C219.550186,262.179384 219.416563,262.198052 219.282075,262.216495 L218.464648,262.324455 C218.326641,262.341998 218.187739,262.359316 218.047929,262.376408 L217.198044,262.47625 C217.05454,262.492439 216.910098,262.508401 216.764703,262.524137 L215.880791,262.615831 L215.880791,262.615831 L214.973321,262.702075 L214.973321,262.702075 L214.041596,262.782855 L214.041596,262.782855 L213.08492,262.858158 L213.08492,262.858158 L212.102593,262.927969 L212.102593,262.927969 L211.093919,262.992275 C210.923572,263.002534 210.752099,263.012562 210.579484,263.02236 L209.52998,263.078382 L209.52998,263.078382 L208.452386,263.128864 L208.452386,263.128864 L207.346002,263.173793 L207.346002,263.173793 L206.210131,263.213154 C206.018324,263.21925 205.825258,263.225112 205.630921,263.230742 L204.449512,263.261726 L204.449512,263.261726 L203.236873,263.287107 L203.236873,263.287107 L201.992306,263.306872 C201.782179,263.309698 201.570692,263.312289 201.357831,263.314645 L200.064063,263.325959 L200.064063,263.325959 L198.736624,263.331624 L198.736624,263.331624 L83.9259149,263.331624 L83.9259149,263.331624 L82.598475,263.325959 L82.598475,263.325959 L81.3047073,263.314645 L81.3047073,263.314645 L80.0439143,263.297693 L80.0439143,263.297693 L78.8153983,263.275118 C78.6132966,263.270887 78.4125108,263.266423 78.2130262,263.261726 L77.0316178,263.230742 L77.0316178,263.230742 L75.8807424,263.19417 C75.6914355,263.18761 75.5033718,263.180818 75.3165366,263.173793 L74.2101529,263.128864 L74.2101529,263.128864 L73.1325581,263.078382 L73.1325581,263.078382 L72.0830549,263.02236 L72.0830549,263.02236 L71.0609455,262.960811 C70.892838,262.950094 70.7258428,262.939146 70.5599455,262.927969 L69.5776189,262.858158 L69.5776189,262.858158 L68.6209421,262.782855 L68.6209421,262.782855 L67.6892177,262.702075 L67.6892177,262.702075 L66.7817479,262.615831 L66.7817479,262.615831 L65.8978351,262.524137 C65.7524407,262.508401 65.6079987,262.492439 65.4644946,262.47625 L64.6146095,262.376408 C64.4747991,262.359316 64.3358976,262.341998 64.1978904,262.324455 L63.3804633,262.216495 C63.2459754,262.198052 63.1123527,262.179384 62.9795809,262.160491 L62.1930421,262.044445 C61.5459069,261.945499 60.9193136,261.840955 60.3114455,261.73085 L59.5908758,261.596057 C57.9299761,261.275321 56.4101857,260.911098 54.9916251,260.504179 L54.389752,260.327174 C54.1911161,260.267302 53.9944298,260.206562 53.7995769,260.144954 L53.220402,259.957534 C53.1247508,259.925865 53.0295288,259.89398 52.9347217,259.861879 L52.3707392,259.666684 L52.3707392,259.666684 L51.8160131,259.466325 L51.8160131,259.466325 L51.2698457,259.260813 C51.1794922,259.226132 51.0894663,259.191238 50.9997534,259.156129 L50.4651161,258.942916 L50.4651161,258.942916 L49.9372934,258.724586 L49.9372934,258.724586 L49.4155878,258.501152 L49.4155878,258.501152 L48.8993017,258.272629 L48.8993017,258.272629 L48.3877376,258.039031 C48.3028316,257.999675 48.2180933,257.960109 48.1335082,257.920332 L47.6277189,257.679147 L47.6277189,257.679147 L47.1249075,257.43292 L47.1249075,257.43292 L46.6243764,257.181666 L46.6243764,257.181666 L45.8763294,256.79539 L45.8763294,256.79539 L45.3784471,256.53163 L45.3784471,256.53163 C37.0810025,252.094095 30.5691195,245.582193 26.1315976,237.284724 L25.8678378,236.786841 L25.8678378,236.786841 L25.6090703,236.288421 L25.6090703,236.288421 L25.3553091,235.788767 L25.3553091,235.788767 L25.1065679,235.287181 L25.1065679,235.287181 L24.8628606,234.782966 L24.8628606,234.782966 L24.6242011,234.275425 L24.6242011,234.275425 L24.3906033,233.763859 C24.3520929,233.678224 24.3137939,233.592393 24.2757068,233.50635 L24.0497274,232.987439 C23.9752495,232.813547 23.901621,232.638693 23.8288443,232.462761 L23.6130713,231.931617 C23.5775358,231.842515 23.5422137,231.753115 23.5071055,231.663402 L23.2990238,231.12125 L23.2990238,231.12125 L23.0960869,230.570889 L23.0960869,230.570889 L22.8983086,230.011621 L22.8983086,230.011621 L22.7057029,229.442747 C22.6740338,229.347095 22.6425808,229.251014 22.6113441,229.15449 L22.4265232,228.5699 C22.3354134,228.274826 22.2462563,227.975497 22.1590597,227.671518 L21.9872828,227.057248 C21.5925802,225.608947 21.240686,224.053718 20.9323927,222.351683 L20.8029387,221.613134 C20.7184188,221.114622 20.6374674,220.60366 20.560103,220.079319 L20.4467489,219.282656 C20.4283057,219.148168 20.4100872,219.012814 20.3920938,218.876581 L20.2868364,218.048506 L20.2868364,218.048506 L20.1869942,217.198618 L20.1869942,217.198618 L20.0925809,216.32622 C20.0620162,216.031591 20.0323586,215.733095 20.0036105,215.430613 L19.9200968,214.511101 C19.8931699,214.200535 19.8671548,213.885868 19.8420537,213.566985 L19.769495,212.597567 L19.769495,212.597567 L19.7024347,211.602151 L19.7024347,211.602151 L19.6408865,210.580039 L19.6408865,210.580039 L19.5848643,209.530533 C19.5759886,209.353293 19.5673436,209.174884 19.5589298,208.995289 L19.5112227,207.903384 L19.5112227,207.903384 L19.4690763,206.78234 L19.4690763,206.78234 L19.4325044,205.631462 L19.4325044,205.631462 L19.4015209,204.45005 L19.4015209,204.45005 L19.3761397,203.237407 L19.3761397,203.237407 L19.3563746,201.992836 C19.3535492,201.782708 19.3509584,201.571221 19.3486025,201.35836 L19.3372876,200.064588 L19.3372876,200.064588 L19.3316235,198.737145 L19.3316235,198.737145 L19.3316235,83.9261025 L19.3316235,83.9261025 L19.3372876,82.5986587 L19.3372876,82.5986587 L19.3486025,81.3048873 L19.3486025,81.3048873 L19.3655543,80.0440906 L19.3655543,80.0440906 L19.3881292,78.815571 C19.3923595,78.6134688 19.3968235,78.4126824 19.4015209,78.2131972 L19.4325044,77.0317854 L19.4325044,77.0317854 L19.4690763,75.8809067 L19.4690763,75.8809067 L19.5112227,74.7598635 L19.5112227,74.7598635 L19.5589298,73.6679583 L19.5589298,73.6679583 L19.6121838,72.6044934 C19.6215209,72.4295805 19.6310886,72.2558236 19.6408865,72.0832081 L19.7024347,71.0610957 L19.7024347,71.0610957 L19.769495,70.0656797 L19.769495,70.0656797 L19.8420537,69.0962624 C19.8546042,68.9368207 19.8673833,68.7784331 19.8803906,68.6210853 L19.9611707,67.6893581 C19.9750897,67.5361109 19.9892364,67.3838742 20.0036105,67.2326337 L20.0925809,66.337027 L20.0925809,66.337027 L20.1869942,65.4646286 L20.1869942,65.4646286 L20.2868364,64.614741 L20.2868364,64.614741 L20.3920938,63.7866666 C20.4100872,63.6504332 20.4283057,63.5150796 20.4467489,63.3805912 L20.560103,62.5839285 C20.6374674,62.0595872 20.7184188,61.5486253 20.8029387,61.0501127 L20.9323927,60.3115646 C21.240686,58.6095292 21.5925802,57.0543005 21.9872828,55.605999 L22.1590597,54.9917287 C22.2462563,54.6877505 22.3354134,54.3884207 22.4265232,54.0933468 L22.6113441,53.5087573 C22.6425808,53.4122327 22.6740338,53.3161519 22.7057029,53.2205004 L22.8983086,52.6516266 C22.930841,52.5576341 22.9635889,52.4640418 22.996552,52.3708352 L23.1969113,51.8161074 C23.2307343,51.7243854 23.2647718,51.63302 23.2990238,51.5419967 L23.5071055,50.9998454 C23.5422137,50.9101323 23.5775358,50.8207322 23.6130713,50.7316305 L23.8288443,50.2004861 L23.8288443,50.2004861 L24.0497274,49.6758077 L24.0497274,49.6758077 L24.2757068,49.1568975 C24.3137939,49.0708545 24.3520929,48.9850227 24.3906033,48.8993876 L24.6242011,48.3878219 L24.6242011,48.3878219 L24.8628606,47.8802806 L24.8628606,47.8802806 L25.1065679,47.376066 L25.1065679,47.376066 L25.3553091,46.8744805 L25.3553091,46.8744805 L25.6090703,46.3748265 L25.6090703,46.3748265 L25.8678378,45.8764065 L25.8678378,45.8764065 L26.1315976,45.3785227 L26.1315976,45.3785227 C30.5691195,37.0810541 37.0810025,30.5691521 45.3784471,26.1316173 L45.8763294,25.8678568 L45.8763294,25.8678568 L46.374748,25.6090886 L46.374748,25.6090886 L46.8744005,25.3553266 L46.8744005,25.3553266 L47.3759845,25.1065847 L47.3759845,25.1065847 L47.8801977,24.8628767 L47.8801977,24.8628767 L48.3877376,24.6242165 L48.3877376,24.6242165 L48.8993017,24.390618 L48.8993017,24.390618 L49.4155878,24.1620949 L49.4155878,24.1620949 L49.9372934,23.9386613 C50.1996173,23.8282191 50.4642352,23.7196907 50.7315393,23.6130837 L51.2698457,23.4024342 C51.3601991,23.3677537 51.4508801,23.3332873 51.5419031,23.2990353 L52.0922627,23.0960978 L52.0922627,23.0960978 L52.6515298,22.898319 L52.6515298,22.898319 L53.220402,22.7057127 C53.3160532,22.6740435 53.4121337,22.6425904 53.508658,22.6113537 L54.0932458,22.4265322 L54.0932458,22.4265322 L54.6891827,22.246918 C54.8897974,22.187916 55.0924198,22.1297842 55.2971663,22.0725249 L55.9178942,21.9033667 C57.4862257,21.4870264 59.1805748,21.1198936 61.0499916,20.802943 L61.8072115,20.6788415 C62.1906062,20.6181312 62.5812652,20.5594334 62.9795809,20.5027559 L63.7865374,20.3920969 L63.7865374,20.3920969 L64.6146095,20.2868392 C64.8942303,20.2526551 65.1774866,20.2193735 65.4644946,20.1869967 L66.3368905,20.0925831 C66.4842044,20.0773007 66.6324854,20.0622451 66.7817479,20.0474166 L67.6892177,19.9611725 L67.6892177,19.9611725 L68.6209421,19.8803922 L68.6209421,19.8803922 L69.5776189,19.8050893 L69.5776189,19.8050893 L70.5599455,19.7352779 C70.7258428,19.724101 70.892838,19.7131535 71.0609455,19.7024357 L72.0830549,19.6408874 L72.0830549,19.6408874 L73.1325581,19.5848651 L73.1325581,19.5848651 L74.2101529,19.5343826 L74.2101529,19.5343826 L75.3165366,19.489454 C75.5033718,19.4824295 75.6914355,19.4756369 75.8807424,19.4690767 L77.0316178,19.4325047 C77.2259554,19.4268747 77.4215652,19.4214775 77.6184617,19.4163135 L78.8153983,19.3881293 L78.8153983,19.3881293 L80.0439143,19.3655544 L80.0439143,19.3655544 L81.3047073,19.3486025 C81.517568,19.3462466 81.7318026,19.3441255 81.9474257,19.3422396 Z" transform="rotate(-10 141.332 141.332)"/>
    <circle cx="140.926" cy="141.911" r="84.5" stroke="#D0623E" stroke-width="2" transform="rotate(-10 140.926 141.91)"/>
    <circle cx="138.956" cy="142.258" r="73" transform="scale(1 -1) rotate(10 1764.975 0)"/>
    <path fill="#E06841" stroke="#C95E3C" stroke-width="3" d="M66.6574783 172.776369L169.493039 154.643685 169.493039 154.643685 185.700245 174.125303 70.4777382 194.44214C64.4949008 195.497075 58.7896586 191.502222 57.7347229 185.519384 56.6797873 179.536547 60.6746409 173.831305 66.6574783 172.776369zM153.627004 71.210173L120.577195 163.252018 120.577195 163.252018 95.5457886 167.573905 133.367175 63.8363037C135.40185 58.2555367 141.574085 55.3794221 147.155959 57.4110582 152.744008 59.4449417 155.63667 65.6133686 153.627004 71.210173z"/>
    <path fill="#E06841" stroke="#C95E3C" stroke-width="3" d="M208.002894,201.064034 L137.201068,116.514524 L137.201068,116.514524 L145.571725,93.5163323 L224.458612,187.256055 C228.277273,191.793694 227.694426,198.567814 223.156787,202.386475 C223.15285,202.389788 223.14891,202.393099 223.144968,202.396406 C218.599845,206.210217 211.823591,205.617372 208.00978,201.072249 C208.007483,201.069512 208.005188,201.066773 208.002894,201.064034 Z"/>
    <path fill="#E06841" stroke="#C95E3C" stroke-width="3" d="M226.068955 166.957415L209.601138 169.785498 209.601138 169.785498 193.731709 150.568752 222.266592 145.393008C228.214974 144.314072 233.911741 148.261539 234.990677 154.209921 234.993867 154.22751 234.997014 154.245108 235.000118 154.262712 236.050362 160.218937 232.073278 165.898802 226.117053 166.949045 226.101027 166.951871 226.084994 166.954661 226.068955 166.957415zM79.1471444 214.125061L87.3511095 191.840079 87.3511095 191.840079 111.741659 187.219356 99.3116578 221.464271C97.2870424 227.042129 91.1240201 229.922601 85.5461622 227.897986 85.5431986 227.89691 85.5402355 227.895833 85.5372729 227.894755 79.9767664 225.870896 77.109747 219.722553 79.1336059 214.162047 79.138096 214.14971 79.1426089 214.137382 79.1471444 214.125061zM122.182919 65.5141389L129.48806 74.3912733 129.48806 74.3912733 121.117403 97.3894647 105.810022 79.2532156C101.990333 74.7276314 102.562574 67.9624504 107.088158 64.1427609 107.096028 64.1361187 107.103907 64.1294878 107.111796 64.1228683 111.618111 60.341621 118.336508 60.9294045 122.117755 65.4357196 122.139601 65.4617553 122.161323 65.4878953 122.182919 65.5141389z"/>
  </g>
</svg>
