<svg xmlns="http://www.w3.org/2000/svg" width="233" height="317" viewBox="0 0 233 317">
  <g fill="none" fill-rule="evenodd" stroke-width="2" transform="matrix(-1 0 0 1 258.054 -184.4)">
    <path stroke="#1C1C1C" d="M174.844172,404.487075 L174.844172,427.487075 L160.904778,427.487075 L160.904778,404.487075 L174.844172,404.487075 Z" transform="rotate(-10 167.874 415.987)"/>
    <path fill="#0F0F0F" stroke="#313131" d="M80.7763641,24.9127665 L63.4471302,24.9127665 C53.2895462,24.9127665 45.0551974,33.1255648 45.0551974,43.256565 L45.0551974,378.948078 C45.0551974,389.079078 53.2895462,397.291877 63.4471302,397.291877 L199.087635,397.291877 C209.245219,397.291877 217.479568,389.079078 217.479568,378.948078 L217.479568,43.256565 C217.479568,33.1255648 209.245219,24.9127665 199.087635,24.9127665 L180.996215,24.9127665 C180.121376,25.1264914 179.409528,25.8760738 179.102379,26.7250565 C179.08787,26.7651598 179.080482,26.8075239 179.080554,26.8502085 C179.082543,28.0329641 179.083537,28.6263226 179.083537,28.6302843 C179.083537,34.5330284 174.334403,39.3181479 168.47605,39.3181479 L93.3372746,39.3181479 C87.4789213,39.3181479 82.7297877,34.5330284 82.7298029,28.6121515 L82.7328729,26.7889135 C82.7270177,26.7650199 82.7206609,26.7437343 82.7138027,26.7250565 C82.4042964,25.8821487 81.6470022,25.1254651 80.7763641,24.9127665 Z M70.5354648,14.0271409 L191.089409,14.0271409 C204.220704,14.0271409 208.982429,15.3885105 213.783035,17.944878 C218.58364,20.5012455 222.351183,24.252611 224.918575,29.0326026 C227.485967,33.8125943 228.853207,38.5538726 228.853207,51.6287826 L228.853207,371.029428 C228.853207,384.104338 227.485967,388.845617 224.918575,393.625608 C222.351183,398.4056 218.58364,402.156965 213.783035,404.713333 C208.982429,407.2697 204.220704,408.63107 191.089409,408.63107 L70.5354648,408.63107 C57.4041696,408.63107 52.6424447,407.2697 47.8418394,404.713333 C43.0412341,402.156965 39.273691,398.4056 36.7062993,393.625608 C34.1389075,388.845617 32.771667,384.104338 32.771667,371.029428 L32.771667,51.6287826 C32.771667,38.5538726 34.1389075,33.8125943 36.7062993,29.0326026 C39.273691,24.252611 43.0412341,20.5012455 47.8418394,17.944878 C52.6424447,15.3885105 57.4041696,14.0271409 70.5354648,14.0271409 Z" transform="rotate(-10 130.812 211.33)"/>
    <path stroke="#1C1C1C" d="M223.461488,345.39678 C228.857299,345.39678 230.82791,345.921691 232.804283,346.975465 C234.703056,347.987865 236.193345,349.473419 237.208834,351.366468 C238.265396,353.336084 238.791483,355.300131 238.791483,360.677318 L238.791483,360.677318 L238.791483,371.658744 C238.791483,377.035931 238.265396,378.999978 237.208834,380.969594 C236.193345,382.862643 234.703056,384.348197 232.804283,385.360597 C230.82791,386.414371 228.857299,386.939282 223.461488,386.939282 L223.461488,386.939282 L94.6158015,386.939282 C89.219991,386.939282 87.2493798,386.414371 85.2730068,385.360597 C83.3742342,384.348197 81.8839447,382.862643 80.8684554,380.969594 C79.8118937,378.999978 79.2858065,377.035931 79.2858065,371.658744 L79.2858065,371.658744 L79.2858065,360.677318 C79.2858065,355.300131 79.8118937,353.336084 80.8684554,351.366468 C81.8839447,349.473419 83.3742342,347.987865 85.2730068,346.975465 C87.2493798,345.921691 89.219991,345.39678 94.6158015,345.39678 L94.6158015,345.39678 Z" transform="rotate(-10 159.039 366.168)"/>
    <path stroke="#1C1C1C" d="M73.7304097,166.188534 C76.2600332,166.188534 77.1912956,166.415919 78.1198335,166.911003 C78.970771,167.364711 79.6387133,168.030408 80.0938143,168.878796 C80.5899877,169.80375 80.8176453,170.731596 80.8176453,173.251277 L80.8176453,173.251277 L80.8176453,186.154126 C80.8176453,188.673806 80.5899877,189.601653 80.0938143,190.526607 C79.6387133,191.374994 78.970771,192.040692 78.1198335,192.4944 C77.1912956,192.989484 76.2600332,193.216869 73.7304097,193.216869 L73.7304097,193.216869 L60.7883645,193.216869 C58.258741,193.216869 57.3274785,192.989484 56.3989406,192.4944 C55.5480032,192.040692 54.8800608,191.374994 54.4249598,190.526607 C53.9287865,189.601653 53.7011289,188.673806 53.7011289,186.154126 L53.7011289,186.154126 L53.7011289,173.251277 C53.7011289,170.731596 53.9287865,169.80375 54.4249598,168.878796 C54.8800608,168.030408 55.5480032,167.364711 56.3989406,166.911003 C57.3274785,166.415919 58.258741,166.188534 60.7883645,166.188534 L60.7883645,166.188534 Z" transform="rotate(-10 67.26 179.703)"/>
    <path stroke="#1C1C1C" d="M111.813293,159.473494 C114.342917,159.473494 115.274179,159.700879 116.202717,160.195963 C117.053654,160.649671 117.721597,161.315368 118.176698,162.163756 C118.672871,163.08871 118.900529,164.016556 118.900529,166.536237 L118.900529,166.536237 L118.900529,179.439086 C118.900529,181.958766 118.672871,182.886613 118.176698,183.811567 C117.721597,184.659954 117.053654,185.325652 116.202717,185.77936 C115.274179,186.274444 114.342917,186.501829 111.813293,186.501829 L111.813293,186.501829 L98.8712479,186.501829 C96.3416245,186.501829 95.410362,186.274444 94.4818241,185.77936 C93.6308867,185.325652 92.9629443,184.659954 92.5078433,183.811567 C92.0116699,182.886613 91.7840124,181.958766 91.7840124,179.439086 L91.7840124,179.439086 L91.7840124,166.536237 C91.7840124,164.016556 92.0116699,163.08871 92.5078433,162.163756 C92.9629443,161.315368 93.6308867,160.649671 94.4818241,160.195963 C95.410362,159.700879 96.3416245,159.473494 98.8712479,159.473494 L98.8712479,159.473494 Z" transform="rotate(-10 105.342 172.988)"/>
    <path stroke="#1C1C1C" d="M81.6065307,210.856236 C84.1361542,210.856236 85.0674167,211.083621 85.9959546,211.578705 C86.846892,212.032413 87.5148344,212.69811 87.9699354,213.546498 C88.4661088,214.471452 88.6937663,215.399298 88.6937663,217.918979 L88.6937663,217.918979 L88.6937663,230.821828 C88.6937663,233.341509 88.4661088,234.269355 87.9699354,235.194309 C87.5148344,236.042696 86.846892,236.708394 85.9959546,237.162102 C85.0674167,237.657186 84.1361542,237.884571 81.6065307,237.884571 L81.6065307,237.884571 L68.6644855,237.884571 C66.1348621,237.884571 65.2035996,237.657186 64.2750617,237.162102 C63.4241243,236.708394 62.7561819,236.042696 62.3010809,235.194309 C61.8049075,234.269355 61.57725,233.341509 61.57725,230.821828 L61.57725,230.821828 L61.57725,217.918979 C61.57725,215.399298 61.8049075,214.471452 62.3010809,213.546498 C62.7561819,212.69811 63.4241243,212.032413 64.2750617,211.578705 C65.2035996,211.083621 66.1348621,210.856236 68.6644855,210.856236 L68.6644855,210.856236 Z" transform="rotate(-10 75.136 224.37)"/>
    <path stroke="#1C1C1C" d="M195.407147,190.790117 C197.936771,190.790117 198.868033,191.017502 199.796571,191.512586 C200.647508,191.966294 201.315451,192.631991 201.770552,193.480379 C202.266725,194.405333 202.494383,195.333179 202.494383,197.85286 L202.494383,197.85286 L202.494383,210.755709 C202.494383,213.275389 202.266725,214.203236 201.770552,215.12819 C201.315451,215.976577 200.647508,216.642275 199.796571,217.095983 C198.868033,217.591067 197.936771,217.818452 195.407147,217.818452 L195.407147,217.818452 L182.465102,217.818452 C179.935479,217.818452 179.004216,217.591067 178.075678,217.095983 C177.224741,216.642275 176.556798,215.976577 176.101697,215.12819 C175.605524,214.203236 175.377866,213.275389 175.377866,210.755709 L175.377866,210.755709 L175.377866,197.85286 C175.377866,195.333179 175.605524,194.405333 176.101697,193.480379 C176.556798,192.631991 177.224741,191.966294 178.075678,191.512586 C179.004216,191.017502 179.935479,190.790117 182.465102,190.790117 L182.465102,190.790117 Z" transform="rotate(-10 188.936 204.304)"/>
    <path stroke="#1C1C1C" d="M157.324264,197.505157 C159.853887,197.505157 160.78515,197.732542 161.713688,198.227625 C162.564625,198.681334 163.232567,199.347031 163.687668,200.195419 C164.183842,201.120373 164.411499,202.048219 164.411499,204.5679 L164.411499,204.5679 L164.411499,217.470749 C164.411499,219.990429 164.183842,220.918276 163.687668,221.84323 C163.232567,222.691617 162.564625,223.357315 161.713688,223.811023 C160.78515,224.306106 159.853887,224.533492 157.324264,224.533492 L157.324264,224.533492 L144.382219,224.533492 C141.852595,224.533492 140.921333,224.306106 139.992795,223.811023 C139.141857,223.357315 138.473915,222.691617 138.018814,221.84323 C137.522641,220.918276 137.294983,219.990429 137.294983,217.470749 L137.294983,217.470749 L137.294983,204.5679 C137.294983,202.048219 137.522641,201.120373 138.018814,200.195419 C138.473915,199.347031 139.141857,198.681334 139.992795,198.227625 C140.921333,197.732542 141.852595,197.505157 144.382219,197.505157 L144.382219,197.505157 Z" transform="rotate(-10 150.853 211.02)"/>
    <path stroke="#1C1C1C" d="M119.689414,204.141196 C122.219038,204.141196 123.1503,204.368581 124.078838,204.863665 C124.929775,205.317373 125.597718,205.983071 126.052819,206.831458 C126.548992,207.756412 126.77665,208.684258 126.77665,211.203939 L126.77665,211.203939 L126.77665,224.106788 C126.77665,226.626469 126.548992,227.554315 126.052819,228.479269 C125.597718,229.327657 124.929775,229.993354 124.078838,230.447062 C123.1503,230.942146 122.219038,231.169531 119.689414,231.169531 L119.689414,231.169531 L106.747369,231.169531 C104.217746,231.169531 103.286483,230.942146 102.357945,230.447062 C101.507008,229.993354 100.839065,229.327657 100.383964,228.479269 C99.887791,227.554315 99.6601334,226.626469 99.6601334,224.106788 L99.6601334,224.106788 L99.6601334,211.203939 C99.6601334,208.684258 99.887791,207.756412 100.383964,206.831458 C100.839065,205.983071 101.507008,205.317373 102.357945,204.863665 C103.286483,204.368581 104.217746,204.141196 106.747369,204.141196 L106.747369,204.141196 Z" transform="rotate(-10 113.218 217.655)"/>
    <path stroke="#1C1C1C" d="M89.561413,255.970615 C92.0910365,255.970615 93.022299,256.198 93.9508369,256.693084 C94.8017743,257.146792 95.4697167,257.81249 95.9248176,258.660877 C96.420991,259.585831 96.6486486,260.513678 96.6486486,263.033358 L96.6486486,263.033358 L96.6486486,275.936207 C96.6486486,278.455888 96.420991,279.383734 95.9248176,280.308688 C95.4697167,281.157076 94.8017743,281.822773 93.9508369,282.276481 C93.022299,282.771565 92.0910365,282.99895 89.561413,282.99895 L89.561413,282.99895 L76.6193678,282.99895 C74.0897443,282.99895 73.1584819,282.771565 72.229944,282.276481 C71.3790065,281.822773 70.7110641,281.157076 70.2559632,280.308688 C69.7597898,279.383734 69.5321322,278.455888 69.5321322,275.936207 L69.5321322,275.936207 L69.5321322,263.033358 C69.5321322,260.513678 69.7597898,259.585831 70.2559632,258.660877 C70.7110641,257.81249 71.3790065,257.146792 72.229944,256.693084 C73.1584819,256.198 74.0897443,255.970615 76.6193678,255.970615 L76.6193678,255.970615 Z" transform="rotate(-10 83.09 269.485)"/>
    <path stroke="#1C1C1C" d="M203.362029,235.904496 C205.891653,235.904496 206.822915,236.131881 207.751453,236.626965 C208.602391,237.080673 209.270333,237.746371 209.725434,238.594758 C210.221607,239.519712 210.449265,240.447558 210.449265,242.967239 L210.449265,242.967239 L210.449265,255.870088 C210.449265,258.389769 210.221607,259.317615 209.725434,260.242569 C209.270333,261.090956 208.602391,261.756654 207.751453,262.210362 C206.822915,262.705446 205.891653,262.932831 203.362029,262.932831 L203.362029,262.932831 L190.419984,262.932831 C187.890361,262.932831 186.959098,262.705446 186.03056,262.210362 C185.179623,261.756654 184.511681,261.090956 184.05658,260.242569 C183.560406,259.317615 183.332749,258.389769 183.332749,255.870088 L183.332749,255.870088 L183.332749,242.967239 C183.332749,240.447558 183.560406,239.519712 184.05658,238.594758 C184.511681,237.746371 185.179623,237.080673 186.03056,236.626965 C186.959098,236.131881 187.890361,235.904496 190.419984,235.904496 L190.419984,235.904496 Z" transform="rotate(-10 196.891 249.419)"/>
    <path stroke="#1C1C1C" d="M165.279146,242.619536 C167.808769,242.619536 168.740032,242.846921 169.66857,243.342005 C170.519507,243.795713 171.18745,244.46141 171.642551,245.309798 C172.138724,246.234752 172.366382,247.162598 172.366382,249.682279 L172.366382,249.682279 L172.366382,262.585128 C172.366382,265.104808 172.138724,266.032655 171.642551,266.957609 C171.18745,267.805996 170.519507,268.471694 169.66857,268.925402 C168.740032,269.420486 167.808769,269.647871 165.279146,269.647871 L165.279146,269.647871 L152.337101,269.647871 C149.807477,269.647871 148.876215,269.420486 147.947677,268.925402 C147.09674,268.471694 146.428797,267.805996 145.973696,266.957609 C145.477523,266.032655 145.249865,265.104808 145.249865,262.585128 L145.249865,262.585128 L145.249865,249.682279 C145.249865,247.162598 145.477523,246.234752 145.973696,245.309798 C146.428797,244.46141 147.09674,243.795713 147.947677,243.342005 C148.876215,242.846921 149.807477,242.619536 152.337101,242.619536 L152.337101,242.619536 Z" transform="rotate(-10 158.808 256.134)"/>
    <path stroke="#1C1C1C" d="M127.644296,249.255575 C130.17392,249.255575 131.105182,249.48296 132.03372,249.978044 C132.884658,250.431752 133.5526,251.09745 134.007701,251.945837 C134.503874,252.870791 134.731532,253.798638 134.731532,256.318318 L134.731532,256.318318 L134.731532,269.221167 C134.731532,271.740848 134.503874,272.668694 134.007701,273.593648 C133.5526,274.442036 132.884658,275.107733 132.03372,275.561441 C131.105182,276.056525 130.17392,276.28391 127.644296,276.28391 L127.644296,276.28391 L114.702251,276.28391 C112.172628,276.28391 111.241365,276.056525 110.312827,275.561441 C109.46189,275.107733 108.793948,274.442036 108.338847,273.593648 C107.842673,272.668694 107.615016,271.740848 107.615016,269.221167 L107.615016,269.221167 L107.615016,256.318318 C107.615016,253.798638 107.842673,252.870791 108.338847,251.945837 C108.793948,251.09745 109.46189,250.431752 110.312827,249.978044 C111.241365,249.48296 112.172628,249.255575 114.702251,249.255575 L114.702251,249.255575 Z" transform="rotate(-10 121.173 262.77)"/>
    <path stroke="#1C1C1C" d="M173.346492,287.714085 C175.876116,287.714085 176.807378,287.94147 177.735916,288.436553 C178.586854,288.890261 179.254796,289.555959 179.709897,290.404347 C180.20607,291.3293 180.433728,292.257147 180.433728,294.776827 L180.433728,294.776827 L180.433728,307.679677 C180.433728,310.199357 180.20607,311.127204 179.709897,312.052157 C179.254796,312.900545 178.586854,313.566243 177.735916,314.019951 C176.807378,314.515034 175.876116,314.74242 173.346492,314.74242 L173.346492,314.74242 L160.404447,314.74242 C157.874824,314.74242 156.943561,314.515034 156.015023,314.019951 C155.164086,313.566243 154.496143,312.900545 154.041042,312.052157 C153.544869,311.127204 153.317211,310.199357 153.317211,307.679677 L153.317211,307.679677 L153.317211,294.776827 C153.317211,292.257147 153.544869,291.3293 154.041042,290.404347 C154.496143,289.555959 155.164086,288.890261 156.015023,288.436553 C156.943561,287.94147 157.874824,287.714085 160.404447,287.714085 L160.404447,287.714085 Z" transform="rotate(-10 166.875 301.228)"/>
    <path stroke="#1C1C1C" d="M211.429376,280.999045 C213.958999,280.999045 214.890262,281.22643 215.8188,281.721513 C216.669737,282.175222 217.337679,282.840919 217.79278,283.689307 C218.288954,284.614261 218.516611,285.542107 218.516611,288.061788 L218.516611,288.061788 L218.516611,300.964637 C218.516611,303.484317 218.288954,304.412164 217.79278,305.337118 C217.337679,306.185505 216.669737,306.851203 215.8188,307.304911 C214.890262,307.799995 213.958999,308.02738 211.429376,308.02738 L211.429376,308.02738 L198.487331,308.02738 C195.957707,308.02738 195.026445,307.799995 194.097907,307.304911 C193.246969,306.851203 192.579027,306.185505 192.123926,305.337118 C191.627753,304.412164 191.400095,303.484317 191.400095,300.964637 L191.400095,300.964637 L191.400095,288.061788 C191.400095,285.542107 191.627753,284.614261 192.123926,283.689307 C192.579027,282.840919 193.246969,282.175222 194.097907,281.721513 C195.026445,281.22643 195.957707,280.999045 198.487331,280.999045 L198.487331,280.999045 Z" transform="rotate(-10 204.958 294.513)"/>
    <path stroke="#1C1C1C" d="M108.385342,362.726423 C110.914966,362.726423 111.846228,362.953808 112.774766,363.448892 C113.625704,363.9026 114.293646,364.568298 114.748747,365.416685 C115.24492,366.341639 115.472578,367.269486 115.472578,369.789166 L115.472578,369.789166 L115.472578,382.692015 C115.472578,385.211696 115.24492,386.139542 114.748747,387.064496 C114.293646,387.912884 113.625704,388.578581 112.774766,389.032289 C111.846228,389.527373 110.914966,389.754758 108.385342,389.754758 L108.385342,389.754758 L95.4432971,389.754758 C92.9136736,389.754758 91.9824112,389.527373 91.0538733,389.032289 C90.2029358,388.578581 89.5349935,387.912884 89.0798925,387.064496 C88.5837191,386.139542 88.3560615,385.211696 88.3560615,382.692015 L88.3560615,382.692015 L88.3560615,369.789166 C88.3560615,367.269486 88.5837191,366.341639 89.0798925,365.416685 C89.5349935,364.568298 90.2029358,363.9026 91.0538733,363.448892 C91.9824112,362.953808 92.9136736,362.726423 95.4432971,362.726423 L95.4432971,362.726423 Z" transform="rotate(-10 101.914 376.24)"/>
    <path stroke="#1C1C1C" d="M222.185959,342.660304 C224.715582,342.660304 225.646845,342.887689 226.575383,343.382773 C227.42632,343.836481 228.094262,344.502179 228.549363,345.350566 C229.045537,346.27552 229.273194,347.203367 229.273194,349.723047 L229.273194,349.723047 L229.273194,362.625896 C229.273194,365.145577 229.045537,366.073423 228.549363,366.998377 C228.094262,367.846765 227.42632,368.512462 226.575383,368.96617 C225.646845,369.461254 224.715582,369.688639 222.185959,369.688639 L222.185959,369.688639 L209.243914,369.688639 C206.71429,369.688639 205.783028,369.461254 204.85449,368.96617 C204.003552,368.512462 203.33561,367.846765 202.880509,366.998377 C202.384336,366.073423 202.156678,365.145577 202.156678,362.625896 L202.156678,362.625896 L202.156678,349.723047 C202.156678,347.203367 202.384336,346.27552 202.880509,345.350566 C203.33561,344.502179 204.003552,343.836481 204.85449,343.382773 C205.783028,342.887689 206.71429,342.660304 209.243914,342.660304 L209.243914,342.660304 Z" transform="rotate(-10 215.715 356.174)"/>
    <path stroke="#1C1C1C" d="M184.103075,349.375344 C186.632699,349.375344 187.563961,349.602729 188.492499,350.097813 C189.343437,350.551521 190.011379,351.217219 190.46648,352.065606 C190.962653,352.99056 191.190311,353.918406 191.190311,356.438087 L191.190311,356.438087 L191.190311,369.340936 C191.190311,371.860617 190.962653,372.788463 190.46648,373.713417 C190.011379,374.561804 189.343437,375.227502 188.492499,375.68121 C187.563961,376.176294 186.632699,376.403679 184.103075,376.403679 L184.103075,376.403679 L171.16103,376.403679 C168.631407,376.403679 167.700144,376.176294 166.771606,375.68121 C165.920669,375.227502 165.252726,374.561804 164.797625,373.713417 C164.301452,372.788463 164.073795,371.860617 164.073795,369.340936 L164.073795,369.340936 L164.073795,356.438087 C164.073795,353.918406 164.301452,352.99056 164.797625,352.065606 C165.252726,351.217219 165.920669,350.551521 166.771606,350.097813 C167.700144,349.602729 168.631407,349.375344 171.16103,349.375344 L171.16103,349.375344 Z" transform="rotate(-10 177.632 362.89)"/>
    <path stroke="#1C1C1C" d="M146.468226,356.011383 C148.997849,356.011383 149.929112,356.238769 150.85765,356.733852 C151.708587,357.18756 152.376529,357.853258 152.83163,358.701646 C153.327804,359.626599 153.555461,360.554446 153.555461,363.074126 L153.555461,363.074126 L153.555461,375.976976 C153.555461,378.496656 153.327804,379.424502 152.83163,380.349456 C152.376529,381.197844 151.708587,381.863542 150.85765,382.31725 C149.929112,382.812333 148.997849,383.039718 146.468226,383.039718 L146.468226,383.039718 L133.526181,383.039718 C130.996557,383.039718 130.065295,382.812333 129.136757,382.31725 C128.285819,381.863542 127.617877,381.197844 127.162776,380.349456 C126.666603,379.424502 126.438945,378.496656 126.438945,375.976976 L126.438945,375.976976 L126.438945,363.074126 C126.438945,360.554446 126.666603,359.626599 127.162776,358.701646 C127.617877,357.853258 128.285819,357.18756 129.136757,356.733852 C130.065295,356.238769 130.996557,356.011383 133.526181,356.011383 L133.526181,356.011383 Z" transform="rotate(-10 139.997 369.526)"/>
    <path stroke="#1C1C1C" d="M172.414936,426.950231 C177.325009,453.128811 173.213001,475.259202 160.93801,495.586084 L160.93801,495.586084 L160.346329,496.555965 C150.923608,511.84481 138.504105,524.565901 116.236055,543.538806 L116.236055,543.538806 L112.554414,546.656777 C111.327944,547.690197 109.728966,549.035238 108.123384,550.385233 L108.123384,550.385233 L107.556987,550.861444 L105.023252,552.991364 C103.337284,554.408532 101.969239,555.558467 101.488939,555.963599 L101.488939,555.963599 L99.3746465,557.751827 C77.0547909,576.682752 63.6282548,590.538851 52.7984656,605.723049 L53.041,605.383 L48.8349154,602.39846 C59.7856609,587.151057 73.0633013,573.405132 94.4630055,555.154978 L95.3119624,554.432224 L99.1008958,551.229053 C99.7685343,550.667533 100.686912,549.895574 101.7238,549.023999 C102.512761,548.360824 103.370309,547.639996 104.238257,546.910283 L105.216017,546.08818 C107.493374,544.173195 109.692031,542.323005 110.759486,541.419723 L110.759486,541.419723 L112.86054,539.635883 C135.054697,520.727294 147.185878,508.223686 156.241669,493.382788 L156.241669,493.382788 L156.523425,492.918627 C168.175208,473.623771 172.052318,452.777646 167.311887,427.714491 L167.353,427.941 Z"/>
  </g>
</svg>
