<svg xmlns="http://www.w3.org/2000/svg" width="266" height="209" viewBox="0 0 266 209">
  <g fill="none" fill-rule="evenodd" transform="rotate(-10 190.365 64.635)">
    <circle cx="122" cy="122" r="103" stroke="#1C1C1C" stroke-width="2"/>
    <path stroke="#1C1C1C" stroke-width="3" d="M179.3986,1.49998635 L180.72272,1.5056326 C180.939994,1.50704051 181.155873,1.50868262 181.366889,1.5105242 L181.366889,1.5105242 L182.636864,1.52456205 L183.873861,1.54418783 L185.082577,1.56948186 C185.280714,1.57414759 185.477559,1.57904515 185.669018,1.58406092 L185.669018,1.58406092 L186.830864,1.61771259 C187.021227,1.62376211 187.210341,1.6300424 187.393818,1.63639416 L187.393818,1.63639416 L188.505737,1.67817 L189.592918,1.72566352 C189.770893,1.73400149 189.947693,1.74256844 190.118401,1.75110901 L190.118401,1.75110901 L191.1628,1.80685888 L192.174474,1.86777888 L193.157561,1.93400904 L194.587782,2.0438018 L195.505954,2.12340719 L196.399174,2.20829694 L197.703296,2.34648558 C197.9839,2.37815534 198.260816,2.41069876 198.52716,2.44324252 L198.52716,2.44324252 L199.347923,2.54757116 L200.140023,2.65617368 C200.530426,2.71172522 200.913324,2.76925428 201.281103,2.82746967 L201.281103,2.82746967 L202.030184,2.95021423 C203.85071,3.25887571 205.500826,3.61607332 207.018629,4.01896652 L207.018629,4.01896652 L207.62976,4.18547497 C207.828025,4.24092178 208.024234,4.29721292 208.208869,4.35148012 L208.208869,4.35148012 L208.79513,4.52817809 L209.358028,4.70614218 L210.191188,4.98508297 L210.729101,5.17531022 L211.260811,5.37137102 L211.784518,5.57234072 C212.044655,5.67414315 212.302069,5.7778062 212.548506,5.8797178 L212.548506,5.8797178 L213.062655,6.09616906 L213.818546,6.42803413 L214.312475,6.65357996 L214.805168,6.88525871 L215.29532,7.12217017 L215.782149,7.36359486 L216.515938,7.73836112 L217.00144,7.99303817 C225.274422,12.4181219 231.580339,18.7209693 235.873827,26.7490931 L235.873827,26.7490931 L236.134672,27.2414743 L236.38748,27.728415 L236.634958,28.215698 L236.877136,28.7040496 L237.114047,29.1942027 L237.345725,29.6868972 L237.571271,30.1808281 L237.903135,30.9367219 L238.115921,31.4421677 L238.324521,31.9556539 L238.528106,32.4758242 C238.595112,32.6503981 238.661291,32.8262376 238.723206,32.9940427 L238.723206,32.9940427 L238.919286,33.5369221 L239.201138,34.3603055 L239.47337,35.2114286 C239.560775,35.4946757 239.646299,35.7818973 239.727276,36.0640729 L239.727276,36.0640729 L239.896413,36.6687831 C240.280454,38.0779625 240.622575,39.5912379 240.921047,41.2389153 L240.921047,41.2389153 L241.049081,41.9692273 C241.131849,42.4574075 241.211116,42.9577799 241.285769,43.463606 L241.285769,43.463606 L241.397804,44.2510002 L241.555366,45.4670041 L241.653366,46.3012104 L241.746333,47.160243 L241.834027,48.0430023 L241.916424,48.9500906 C241.943013,49.2567557 241.968701,49.5674699 241.993045,49.8765973 L241.993045,49.8765973 L242.065187,50.8404495 L242.131514,51.8249669 L242.192434,52.8366499 L242.247928,53.8761136 C242.256724,54.0517546 242.265291,54.2285557 242.273415,54.4018097 L242.273415,54.4018097 L242.320751,55.4845937 L242.362595,56.5969251 L242.398926,57.739487 L242.429722,58.9129625 L242.454964,60.1180348 L242.474676,61.3589545 L242.474676,61.3589545 L242.48237,61.9863817 L242.493635,63.2718052 L242.5,65.271046 L242.500003,178.725793 L242.49718,180.067094 C242.496241,180.287217 242.495067,180.505929 242.493685,180.719847 L242.493685,180.719847 L242.482448,182.00657 L242.465614,183.259974 L242.443114,184.484662 C242.438911,184.685449 242.434477,184.884928 242.42991,185.079101 L242.42991,185.079101 L242.399167,186.252196 L242.362898,187.394363 L242.321122,188.506285 L242.273862,189.588645 L242.220864,190.647172 C242.211617,190.820391 242.202142,190.992466 242.192741,191.158254 L242.192741,191.158254 L242.131514,192.175033 L242.065187,193.159551 L241.99359,194.116121 L241.875893,195.506583 C241.834726,195.959833 241.791541,196.404115 241.747042,196.833205 L241.747042,196.833205 L241.653366,197.69879 L241.555154,198.5348 L241.451963,199.346618 L241.286039,200.53443 C241.210531,201.045913 241.131549,201.544364 241.050501,202.022537 L241.050501,202.022537 L240.922539,202.752711 C240.622575,204.408762 240.280454,205.922037 239.899052,207.321657 L239.899052,207.321657 L239.730003,207.926297 C239.645616,208.220483 239.559332,208.51017 239.474168,208.786104 L239.474168,208.786104 L239.293158,209.35864 L239.014218,210.191802 L238.823991,210.729717 L238.627946,211.261389 L238.427762,211.782961 L238.115844,212.557921 L237.793446,213.317206 L237.459523,214.065693 L237.11314,214.807675 L236.877136,215.29595 L236.634958,215.784302 L236.38748,216.271585 L236.134665,216.75854 L235.876597,217.245704 C231.580942,225.277903 225.277244,231.58162 217.250271,235.874518 L217.250271,235.874518 L216.757891,236.135363 L216.270952,236.388172 L215.78367,236.635651 L215.29532,236.87783 L214.807046,237.113834 L214.065067,237.460218 L213.314457,237.79509 L212.811657,238.010427 L212.301279,238.221542 L211.786878,238.426685 L210.99366,238.728123 L210.460074,238.920848 L209.917557,239.108612 L209.071985,239.385376 C208.885851,239.444192 208.698106,239.502155 208.517949,239.556492 L208.517949,239.556492 L207.92569,239.730704 C206.546991,240.126188 205.069849,240.479922 203.464226,240.790009 L203.464226,240.790009 L202.75212,240.923244 C202.15738,241.030971 201.544318,241.133244 200.918932,241.228886 L200.918932,241.228886 L200.14182,241.343541 L198.943734,241.504783 L197.698138,241.654061 L196.399174,241.791703 L195.505954,241.876593 L194.586336,241.956324 L193.641275,242.030712 L192.670077,242.099733 L191.67213,242.163364 C191.503492,242.17352 191.333738,242.183447 191.167904,242.192869 L191.167904,242.192869 L190.128163,242.248402 L189.059899,242.298476 L187.96243,242.343069 L186.830864,242.382287 C186.640449,242.388339 186.448786,242.394159 186.259972,242.399634 L186.259972,242.399634 L185.0865,242.430431 L183.881431,242.455673 L182.640515,242.475384 C182.431569,242.478194 182.221271,242.48077 182.01309,242.483078 L182.01309,242.483078 L180.72604,242.49435 L179.405,242.5 L64.6006917,242.500014 L63.2799695,242.494393 L61.99325,242.483157 L60.7398497,242.466322 L59.5151652,242.443823 C59.3143793,242.43962 59.1149007,242.435185 58.9207281,242.430618 L58.9207281,242.430618 L57.7476365,242.399876 L56.6010689,242.363447 C56.4132404,242.356938 56.2266454,242.350198 56.0457758,242.343405 L56.0457758,242.343405 L54.9487233,242.298884 L53.8808905,242.248891 L52.8364845,242.193141 L51.8247616,242.132227 L50.3580161,242.030712 L49.4129551,241.956324 L48.493337,241.876593 L47.5984727,241.791547 L46.7293794,241.70139 L45.4651455,241.555848 L44.2527733,241.398756 L43.0823558,241.22917 C42.4512447,241.132622 41.8401279,241.030648 41.2556349,240.924802 L41.2556349,240.924802 L40.543662,240.791643 C38.929442,240.479922 37.4523001,240.126188 36.0832156,239.733497 L36.0832156,239.733497 L35.4910126,239.559371 C35.2988767,239.501458 35.1086265,239.442706 34.9297724,239.386193 L34.9297724,239.386193 L34.3626188,239.202663 L33.5368287,238.919985 L33.003323,238.727289 L32.477943,238.5296 L31.6957588,238.220609 L31.1876346,238.010427 L30.6828167,237.794226 L30.1827964,237.572903 L29.688652,237.347259 L28.9469457,236.996046 L28.4596169,236.757401 L27.9733573,236.513311 L27.2399235,236.134581 L26.7542234,235.877287 C18.7220476,231.58162 12.4183493,225.277903 8.125464,217.250907 L8.125464,217.250907 L7.86461926,216.758526 L7.61181165,216.271585 L7.36433328,215.784302 L7.12215491,215.29595 L6.8852441,214.805797 L6.65356598,214.313103 L6.42802077,213.819172 L6.09431165,213.059076 C6.02317568,212.892917 5.95288416,212.725955 5.88692465,212.566582 L5.88692465,212.566582 L5.67571292,212.046665 L5.3705032,211.259104 L5.17530023,210.729717 L4.98422515,210.189404 L4.79891809,209.642087 L4.52592146,208.788571 C4.43851588,208.505324 4.35299268,208.218103 4.27201575,207.935927 L4.27201575,207.935927 L4.10287822,207.331217 C3.71883741,205.922037 3.37671593,204.408762 3.07824412,202.761085 L3.07824412,202.761085 L2.9502102,202.030773 C2.86744207,201.542593 2.78817485,201.04222 2.71352215,200.536394 L2.71352215,200.536394 L2.60148684,199.749 L2.44392562,198.532996 L2.34592406,197.698777 L2.25295049,196.839818 C2.22282455,196.549418 2.19359334,196.255207 2.16583824,195.963313 L2.16583824,195.963313 L2.08286684,195.049909 C2.05627816,194.743244 2.03059032,194.43253 2.00624609,194.123403 L2.00624609,194.123403 L1.93410396,193.159551 L1.86777783,192.175033 L1.80685766,191.16335 L1.75136347,190.123886 C1.74256775,189.948245 1.73400082,189.771444 1.72587662,189.59819 L1.72587662,189.59819 L1.67854021,188.515406 L1.63669595,187.403075 L1.60036526,186.260513 L1.56956891,185.087037 L1.54432704,183.881965 L1.52461552,182.641046 L1.52461552,182.641046 L1.51692158,182.013618 L1.50565042,180.726565 L1.5,179.405521 L1.49998635,64.6008793 L1.50560672,63.2801532 L1.51684338,61.9934299 L1.53367756,60.7400259 L1.55617713,59.5153378 C1.56037988,59.3145513 1.5648148,59.1150721 1.56938179,58.9208988 L1.56938179,58.9208988 L1.60012406,57.7478038 L1.63639377,56.6056369 L1.67816949,55.4937149 L1.72542912,54.4113546 L1.7784276,53.3528284 C1.78767432,53.179609 1.79714931,53.0075343 1.80655078,52.8417462 L1.80655078,52.8417462 L1.86777783,51.8249669 L1.93410396,50.8404495 L2.00569995,49.8838941 L2.12341476,48.4935511 L2.25313203,47.158642 L2.34592555,46.3012104 L2.44413757,45.4651999 L2.54732856,44.6533821 L2.71325273,43.4655699 C2.78875987,42.9540875 2.86774225,42.4556365 2.94879018,41.9774634 L2.94879018,41.9774634 L3.07675189,41.2472889 C3.37671593,39.5912379 3.71883741,38.0779625 4.10023885,36.6783432 L4.10023885,36.6783432 L4.26928818,36.0737026 C4.3536757,35.7795172 4.43995895,35.48983 4.52512352,35.2138956 L4.52512352,35.2138956 L4.70613345,34.6413601 L4.984281,33.8105647 L5.27276305,33.0033641 L5.57245529,32.2147374 L5.88430714,31.4399422 L6.09702313,30.9346636 L6.31492019,30.4343127 L6.6544913,29.6849294 L6.8852441,29.1942027 L7.12215491,28.7040496 L7.36433328,28.215698 L7.61181165,27.728415 L7.86462645,27.2414605 L8.12269467,26.7542959 C12.4183493,18.7220968 18.7220476,12.4183798 26.7490206,8.12548207 L26.7490206,8.12548207 L27.2414004,7.86463658 L27.7283396,7.61182826 L28.2156211,7.36434921 L28.7039712,7.12217017 L29.1941229,6.88525871 L29.6868159,6.65357996 L30.1827964,6.42709747 L30.6828517,6.20575864 L31.1877105,5.98950969 C31.4413253,5.88273418 31.6971576,5.77780782 31.9465326,5.67831739 L31.9465326,5.67831739 L32.4733577,5.47216067 L33.2725197,5.1744864 L33.8105023,4.98423463 L34.3578174,4.79892708 L35.2066106,4.52743922 L35.7807934,4.35434724 C35.9750577,4.29721292 36.1712664,4.24092178 36.3599341,4.18812472 L36.3599341,4.18812472 L36.9711407,4.02152765 C38.4984653,3.61607332 40.1485811,3.25887571 41.960968,2.95157122 L41.960968,2.95157122 L42.7101888,2.82875848 C43.0859669,2.76925428 43.4688655,2.71172522 43.851747,2.65722447 L43.851747,2.65722447 L44.6514018,2.54756679 L45.4650085,2.44413065 C45.7400635,2.41050467 46.0186948,2.37776716 46.2942637,2.34666533 L46.2942637,2.34666533 L47.1585063,2.25313415 L48.4949183,2.1232701 L49.4129551,2.04367645 L50.3580239,1.9692873 L51.3291516,1.90026162 L52.8365144,1.80685749 L53.8711286,1.75159821 L54.939392,1.70152383 L56.0412694,1.6567714 C56.2266454,1.64980174 56.4132404,1.64306229 56.5967611,1.63669634 L56.5967611,1.63669634 L57.7434314,1.60025207 C57.9364079,1.59466149 58.1306478,1.58930216 58.3221488,1.58427426 L58.3221488,1.58427426 L59.5113337,1.55625259 L60.732457,1.53379528 L61.9896848,1.51688713 C62.2013923,1.51454394 62.4144662,1.51243439 62.6238507,1.51059447 L62.6238507,1.51059447 L64.5942914,1.5 L179.3986,1.49998635 Z"/>
    <circle cx="121.5" cy="122.5" r="84.5" stroke="#1C1C1C" stroke-width="2"/>
    <path fill="#0F0F0F" stroke="#313131" stroke-width="2" d="M43,140 L147.421965,140 L147.421965,140 L160,162 L43,162 C36.9248678,162 32,157.075132 32,151 C32,144.924868 36.9248678,140 43,140 Z"/>
    <path fill="#0F0F0F" stroke="#313131" stroke-width="2" d="M62.3589788,82.3370113 L160.153722,81.9135086 L160.153722,81.9135086 L172.776212,103.957164 L62.359078,103.897035 C56.4189725,103.893801 51.6052802,99.0774863 51.6052802,93.1373799 C51.6052802,87.1907023 56.412357,82.3627633 62.3589788,82.3370113 Z" transform="rotate(120 112.19 92.935)"/>
    <path fill="#0F0F0F" stroke="#313131" stroke-width="2" d="M102.767851,127.893096 L213.047069,128.003129 L213.047069,128.003129 L225.284151,149.198377 L102.767845,149.374506 C96.8372236,149.383031 92.0225936,144.582224 92.0140678,138.651603 C92.0140604,138.646457 92.0140567,138.641312 92.0140567,138.636166 C92.0140567,132.702929 96.8238952,127.893091 102.757132,127.893091 C102.760705,127.893091 102.764278,127.893093 102.767851,127.893096 Z" transform="rotate(-120 158.65 138.636)"/>
    <path fill="#0F0F0F" stroke="#313131" stroke-width="2" d="M182.999891,140.049038 L199.708617,140.123527 L199.708617,140.123527 L212,161.804025 L182.999868,161.946108 C176.9545,161.975726 172.02975,157.098997 172.000131,151.053629 C172.000044,151.035753 172,151.017876 172,151 C172,144.951891 176.902961,140.04893 182.95107,140.04893 C182.967344,140.04893 182.983617,140.048966 182.999891,140.049038 Z" transform="rotate(180 192 151)"/>
    <path fill="#0F0F0F" stroke="#313131" stroke-width="2" d="M50.9792877,166.413569 L74.7262423,166.500861 L74.7262423,166.500861 L87.4103609,187.840101 L50.9793561,187.872171 C45.045425,187.877394 40.2307887,183.071227 40.2255651,177.137296 C40.2255623,177.134143 40.2255609,177.130991 40.2255609,177.127838 C40.2255609,171.21047 45.022535,166.413496 50.9399025,166.413496 C50.9530309,166.413496 50.9661593,166.41352 50.9792877,166.413569 Z" transform="rotate(-60 63.818 177.128)"/>
    <path fill="#0F0F0F" stroke="#313131" stroke-width="2" d="M103.838934,44.304165 L115.334867,44.4142145 L115.334867,44.4142145 L127.57195,65.6094623 L103.839382,65.67784 C97.9173344,65.6949024 93.1027343,60.9079661 93.0856718,54.9859183 C93.0856422,54.9756203 93.0856273,54.9653222 93.0856273,54.955024 C93.0856273,49.0724475 97.8543978,44.303677 103.736974,44.303677 C103.770962,44.303677 103.804948,44.3038397 103.838934,44.304165 Z" transform="rotate(60 110.329 54.955)"/>
  </g>
</svg>
