<svg xmlns="http://www.w3.org/2000/svg" width="268" height="210" viewBox="0 0 268 210">
  <g fill="none" fill-rule="evenodd" transform="rotate(-10 196.58 59.42)">
    <circle cx="122" cy="122" r="103" stroke="#D0623E" stroke-width="2"/>
    <path stroke="#D0623E" stroke-width="2" d="M62.6158022,0.0106160599 L64.5942914,0 L64.5942914,0 L179.405,0 L179.405,0 L180.73244,0.00566409351 C180.950854,0.00707939488 181.167866,0.00873014662 181.383489,0.0106160599 L182.660682,0.024751168 L182.660682,0.024751168 L183.90525,0.0445162912 L183.90525,0.0445162912 L185.117889,0.069897567 C185.317373,0.0745950222 185.515557,0.0795259062 185.712453,0.0846899301 L186.878508,0.118469443 C187.070316,0.124564871 187.260866,0.130892862 187.450172,0.137453127 L188.571212,0.179599686 L188.571212,0.179599686 L189.663114,0.227306948 C189.842709,0.23572078 190.021118,0.244365731 190.198357,0.253241511 L191.24786,0.309263835 L191.24786,0.309263835 L192.269969,0.370812206 L192.269969,0.370812206 L193.265383,0.437872762 C193.429099,0.4495081 193.591732,0.461372535 193.753296,0.473465777 L194.709973,0.548768618 L194.709973,0.548768618 L195.641697,0.629548987 L195.641697,0.629548987 L196.549167,0.715793021 C196.69843,0.730621563 196.84671,0.745677179 196.994024,0.760959582 L197.86642,0.855373123 C198.153428,0.887749909 198.436685,0.92103153 198.716305,0.955215675 L199.544377,1.06047337 L199.544377,1.06047337 L200.351334,1.17113236 C200.74965,1.22780986 201.140309,1.28650765 201.523703,1.34721792 L202.280923,1.47131947 C204.15034,1.78827008 205.844689,2.15540287 207.413021,2.57174315 L208.033749,2.74090135 C208.238495,2.79816067 208.441117,2.85629249 208.641732,2.91529448 L209.237669,3.09490869 L209.237669,3.09490869 L209.822257,3.27973011 C209.918781,3.31096685 210.014862,3.34241997 210.110513,3.3740892 L210.679385,3.56669544 L210.679385,3.56669544 L211.238652,3.76447424 L211.238652,3.76447424 L211.789012,3.96741174 L211.789012,3.96741174 L212.331161,4.17549406 C212.6003,4.28081912 212.866622,4.38806829 213.130518,4.49723378 L213.655195,4.71811753 C213.742141,4.75535657 213.828847,4.79280795 213.915327,4.83047139 L214.431613,5.05899441 L214.431613,5.05899441 L214.943177,5.29259295 L214.943177,5.29259295 L215.450717,5.53125314 L215.450717,5.53125314 L215.95493,5.77496113 L215.95493,5.77496113 L216.456514,6.02370305 L216.456514,6.02370305 L217.205487,6.40622422 L217.205487,6.40622422 L217.70355,6.66749032 C217.786526,6.71145051 217.869493,6.75561842 217.952468,6.79999377 C226.249912,11.2375286 232.761795,17.7494305 237.199317,26.0468992 L237.463077,26.5447829 L237.463077,26.5447829 L237.721845,27.043203 L237.721845,27.043203 L237.975606,27.542857 L237.975606,27.542857 L238.224347,28.0444425 L238.224347,28.0444425 L238.468054,28.5486571 L238.468054,28.5486571 L238.706714,29.0561984 L238.706714,29.0561984 L238.940312,29.5677641 C238.978822,29.6533991 239.017121,29.7392309 239.055208,29.825274 L239.281188,30.3441841 L239.281188,30.3441841 L239.502071,30.8688626 L239.502071,30.8688626 L239.717844,31.400007 L239.717844,31.400007 L239.928493,31.9383149 C239.997853,32.1190223 240.066358,32.3010399 240.134004,32.4844839 L240.334363,33.0392116 C240.367326,33.1324182 240.400074,33.2260105 240.432606,33.320003 L240.625212,33.8888769 C240.656881,33.9845284 240.688334,34.0806091 240.719571,34.1771337 L240.904392,34.7617232 C240.995501,35.0567971 241.084659,35.356127 241.171855,35.6601051 L241.343632,36.2743755 C241.738335,37.7226769 242.090229,39.2779056 242.398522,40.979941 L242.527976,41.7184892 C242.612496,42.2170018 242.693447,42.7279636 242.770812,43.2523049 L242.884166,44.0489677 C242.902609,44.183456 242.920828,44.3188096 242.938821,44.455043 L243.044078,45.2831175 L243.044078,45.2831175 L243.143921,46.1330051 L243.143921,46.1330051 L243.238334,47.0054034 L243.238334,47.0054034 L243.327304,47.9010101 L243.327304,47.9010101 L243.410818,48.8205227 C243.437745,49.1310888 243.46376,49.4457554 243.488861,49.7646389 L243.56142,50.7340562 L243.56142,50.7340562 L243.62848,51.7294722 L243.62848,51.7294722 L243.690028,52.7515846 L243.690028,52.7515846 L243.746051,53.8010909 C243.754926,53.9783302 243.763571,54.1567399 243.771985,54.3363347 L243.819692,55.42824 L243.819692,55.42824 L243.861839,56.5492831 L243.861839,56.5492831 L243.898411,57.7001618 L243.898411,57.7001618 L243.929394,58.8815737 L243.929394,58.8815737 L243.954775,60.0942162 L243.954775,60.0942162 L243.97454,61.3387872 C243.977366,61.5489151 243.979956,61.7604025 243.982312,61.9732638 L243.993627,63.2670352 L243.993627,63.2670352 L244,65.271046 L244,65.271046 L244,178.728954 L243.997167,180.073496 C243.996222,180.294731 243.995043,180.51455 243.993627,180.732965 L243.982312,182.026736 L243.982312,182.026736 L243.965361,183.287533 L243.965361,183.287533 L243.942786,184.516052 C243.938555,184.718155 243.934091,184.918941 243.929394,185.118426 L243.898411,186.299838 L243.898411,186.299838 L243.861839,187.450717 L243.861839,187.450717 L243.819692,188.57176 L243.819692,188.57176 L243.771985,189.663665 L243.771985,189.663665 L243.718731,190.72713 C243.709394,190.902043 243.699826,191.0758 243.690028,191.248415 L243.62848,192.270528 L243.62848,192.270528 L243.56142,193.265944 L243.56142,193.265944 L243.488861,194.235361 C243.476311,194.394803 243.463532,194.55319 243.450524,194.710538 L243.369744,195.642265 C243.327987,196.102007 243.284181,196.552653 243.238334,196.994597 L243.143921,197.866995 L243.143921,197.866995 L243.044078,198.716883 L243.044078,198.716883 L242.938821,199.544957 C242.920828,199.68119 242.902609,199.816544 242.884166,199.951032 L242.770812,200.747695 C242.693447,201.272036 242.612496,201.782998 242.527976,202.281511 L242.398522,203.020059 C242.090229,204.722094 241.738335,206.277323 241.343632,207.725625 L241.171855,208.339895 C241.084659,208.643873 240.995501,208.943203 240.904392,209.238277 L240.719571,209.822866 C240.688334,209.919391 240.656881,210.015472 240.625212,210.111123 L240.432606,210.679997 L240.432606,210.679997 L240.234828,211.239266 L240.234828,211.239266 L240.031891,211.789627 L240.031891,211.789627 L239.823809,212.331778 C239.788701,212.421491 239.753379,212.510891 239.717844,212.599993 L239.502071,213.131137 C239.465682,213.219103 239.429081,213.3068 239.392267,213.394241 L239.168834,213.915948 C239.131171,214.002429 239.093295,214.088683 239.055208,214.174726 L238.824146,214.688565 C238.785213,214.773822 238.746069,214.858895 238.706714,214.943802 L238.468054,215.451343 L238.468054,215.451343 L238.224347,215.955558 L238.224347,215.955558 L237.975606,216.457143 L237.975606,216.457143 L237.721845,216.956797 L237.721845,216.956797 L237.463077,217.455217 L237.463077,217.455217 L237.199317,217.953101 L237.199317,217.953101 C232.761795,226.250569 226.249912,232.762471 217.952468,237.200006 L217.454586,237.463767 L217.454586,237.463767 L216.956167,237.722535 L216.956167,237.722535 L216.456514,237.976297 L216.456514,237.976297 L215.95493,238.225039 L215.95493,238.225039 L215.450717,238.468747 C215.366424,238.508945 215.281992,238.548932 215.197407,238.588709 L214.687942,238.82484 C214.602686,238.863773 214.517248,238.902495 214.431613,238.941006 L213.915327,239.169529 L213.915327,239.169529 L213.393622,239.392962 L213.393622,239.392962 L212.865799,239.611293 L212.865799,239.611293 L212.331161,239.824506 C212.241449,239.859614 212.151423,239.894509 212.061069,239.929189 L211.514902,240.134701 L211.514902,240.134701 L210.960176,240.335061 L210.960176,240.335061 L210.396193,240.530255 C210.301386,240.562356 210.206164,240.594242 210.110513,240.625911 L209.531338,240.813331 C209.336485,240.874938 209.139799,240.935679 208.941163,240.99555 L208.33929,241.172556 C206.920729,241.579474 205.400939,241.943698 203.740039,242.264433 L203.019469,242.399226 C202.411601,242.509331 201.785008,242.613875 201.137873,242.712821 L200.351334,242.828868 C200.218562,242.84776 200.084939,242.866428 199.950452,242.884871 L199.133024,242.992832 C198.995017,243.010375 198.856116,243.027692 198.716305,243.044784 L197.86642,243.144627 C197.722916,243.160815 197.578474,243.176777 197.43308,243.192513 L196.549167,243.284207 L196.549167,243.284207 L195.641697,243.370451 L195.641697,243.370451 L194.709973,243.451231 L194.709973,243.451231 L193.753296,243.526534 L193.753296,243.526534 L192.770969,243.596346 L192.770969,243.596346 L191.762295,243.660652 C191.591949,243.67091 191.420475,243.680938 191.24786,243.690736 L190.198357,243.746758 L190.198357,243.746758 L189.120762,243.797241 L189.120762,243.797241 L188.014378,243.84217 L188.014378,243.84217 L186.878508,243.881531 C186.6867,243.887626 186.493635,243.893489 186.299297,243.899119 L185.117889,243.930102 L185.117889,243.930102 L183.90525,243.955484 L183.90525,243.955484 L182.660682,243.975249 C182.450555,243.978074 182.239068,243.980665 182.026208,243.983021 L180.73244,243.994336 L180.73244,243.994336 L179.405,244 L179.405,244 L64.5942914,244 L64.5942914,244 L63.2668514,243.994336 L63.2668514,243.994336 L61.9730838,243.983021 L61.9730838,243.983021 L60.7122907,243.966069 L60.7122907,243.966069 L59.4837747,243.943494 C59.2816731,243.939264 59.0808872,243.9348 58.8814026,243.930102 L57.6999942,243.899119 L57.6999942,243.899119 L56.5491189,243.862547 C56.359812,243.855987 56.1717482,243.849194 55.9849131,243.84217 L54.8785293,243.797241 L54.8785293,243.797241 L53.8009346,243.746758 L53.8009346,243.746758 L52.7514313,243.690736 L52.7514313,243.690736 L51.729322,243.629188 C51.5612145,243.61847 51.3942193,243.607523 51.228322,243.596346 L50.2459953,243.526534 L50.2459953,243.526534 L49.2893186,243.451231 L49.2893186,243.451231 L48.3575941,243.370451 L48.3575941,243.370451 L47.4501243,243.284207 L47.4501243,243.284207 L46.5662116,243.192513 C46.4208171,243.176777 46.2763751,243.160815 46.1328711,243.144627 L45.282986,243.044784 C45.1431756,243.027692 45.0042741,243.010375 44.8662669,242.992832 L44.0488398,242.884871 C43.9143518,242.866428 43.7807292,242.84776 43.6479573,242.828868 L42.8614186,242.712821 C42.2142833,242.613875 41.58769,242.509331 40.979822,242.399226 L40.2592523,242.264433 C38.5983526,241.943698 37.0785621,241.579474 35.6600016,241.172556 L35.0581285,240.99555 C34.8594925,240.935679 34.6628062,240.874938 34.4679533,240.813331 L33.8887784,240.625911 C33.7931272,240.594242 33.6979053,240.562356 33.6030981,240.530255 L33.0391157,240.335061 L33.0391157,240.335061 L32.4843895,240.134701 L32.4843895,240.134701 L31.9382221,239.929189 C31.8478687,239.894509 31.7578428,239.859614 31.6681299,239.824506 L31.1334925,239.611293 L31.1334925,239.611293 L30.6056698,239.392962 L30.6056698,239.392962 L30.0839643,239.169529 L30.0839643,239.169529 L29.5676782,238.941006 L29.5676782,238.941006 L29.056114,238.707407 C28.9712081,238.668052 28.8864698,238.628486 28.8018846,238.588709 L28.2960953,238.347523 L28.2960953,238.347523 L27.7932839,238.101296 L27.7932839,238.101296 L27.2927529,237.850043 L27.2927529,237.850043 L26.5447058,237.463767 L26.5447058,237.463767 L26.0468235,237.200006 L26.0468235,237.200006 C17.749379,232.762471 11.2374959,226.250569 6.79997402,217.953101 L6.53621425,217.455217 L6.53621425,217.455217 L6.2774468,216.956797 L6.2774468,216.956797 L6.02368555,216.457143 L6.02368555,216.457143 L5.77494436,215.955558 L5.77494436,215.955558 L5.53123708,215.451343 L5.53123708,215.451343 L5.29257758,214.943802 L5.29257758,214.943802 L5.05897972,214.432236 C5.02046931,214.346601 4.98217039,214.260769 4.94408323,214.174726 L4.71810383,213.655816 C4.64362597,213.481923 4.5699975,213.307069 4.49722072,213.131137 L4.28144777,212.599993 C4.24591223,212.510891 4.21059018,212.421491 4.17548193,212.331778 L3.96740021,211.789627 L3.96740021,211.789627 L3.76446331,211.239266 L3.76446331,211.239266 L3.56668508,210.679997 L3.56668508,210.679997 L3.3740794,210.111123 C3.34241027,210.015472 3.31095723,209.919391 3.27972059,209.822866 L3.0948997,209.238277 C3.00378991,208.943203 2.91463281,208.643873 2.8274362,208.339895 L2.6556593,207.725625 C2.26095663,206.277323 1.90906242,204.722094 1.60076914,203.020059 L1.4713152,202.281511 C1.38679528,201.782998 1.30584386,201.272036 1.22847943,200.747695 L1.11512533,199.951032 C1.09668213,199.816544 1.07846368,199.68119 1.06047029,199.544957 L0.955212901,198.716883 L0.955212901,198.716883 L0.855370639,197.866995 L0.855370639,197.866995 L0.760957371,196.994597 C0.730392655,196.699968 0.700735081,196.401471 0.67198696,196.09899 L0.588473268,195.179477 C0.561546364,194.868911 0.535531224,194.554245 0.510430158,194.235361 L0.437871491,193.265944 L0.437871491,193.265944 L0.370811129,192.270528 L0.370811129,192.270528 L0.309262937,191.248415 L0.309262937,191.248415 L0.253240775,190.198909 C0.244365021,190.02167 0.235720096,189.84326 0.227306288,189.663665 L0.179599164,188.57176 L0.179599164,188.57176 L0.137452728,187.450717 L0.137452728,187.450717 L0.10088084,186.299838 L0.10088084,186.299838 L0.069897364,185.118426 L0.069897364,185.118426 L0.0445161619,183.905784 L0.0445161619,183.905784 L0.0247510962,182.661213 C0.0219257,182.451085 0.0193348872,182.239598 0.0169789464,182.026736 L0.00566407705,180.732965 L0.00566407705,180.732965 L0,179.405521 L0,179.405521 L0,64.594479 L0,64.594479 L0.00566407706,63.2670352 L0.00566407706,63.2670352 L0.0169789464,61.9732638 L0.0169789464,61.9732638 L0.0339307456,60.7124671 L0.0339307456,60.7124671 L0.0565056123,59.4839475 C0.0607359089,59.2818452 0.0651999224,59.0810588 0.069897364,58.8815737 L0.10088084,57.7001618 L0.10088084,57.7001618 L0.137452728,56.5492831 L0.137452728,56.5492831 L0.179599164,55.42824 L0.179599164,55.42824 L0.227306288,54.3363347 L0.227306288,54.3363347 L0.280560236,53.2728699 C0.289897359,53.097957 0.299465022,52.9242001 0.309262937,52.7515846 L0.370811129,51.7294722 L0.370811129,51.7294722 L0.437871491,50.7340562 L0.437871491,50.7340562 L0.510430158,49.7646389 C0.522980691,49.6051971 0.535759743,49.4468096 0.548767024,49.2894618 L0.629547158,48.3577346 C0.643466203,48.2044873 0.6576129,48.0522507 0.67198696,47.9010101 L0.760957371,47.0054034 L0.760957371,47.0054034 L0.855370639,46.1330051 L0.855370639,46.1330051 L0.955212901,45.2831175 L0.955212901,45.2831175 L1.06047029,44.455043 C1.07846368,44.3188096 1.09668213,44.183456 1.11512533,44.0489677 L1.22847943,43.2523049 C1.30584386,42.7279636 1.38679528,42.2170018 1.4713152,41.7184892 L1.60076914,40.979941 C1.90906242,39.2779056 2.26095663,37.7226769 2.6556593,36.2743755 L2.8274362,35.6601051 C2.91463281,35.356127 3.00378991,35.0567971 3.0948997,34.7617232 L3.27972059,34.1771337 C3.31095723,34.0806091 3.34241027,33.9845284 3.3740794,33.8888769 L3.56668508,33.320003 C3.59921746,33.2260105 3.63196536,33.1324182 3.6649285,33.0392116 L3.86528779,32.4844839 C3.89911071,32.3927619 3.93314828,32.3013965 3.96740021,32.2103731 L4.17548193,31.6682219 C4.21059018,31.5785087 4.24591223,31.4891086 4.28144777,31.400007 L4.49722072,30.8688626 L4.49722072,30.8688626 L4.71810383,30.3441841 L4.71810383,30.3441841 L4.94408323,29.825274 C4.98217039,29.7392309 5.02046931,29.6533991 5.05897972,29.5677641 L5.29257758,29.0561984 L5.29257758,29.0561984 L5.53123708,28.5486571 L5.53123708,28.5486571 L5.77494436,28.0444425 L5.77494436,28.0444425 L6.02368555,27.542857 L6.02368555,27.542857 L6.2774468,27.043203 L6.2774468,27.043203 L6.53621425,26.5447829 L6.53621425,26.5447829 L6.79997402,26.0468992 L6.79997402,26.0468992 C11.2374959,17.7494305 17.749379,11.2375286 26.0468235,6.79999377 L26.5447058,6.53623323 L26.5447058,6.53623323 L27.0431244,6.27746504 L27.0431244,6.27746504 L27.542777,6.02370305 L27.542777,6.02370305 L28.044361,5.77496113 L28.044361,5.77496113 L28.5485742,5.53125314 L28.5485742,5.53125314 L29.056114,5.29259295 L29.056114,5.29259295 L29.5676782,5.05899441 L29.5676782,5.05899441 L30.0839643,4.83047139 L30.0839643,4.83047139 L30.6056698,4.60703775 C30.8679938,4.49659558 31.1326116,4.38806714 31.3999158,4.2814602 L31.9382221,4.07081066 C32.0285755,4.03613018 32.1192565,4.00166377 32.2102796,3.96741174 L32.7606392,3.76447424 L32.7606392,3.76447424 L33.3199063,3.56669544 L33.3199063,3.56669544 L33.8887784,3.3740892 C33.9844297,3.34241997 34.0805101,3.31096685 34.1770344,3.27973011 L34.7616223,3.09490869 L34.7616223,3.09490869 L35.3575592,2.91529448 C35.5581739,2.85629249 35.7607963,2.79816067 35.9655428,2.74090135 L36.5862707,2.57174315 C38.1546021,2.15540287 39.8489513,1.78827008 41.718368,1.47131947 L42.4755879,1.34721792 C42.8589826,1.28650765 43.2496416,1.22780986 43.6479573,1.17113236 L44.4549139,1.06047337 L44.4549139,1.06047337 L45.282986,0.955215675 C45.5626067,0.92103153 45.845863,0.887749909 46.1328711,0.855373123 L47.0052669,0.760959582 C47.1525809,0.745677179 47.3008618,0.730621563 47.4501243,0.715793021 L48.3575941,0.629548987 L48.3575941,0.629548987 L49.2893186,0.548768618 L49.2893186,0.548768618 L50.2459953,0.473465777 L50.2459953,0.473465777 L51.228322,0.403654328 C51.3942193,0.392477472 51.5612145,0.381530002 51.729322,0.370812206 L52.7514313,0.309263835 L52.7514313,0.309263835 L53.8009346,0.253241511 L53.8009346,0.253241511 L54.8785293,0.202759096 L54.8785293,0.202759096 L55.9849131,0.157830452 C56.1717482,0.150805929 56.359812,0.144013391 56.5491189,0.137453127 L57.6999942,0.100881133 C57.8943318,0.095251118 58.0899416,0.0898539541 58.2868382,0.0846899301 L59.4837747,0.0565057764 L59.4837747,0.0565057764 L60.7122907,0.0339308441 L60.7122907,0.0339308441 L61.9730838,0.0169789957 C62.1859444,0.0146230481 62.4001791,0.0125019732 62.6158022,0.0106160599 Z"/>
    <circle cx="121.5" cy="122.5" r="84.5" stroke="#D0623E" stroke-width="2"/>
    <circle cx="119.5" cy="122.5" r="73" transform="matrix(1 0 0 -1 0 245)"/>
    <path fill="#E06841" stroke="#C95E3C" stroke-width="3" d="M41.7054221,149.353877 L144.540983,131.221193 L144.540983,131.221193 L160.748189,150.702811 L45.525682,171.019648 C39.5428446,172.074583 33.8376024,168.07973 32.7826667,162.096892 C31.7277311,156.114055 35.7225847,150.408813 41.7054221,149.353877 Z" transform="rotate(10 95.81 152.075)"/>
    <path fill="#E06841" stroke="#C95E3C" stroke-width="3" d="M139.849377,49.7523792 L106.799568,141.794224 L106.799568,141.794224 L81.7681615,146.116111 L119.589548,42.3785099 C121.624223,36.7977429 127.796458,33.9216284 133.378332,35.9532644 C138.966381,37.9871479 141.859043,44.1555748 139.849377,49.7523792 Z" transform="rotate(10 112.626 89.196)"/>
    <path fill="#E06841" stroke="#C95E3C" stroke-width="3" d="M186.268067,189.039243 L115.466242,104.489732 L115.466242,104.489732 L123.836899,81.491541 L202.723785,175.231263 C206.542447,179.768903 205.9596,186.543022 201.42196,190.361683 C201.418023,190.364997 201.414084,190.368307 201.410142,190.371615 C196.865019,194.185426 190.088764,193.59258 186.274953,189.047458 C186.272657,189.04472 186.270361,189.041982 186.268067,189.039243 Z" transform="rotate(10 162.557 139.388)"/>
    <path fill="#E06841" stroke="#C95E3C" stroke-width="3" d="M202.960611,160.241831 L186.492793,163.069914 L186.492793,163.069914 L170.623365,143.853167 L199.158247,138.677424 C205.10663,137.598488 210.803396,141.545954 211.882332,147.494337 C211.885523,147.511926 211.88867,147.529523 211.891774,147.547128 C212.942017,153.503353 208.964933,159.183218 203.008708,160.233461 C202.992682,160.236287 202.97665,160.239077 202.960611,160.241831 Z" transform="rotate(10 192.213 149.892)"/>
    <path fill="#E06841" stroke="#C95E3C" stroke-width="3" d="M48.7216055,185.46859 L56.9255706,163.183608 L56.9255706,163.183608 L81.3161204,158.562885 L68.8861189,192.8078 C66.8615035,198.385658 60.6984812,201.26613 55.1206233,199.241515 C55.1176597,199.240439 55.1146967,199.239362 55.1117341,199.238284 C49.5512275,197.214425 46.6842081,191.066082 48.708067,185.505575 C48.7125572,185.493239 48.71707,185.48091 48.7216055,185.46859 Z" transform="rotate(10 63.161 180.74)"/>
    <path fill="#E06841" stroke="#C95E3C" stroke-width="3" d="M114.382756,42.4406411 L121.687897,51.3177754 L121.687897,51.3177754 L113.31724,74.3159669 L98.0098595,56.1797178 C94.19017,51.6541336 94.7624107,44.8889525 99.2879949,41.069263 C99.2958646,41.0626208 99.3037439,41.05599 99.3116327,41.0493705 C103.817948,37.2681232 110.536345,37.8559067 114.317592,42.3622218 C114.339438,42.3882574 114.36116,42.4143975 114.382756,42.4406411 Z" transform="rotate(10 106.38 54.226)"/>
  </g>
</svg>
