<svg xmlns="http://www.w3.org/2000/svg" width="282.663" height="282.663" viewBox="0 0 282.663 282.663">
  <g fill="none" fill-rule="evenodd">
    <circle cx="141.332" cy="141.332" r="103" stroke="#1C1C1C" stroke-width="2" transform="rotate(-10 141.332 141.332)"/>
    <path stroke="#1C1C1C" stroke-width="3" d="M198.730223,20.8316099 L200.054344,20.8372561 C200.271618,20.8386641 200.487496,20.8403062 200.698513,20.8421477 L200.698513,20.8421477 L201.968487,20.8561856 L203.205484,20.8758114 L204.4142,20.9011054 C204.612338,20.9057711 204.809183,20.9106687 205.000641,20.9156845 L205.000641,20.9156845 L206.162487,20.9493361 C206.35285,20.9553857 206.541965,20.9616659 206.725442,20.9680177 L206.725442,20.9680177 L207.837361,21.0097935 L208.924541,21.0572871 C209.102516,21.065625 209.279317,21.074192 209.450024,21.0827326 L209.450024,21.0827326 L210.494423,21.1384824 L211.506098,21.1994024 L212.489185,21.2656326 L213.919406,21.3754253 L214.837578,21.4550307 L215.730798,21.5399205 L217.034919,21.6781091 C217.315523,21.7097789 217.59244,21.7423223 217.858783,21.7748661 L217.858783,21.7748661 L218.679546,21.8791947 L219.471647,21.9877972 C219.862049,22.0433488 220.244948,22.1008778 220.612727,22.1590932 L220.612727,22.1590932 L221.361807,22.2818378 C223.182334,22.5904993 224.83245,22.9476969 226.350253,23.3505901 L226.350253,23.3505901 L226.961383,23.5170985 C227.159649,23.5725453 227.355857,23.6288365 227.540492,23.6831037 L227.540492,23.6831037 L228.126753,23.8598016 L228.689652,24.0377657 L229.522812,24.3167065 L230.060725,24.5069338 L230.592435,24.7029946 L231.116141,24.9039643 C231.376278,25.0057667 231.633692,25.1094297 231.88013,25.2113413 L231.88013,25.2113413 L232.394278,25.4277926 L233.15017,25.7596577 L233.644099,25.9852035 L234.136792,26.2168823 L234.626944,26.4537937 L235.113773,26.6952184 L235.847561,27.0699847 L236.333063,27.3246617 C244.606046,31.7497454 250.911963,38.0525929 255.205451,46.0807166 L255.205451,46.0807166 L255.466296,46.5730979 L255.719103,47.0600385 L255.966582,47.5473215 L256.20876,48.0356731 L256.445671,48.5258263 L256.677349,49.0185208 L256.902894,49.5124516 L257.234758,50.2683455 L257.447545,50.7737912 L257.656144,51.2872774 L257.859729,51.8074478 C257.926736,51.9820216 257.992915,52.1578611 258.05483,52.3256663 L258.05483,52.3256663 L258.250909,52.8685457 L258.532762,53.6919291 L258.804993,54.5430521 C258.892399,54.8262992 258.977922,55.1135209 259.058899,55.3956964 L259.058899,55.3956964 L259.228037,56.0004066 C259.612077,57.4095861 259.954199,58.9228614 260.252671,60.5705388 L260.252671,60.5705388 L260.380705,61.3008508 C260.463473,61.789031 260.54274,62.2894035 260.617393,62.7952295 L260.617393,62.7952295 L260.729428,63.5826237 L260.886989,64.7986276 L260.984989,65.632834 L261.077956,66.4918665 L261.16565,67.3746259 L261.248048,68.2817142 C261.274637,68.5883793 261.300325,68.8990935 261.324669,69.2082208 L261.324669,69.2082208 L261.396811,70.172073 L261.463137,71.1565904 L261.524057,72.1682735 L261.579551,73.2077371 C261.588347,73.3833782 261.596914,73.5601792 261.605038,73.7334333 L261.605038,73.7334333 L261.652375,74.8162173 L261.694219,75.9285487 L261.73055,77.0711105 L261.761346,78.2445861 L261.786588,79.4496583 L261.806299,80.690578 C261.809109,80.8995248 261.811685,81.1098234 261.813993,81.3180053 L261.813993,81.3180053 L261.825258,82.6034287 L261.831624,84.6026695 L261.831627,198.057416 L261.828804,199.398718 C261.827864,199.618841 261.82669,199.837553 261.825308,200.05147 L261.825308,200.05147 L261.814072,201.338194 L261.797237,202.591598 L261.774738,203.816286 C261.770535,204.017072 261.7661,204.216551 261.761533,204.410725 L261.761533,204.410725 L261.730791,205.58382 L261.694521,206.725987 L261.652745,207.837909 L261.605486,208.920269 L261.552487,209.978795 C261.543241,210.152015 261.533766,210.324089 261.524364,210.489877 L261.524364,210.489877 L261.463137,211.506657 L261.396811,212.491174 L261.325214,213.447744 L261.207517,214.838206 C261.166349,215.291456 261.123164,215.735739 261.078665,216.164828 L261.078665,216.164828 L260.984989,217.030413 L260.886777,217.866424 L260.783586,218.678241 L260.617662,219.866054 C260.542155,220.377536 260.463173,220.875987 260.382125,221.35416 L260.382125,221.35416 L260.254163,222.084335 C259.954199,223.740386 259.612077,225.253661 259.230676,226.65328 L259.230676,226.65328 L259.061627,227.257921 C258.977239,227.552106 258.890956,227.841794 258.805791,228.117728 L258.805791,228.117728 L258.624781,228.690263 L258.345841,229.523426 L258.155615,230.061341 L257.959569,230.593013 L257.759386,231.114585 L257.447468,231.889545 L257.12507,232.648829 L256.791147,233.397317 L256.444763,234.139298 L256.20876,234.627574 L255.966582,235.115926 L255.719103,235.603209 L255.466288,236.090163 L255.20822,236.577328 C250.912566,244.609527 244.608867,250.913244 236.581894,255.206141 L236.581894,255.206141 L236.089514,255.466987 L235.602575,255.719795 L235.115294,255.967274 L234.626944,256.209453 L234.13867,256.445457 L233.39669,256.791842 L232.646081,257.126713 L232.14328,257.34205 L231.632902,257.553165 L231.118501,257.758308 L230.325283,258.059747 L229.791697,258.252471 L229.249181,258.440236 L228.403609,258.717 C228.217474,258.775816 228.029729,258.833778 227.849572,258.888115 L227.849572,258.888115 L227.257314,259.062328 C225.878615,259.457812 224.401473,259.811545 222.79585,260.121632 L222.79585,260.121632 L222.083743,260.254867 C221.489004,260.362594 220.875941,260.464868 220.250556,260.560509 L220.250556,260.560509 L219.473443,260.675165 L218.275358,260.836407 L217.029761,260.985685 L215.730798,261.123327 L214.837578,261.208216 L213.91796,261.287947 L212.972899,261.362336 L212.0017,261.431356 L211.003753,261.494988 C210.835115,261.505143 210.665361,261.515071 210.499528,261.524492 L210.499528,261.524492 L209.459786,261.580025 L208.391523,261.6301 L207.294054,261.674693 L206.162487,261.713911 C205.972073,261.719962 205.78041,261.725782 205.591595,261.731258 L205.591595,261.731258 L204.418123,261.762054 L203.213055,261.787296 L201.972138,261.807008 C201.763192,261.809817 201.552894,261.812394 201.344713,261.814702 L201.344713,261.814702 L200.057663,261.825973 L198.736624,261.831624 L83.9323153,261.831637 L82.611593,261.826017 L81.3248736,261.81478 L80.0714733,261.797946 L78.8467888,261.775446 C78.6460029,261.771243 78.4465242,261.766809 78.2523516,261.762242 L78.2523516,261.762242 L77.07926,261.731499 L75.9326924,261.69507 C75.744864,261.688561 75.558269,261.681822 75.3773993,261.675028 L75.3773993,261.675028 L74.2803468,261.630508 L73.2125141,261.580515 L72.1681081,261.524764 L71.1563851,261.463851 L69.6896397,261.362336 L68.7445786,261.287947 L67.8249606,261.208216 L66.9300963,261.12317 L66.061003,261.033014 L64.7967691,260.887471 L63.5843969,260.73038 L62.4139793,260.560793 C61.7828682,260.464245 61.1717515,260.362271 60.5872584,260.256425 L60.5872584,260.256425 L59.8752855,260.123266 C58.2610655,259.811545 56.7839236,259.457812 55.4148392,259.06512 L55.4148392,259.06512 L54.8226362,258.890994 C54.6305003,258.833082 54.44025,258.774329 54.2613959,258.717816 L54.2613959,258.717816 L53.6942423,258.534286 L52.8684523,258.251608 L52.3349466,258.058913 L51.8095666,257.861223 L51.0273824,257.552233 L50.5192582,257.34205 L50.0144402,257.125849 L49.5144199,256.904526 L49.0202756,256.678882 L48.2785692,256.327669 L47.7912405,256.089024 L47.3049808,255.844935 L46.571547,255.466205 L46.085847,255.208911 C38.0536712,250.913244 31.7499728,244.609527 27.4570875,236.58253 L27.4570875,236.58253 L27.1962428,236.090149 L26.9434352,235.603209 L26.6959568,235.115926 L26.4537785,234.627574 L26.2168676,234.137421 L25.9851895,233.644726 L25.7596443,233.150795 L25.4259352,232.390699 C25.3547992,232.224541 25.2845077,232.057579 25.2185482,231.898205 L25.2185482,231.898205 L25.0073365,231.378289 L24.7021267,230.590728 L24.5069238,230.061341 L24.3158487,229.521027 L24.1305416,228.97371 L23.857545,228.120195 C23.7701394,227.836948 23.6846162,227.549726 23.6036393,227.267551 L23.6036393,227.267551 L23.4345018,226.66284 C23.0504609,225.253661 22.7083395,223.740386 22.4098677,222.092708 L22.4098677,222.092708 L22.2818337,221.362396 C22.1990656,220.874216 22.1197984,220.373844 22.0451457,219.868018 L22.0451457,219.868018 L21.9331104,219.080623 L21.7755492,217.864619 L21.6775476,217.0304 L21.584574,216.171441 C21.5544481,215.881042 21.5252169,215.58683 21.4974618,215.294936 L21.4974618,215.294936 L21.4144904,214.381533 C21.3879017,214.074868 21.3622139,213.764154 21.3378696,213.455026 L21.3378696,213.455026 L21.2657275,212.491174 L21.1994014,211.506657 L21.1384812,210.494974 L21.082987,209.45551 C21.0741913,209.279869 21.0656244,209.103068 21.0575002,208.929814 L21.0575002,208.929814 L21.0101638,207.84703 L20.9683195,206.734698 L20.9319888,205.592137 L20.9011925,204.418661 L20.8759506,203.213589 L20.8562391,201.972669 C20.8534295,201.763722 20.8508533,201.553424 20.8485451,201.345242 L20.8485451,201.345242 L20.837274,200.058188 L20.8316235,198.737145 L20.8316099,83.9325028 L20.8372303,82.6117767 L20.8484669,81.3250534 L20.8653011,80.0716494 L20.8878007,78.8469614 C20.8920034,78.6461749 20.8964383,78.4466956 20.9010053,78.2525224 L20.9010053,78.2525224 L20.9317476,77.0794273 L20.9680173,75.9372604 L21.009793,74.8253385 L21.0570527,73.7429781 L21.1100511,72.6844519 C21.1192979,72.5112325 21.1287728,72.3391578 21.1381743,72.1733698 L21.1381743,72.1733698 L21.1994014,71.1565904 L21.2657275,70.172073 L21.3373235,69.2155176 L21.4550383,67.8251746 L21.5847556,66.4902655 L21.6775491,65.632834 L21.7757611,64.7968235 L21.8789521,63.9850057 L22.0448763,62.7971934 C22.1203834,62.285711 22.1993658,61.78726 22.2804137,61.309087 L22.2804137,61.309087 L22.4083754,60.5789125 C22.7083395,58.9228614 23.0504609,57.4095861 23.4318624,56.0099667 L23.4318624,56.0099667 L23.6009117,55.4053261 C23.6852992,55.1111408 23.7715825,54.8214535 23.8567471,54.5455191 L23.8567471,54.5455191 L24.037757,53.9729837 L24.3159045,53.1421882 L24.6043866,52.3349877 L24.9040788,51.5463609 L25.2159307,50.7715657 L25.4286467,50.2662872 L25.6465437,49.7659363 L25.9861148,49.016553 L26.2168676,48.5258263 L26.4537785,48.0356731 L26.6959568,47.5473215 L26.9434352,47.0600385 L27.19625,46.573084 L27.4543182,46.0859194 C31.7499728,38.0537203 38.0536712,31.7500033 46.0806442,27.4571056 L46.0806442,27.4571056 L46.5730239,27.1962601 L47.0599631,26.9434518 L47.5472447,26.6959728 L48.0355947,26.4537937 L48.5257464,26.2168823 L49.0184394,25.9852035 L49.5144199,25.758721 L50.0144752,25.5373822 L50.519334,25.3211332 C50.7729489,25.2143577 51.0287811,25.1094314 51.2781562,25.0099409 L51.2781562,25.0099409 L51.8049813,24.8037842 L52.6041432,24.5061099 L53.1421258,24.3158582 L53.6894409,24.1305506 L54.5382341,23.8590628 L55.1124169,23.6859708 C55.3066812,23.6288365 55.5028899,23.5725453 55.6915577,23.5197483 L55.6915577,23.5197483 L56.3027642,23.3531512 C57.8300889,22.9476969 59.4802047,22.5904993 61.2925916,22.2831948 L61.2925916,22.2831948 L62.0418124,22.160382 C62.4175905,22.1008778 62.800489,22.0433488 63.1833706,21.988848 L63.1833706,21.988848 L63.9830254,21.8791903 L64.7966321,21.7757542 C65.0716871,21.7421282 65.3503183,21.7093907 65.6258872,21.6782889 L65.6258872,21.6782889 L66.4901299,21.5847577 L67.8265418,21.4548936 L68.7445786,21.3753 L69.6896474,21.3009108 L70.6607751,21.2318852 L72.1681379,21.138481 L73.2027521,21.0832218 L74.2710155,21.0331474 L75.372893,20.9883949 C75.558269,20.9814253 75.744864,20.9746858 75.9283847,20.9683199 L75.9283847,20.9683199 L77.075055,20.9318756 L77.075055,20.9318756 L77.6537723,20.9158978 L78.8429573,20.8878761 L80.0640805,20.8654188 L81.3213083,20.8485107 C81.5330158,20.8461675 81.7460898,20.8440579 81.9554742,20.842218 L81.9554742,20.842218 L83.9259149,20.8316235 L198.730223,20.8316099 Z" transform="rotate(-10 141.332 141.332)"/>
    <circle cx="140.926" cy="141.911" r="84.5" stroke="#1C1C1C" stroke-width="2" transform="rotate(-10 140.926 141.91)"/>
    <path fill="#0F0F0F" stroke="#313131" stroke-width="2" d="M67.7624191,163.405901 L172.184384,163.405901 L172.184384,163.405901 L184.762419,185.405901 L67.7624191,185.405901 C61.6872869,185.405901 56.7624191,180.481033 56.7624191,174.405901 C56.7624191,168.330769 61.6872869,163.405901 67.7624191,163.405901 Z" transform="rotate(-10 120.762 174.406)"/>
    <path fill="#0F0F0F" stroke="#313131" stroke-width="2" d="M76.7926011,103.813551 L174.587344,103.390049 L174.587344,103.390049 L187.209834,125.433704 L76.7927003,125.373576 C70.8525947,125.370341 66.0389025,120.554026 66.0389025,114.61392 C66.0389025,108.667242 70.8459792,103.839303 76.7926011,103.813551 Z" transform="rotate(110 126.624 114.412)"/>
    <path fill="#0F0F0F" stroke="#313131" stroke-width="2" d="M124.431532,140.607929 L234.710751,140.717962 L234.710751,140.717962 L246.947833,161.913209 L124.431526,162.089338 C118.500905,162.097864 113.686275,157.297057 113.677749,151.366436 C113.677742,151.36129 113.677738,151.356144 113.677738,151.350998 C113.677738,145.417762 118.487576,140.607923 124.420813,140.607923 C124.424386,140.607923 124.427959,140.607925 124.431532,140.607929 Z" transform="rotate(-130 180.313 151.351)"/>
    <path fill="#0F0F0F" stroke="#313131" stroke-width="2" d="M206.303854,146.784714 L223.01258,146.859203 L223.01258,146.859203 L235.303963,168.539701 L206.303831,168.681784 C200.258463,168.711402 195.333713,163.834673 195.304095,157.789305 C195.304007,157.771429 195.303963,157.753552 195.303963,157.735676 C195.303963,151.687567 200.206925,146.784606 206.255034,146.784606 C206.271307,146.784606 206.287581,146.784642 206.303854,146.784714 Z" transform="rotate(170 215.304 157.736)"/>
    <path fill="#0F0F0F" stroke="#313131" stroke-width="2" d="M80.7676757,195.010882 L104.51463,195.098174 L104.51463,195.098174 L117.198749,216.437414 L80.7677442,216.469484 C74.833813,216.474707 70.0191767,211.66854 70.0139531,205.734609 C70.0139504,205.731456 70.013949,205.728304 70.013949,205.725151 C70.013949,199.807783 74.8109231,195.010809 80.7282906,195.010809 C80.741419,195.010809 80.7545474,195.010833 80.7676757,195.010882 Z" transform="rotate(-70 93.606 205.725)"/>
    <path fill="#0F0F0F" stroke="#313131" stroke-width="2" d="M111.705632,66.681037 L123.201565,66.7910865 L123.201565,66.7910865 L135.438647,87.9863343 L111.70608,88.054712 C105.784032,88.0717744 100.969432,83.2848381 100.952369,77.3627903 C100.95234,77.3524923 100.952325,77.3421942 100.952325,77.331896 C100.952325,71.4493195 105.721095,66.680549 111.603672,66.680549 C111.637659,66.680549 111.671646,66.6807117 111.705632,66.681037 Z" transform="rotate(50 118.195 77.332)"/>
  </g>
</svg>
