<svg xmlns="http://www.w3.org/2000/svg" width="261.625" height="606.776" viewBox="0 0 261.625 606.776">
  <g fill="none" fill-rule="evenodd">
    <path stroke="#1C1C1C" stroke-width="2" d="M100.720096,404.487075 L100.720096,427.487075 L86.7807021,427.487075 L86.7807021,404.487075 L100.720096,404.487075 Z" transform="scale(-1 1) rotate(-10 0 1487.559)"/>
    <path fill="#0F0F0F" stroke="#313131" stroke-width="2" d="M80.7763641,24.9127665 L63.4471302,24.9127665 C53.2895462,24.9127665 45.0551974,33.1255648 45.0551974,43.256565 L45.0551974,378.948078 C45.0551974,389.079078 53.2895462,397.291877 63.4471302,397.291877 L199.087635,397.291877 C209.245219,397.291877 217.479568,389.079078 217.479568,378.948078 L217.479568,43.256565 C217.479568,33.1255648 209.245219,24.9127665 199.087635,24.9127665 L180.996215,24.9127665 C180.121376,25.1264914 179.409528,25.8760738 179.102379,26.7250565 C179.08787,26.7651598 179.080482,26.8075239 179.080554,26.8502085 C179.082543,28.0329641 179.083537,28.6263226 179.083537,28.6302843 C179.083537,34.5330284 174.334403,39.3181479 168.47605,39.3181479 L93.3372746,39.3181479 C87.4789213,39.3181479 82.7297877,34.5330284 82.7298029,28.6121515 L82.7328729,26.7889135 C82.7270177,26.7650199 82.7206609,26.7437343 82.7138027,26.7250565 C82.4042964,25.8821487 81.6470022,25.1254651 80.7763641,24.9127665 Z M70.5354648,14.0271409 L191.089409,14.0271409 C204.220704,14.0271409 208.982429,15.3885105 213.783035,17.944878 C218.58364,20.5012455 222.351183,24.252611 224.918575,29.0326026 C227.485967,33.8125943 228.853207,38.5538726 228.853207,51.6287826 L228.853207,371.029428 C228.853207,384.104338 227.485967,388.845617 224.918575,393.625608 C222.351183,398.4056 218.58364,402.156965 213.783035,404.713333 C208.982429,407.2697 204.220704,408.63107 191.089409,408.63107 L70.5354648,408.63107 C57.4041696,408.63107 52.6424447,407.2697 47.8418394,404.713333 C43.0412341,402.156965 39.273691,398.4056 36.7062993,393.625608 C34.1389075,388.845617 32.771667,384.104338 32.771667,371.029428 L32.771667,51.6287826 C32.771667,38.5538726 34.1389075,33.8125943 36.7062993,29.0326026 C39.273691,24.252611 43.0412341,20.5012455 47.8418394,17.944878 C52.6424447,15.3885105 57.4041696,14.0271409 70.5354648,14.0271409 Z" transform="scale(-1 1) rotate(-10 0 1706.522)"/>
    <path stroke="#1C1C1C" stroke-width="2" d="M167.009073,345.39678 C172.404883,345.39678 174.375494,345.921691 176.351867,346.975465 C178.25064,347.987865 179.740929,349.473419 180.756419,351.366468 C181.81298,353.336084 182.339068,355.300131 182.339068,360.677318 L182.339068,360.677318 L182.339068,371.658744 C182.339068,377.035931 181.81298,378.999978 180.756419,380.969594 C179.740929,382.862643 178.25064,384.348197 176.351867,385.360597 C174.375494,386.414371 172.404883,386.939282 167.009073,386.939282 L167.009073,386.939282 L38.1633856,386.939282 C32.7675751,386.939282 30.796964,386.414371 28.820591,385.360597 C26.9218184,384.348197 25.4315289,382.862643 24.4160396,380.969594 C23.3594779,378.999978 22.8333907,377.035931 22.8333907,371.658744 L22.8333907,371.658744 L22.8333907,360.677318 C22.8333907,355.300131 23.3594779,353.336084 24.4160396,351.366468 C25.4315289,349.473419 26.9218184,347.987865 28.820591,346.975465 C30.796964,345.921691 32.7675751,345.39678 38.1633856,345.39678 L38.1633856,345.39678 Z" transform="scale(-1 1) rotate(-10 0 1538.734)"/>
    <path stroke="#1C1C1C" stroke-width="2" d="M216.746274,75.9597754 C219.275898,75.9597754 220.20716,76.1871606 221.135698,76.6822442 C221.986635,77.1359522 222.654578,77.8016499 223.109679,78.6500376 C223.605852,79.5749913 223.83351,80.5028378 223.83351,83.0225182 L223.83351,83.0225182 L223.83351,95.9253676 C223.83351,98.445048 223.605852,99.3728945 223.109679,100.297848 C222.654578,101.146236 221.986635,101.811934 221.135698,102.265642 C220.20716,102.760725 219.275898,102.98811 216.746274,102.98811 L216.746274,102.98811 L203.804229,102.98811 C201.274605,102.98811 200.343343,102.760725 199.414805,102.265642 C198.563868,101.811934 197.895925,101.146236 197.440824,100.297848 C196.944651,99.3728945 196.716993,98.445048 196.716993,95.9253676 L196.716993,95.9253676 L196.716993,83.0225182 C196.716993,80.5028378 196.944651,79.5749913 197.440824,78.6500376 C197.895925,77.8016499 198.563868,77.1359522 199.414805,76.6822442 C200.343343,76.1871606 201.274605,75.9597754 203.804229,75.9597754 L203.804229,75.9597754 Z" transform="scale(-1 1) rotate(-10 0 2492.931)"/>
    <path stroke="#1C1C1C" stroke-width="2" d="M102.945658,55.8936563 C105.475281,55.8936563 106.406544,56.1210415 107.335081,56.6161251 C108.186019,57.0698331 108.853961,57.7355308 109.309062,58.5839185 C109.805236,59.5088722 110.032893,60.4367187 110.032893,62.9563991 L110.032893,62.9563991 L110.032893,75.8592485 C110.032893,78.3789289 109.805236,79.3067754 109.309062,80.2317291 C108.853961,81.0801168 108.186019,81.7458145 107.335081,82.1995225 C106.406544,82.6946061 105.475281,82.9219913 102.945658,82.9219913 L102.945658,82.9219913 L90.0036124,82.9219913 C87.4739889,82.9219913 86.5427265,82.6946061 85.6141886,82.1995225 C84.7632511,81.7458145 84.0953088,81.0801168 83.6402078,80.2317291 C83.1440344,79.3067754 82.9163768,78.3789289 82.9163768,75.8592485 L82.9163768,75.8592485 L82.9163768,62.9563991 C82.9163768,60.4367187 83.1440344,59.5088722 83.6402078,58.5839185 C84.0953088,57.7355308 84.7632511,57.0698331 85.6141886,56.6161251 C86.5427265,56.1210415 87.4739889,55.8936563 90.0036124,55.8936563 L90.0036124,55.8936563 Z" transform="scale(-1 1) rotate(-10 0 1172.118)"/>
    <path stroke="#1C1C1C" stroke-width="2" d="M141.028541,62.6086962 C143.558165,62.6086962 144.489427,62.8360814 145.417965,63.3311649 C146.268902,63.784873 146.936845,64.4505707 147.391946,65.2989583 C147.888119,66.2239121 148.115777,67.1517586 148.115777,69.671439 L148.115777,69.671439 L148.115777,82.5742883 C148.115777,85.0939688 147.888119,86.0218153 147.391946,86.946769 C146.936845,87.7951566 146.268902,88.4608543 145.417965,88.9145624 C144.489427,89.409646 143.558165,89.6370312 141.028541,89.6370312 L141.028541,89.6370312 L128.086496,89.6370312 C125.556872,89.6370312 124.62561,89.409646 123.697072,88.9145624 C122.846135,88.4608543 122.178192,87.7951566 121.723091,86.946769 C121.226918,86.0218153 120.99926,85.0939688 120.99926,82.5742883 L120.99926,82.5742883 L120.99926,69.671439 C120.99926,67.1517586 121.226918,66.2239121 121.723091,65.2989583 C122.178192,64.4505707 122.846135,63.784873 123.697072,63.3311649 C124.62561,62.8360814 125.556872,62.6086962 128.086496,62.6086962 L128.086496,62.6086962 Z" transform="scale(-1 1) rotate(-10 0 1614.122)"/>
    <path stroke="#1C1C1C" stroke-width="2" d="M178.663391,69.2447355 C181.193014,69.2447355 182.124277,69.4721208 183.052814,69.9672043 C183.903752,70.4209124 184.571694,71.0866101 185.026795,71.9349977 C185.522969,72.8599515 185.750626,73.787798 185.750626,76.3074784 L185.750626,76.3074784 L185.750626,89.2103277 C185.750626,91.7300081 185.522969,92.6578547 185.026795,93.5828084 C184.571694,94.431196 183.903752,95.0968937 183.052814,95.5506018 C182.124277,96.0456853 181.193014,96.2730706 178.663391,96.2730706 L178.663391,96.2730706 L165.721345,96.2730706 C163.191722,96.2730706 162.260459,96.0456853 161.331922,95.5506018 C160.480984,95.0968937 159.813042,94.431196 159.357941,93.5828084 C158.861767,92.6578547 158.63411,91.7300081 158.63411,89.2103277 L158.63411,89.2103277 L158.63411,76.3074784 C158.63411,73.787798 158.861767,72.8599515 159.357941,71.9349977 C159.813042,71.0866101 160.480984,70.4209124 161.331922,69.9672043 C162.260459,69.4721208 163.191722,69.2447355 165.721345,69.2447355 L165.721345,69.2447355 Z" transform="scale(-1 1) rotate(-10 0 2050.927)"/>
    <path stroke="#1C1C1C" stroke-width="2" d="M208.791392,121.074155 C211.321015,121.074155 212.252278,121.30154 213.180816,121.796623 C214.031753,122.250331 214.699695,122.916029 215.154796,123.764417 C215.65097,124.68937 215.878627,125.617217 215.878627,128.136897 L215.878627,128.136897 L215.878627,141.039747 C215.878627,143.559427 215.65097,144.487274 215.154796,145.412227 C214.699695,146.260615 214.031753,146.926313 213.180816,147.380021 C212.252278,147.875104 211.321015,148.10249 208.791392,148.10249 L208.791392,148.10249 L195.849347,148.10249 C193.319723,148.10249 192.388461,147.875104 191.459923,147.380021 C190.608985,146.926313 189.941043,146.260615 189.485942,145.412227 C188.989769,144.487274 188.762111,143.559427 188.762111,141.039747 L188.762111,141.039747 L188.762111,128.136897 C188.762111,125.617217 188.989769,124.68937 189.485942,123.764417 C189.941043,122.916029 190.608985,122.250331 191.459923,121.796623 C192.388461,121.30154 193.319723,121.074155 195.849347,121.074155 L195.849347,121.074155 Z" transform="scale(-1 1) rotate(-10 0 2447.12)"/>
    <path stroke="#1C1C1C" stroke-width="2" d="M94.9907754,101.008035 C97.5203988,101.008035 98.4516613,101.235421 99.3801992,101.730504 C100.231137,102.184212 100.899079,102.84991 101.35418,103.698298 C101.850353,104.623251 102.078011,105.551098 102.078011,108.070778 L102.078011,108.070778 L102.078011,120.973628 C102.078011,123.493308 101.850353,124.421155 101.35418,125.346108 C100.899079,126.194496 100.231137,126.860194 99.3801992,127.313902 C98.4516613,127.808985 97.5203988,128.03637 94.9907754,128.03637 L94.9907754,128.03637 L82.0487301,128.03637 C79.5191067,128.03637 78.5878442,127.808985 77.6593063,127.313902 C76.8083689,126.860194 76.1404265,126.194496 75.6853255,125.346108 C75.1891521,124.421155 74.9614946,123.493308 74.9614946,120.973628 L74.9614946,120.973628 L74.9614946,108.070778 C74.9614946,105.551098 75.1891521,104.623251 75.6853255,103.698298 C76.1404265,102.84991 76.8083689,102.184212 77.6593063,101.730504 C78.5878442,101.235421 79.5191067,101.008035 82.0487301,101.008035 L82.0487301,101.008035 Z" transform="scale(-1 1) rotate(-10 0 1126.308)"/>
    <path stroke="#1C1C1C" stroke-width="2" d="M133.073659,107.723075 C135.603282,107.723075 136.534545,107.950461 137.463083,108.445544 C138.31402,108.899252 138.981962,109.56495 139.437063,110.413338 C139.933237,111.338291 140.160894,112.266138 140.160894,114.785818 L140.160894,114.785818 L140.160894,127.688668 C140.160894,130.208348 139.933237,131.136194 139.437063,132.061148 C138.981962,132.909536 138.31402,133.575234 137.463083,134.028942 C136.534545,134.524025 135.603282,134.75141 133.073659,134.75141 L133.073659,134.75141 L120.131614,134.75141 C117.60199,134.75141 116.670728,134.524025 115.74219,134.028942 C114.891252,133.575234 114.22331,132.909536 113.768209,132.061148 C113.272036,131.136194 113.044378,130.208348 113.044378,127.688668 L113.044378,127.688668 L113.044378,114.785818 C113.044378,112.266138 113.272036,111.338291 113.768209,110.413338 C114.22331,109.56495 114.891252,108.899252 115.74219,108.445544 C116.670728,107.950461 117.60199,107.723075 120.131614,107.723075 L120.131614,107.723075 Z" transform="scale(-1 1) rotate(-10 0 1568.312)"/>
    <path stroke="#1C1C1C" stroke-width="2" d="M170.708508,114.359115 C173.238132,114.359115 174.169394,114.5865 175.097932,115.081583 C175.94887,115.535292 176.616812,116.200989 177.071913,117.049377 C177.568086,117.974331 177.795744,118.902177 177.795744,121.421858 L177.795744,121.421858 L177.795744,134.324707 C177.795744,136.844387 177.568086,137.772234 177.071913,138.697188 C176.616812,139.545575 175.94887,140.211273 175.097932,140.664981 C174.169394,141.160065 173.238132,141.38745 170.708508,141.38745 L170.708508,141.38745 L157.766463,141.38745 C155.23684,141.38745 154.305577,141.160065 153.377039,140.664981 C152.526102,140.211273 151.858159,139.545575 151.403059,138.697188 C150.906885,137.772234 150.679228,136.844387 150.679228,134.324707 L150.679228,134.324707 L150.679228,121.421858 C150.679228,118.902177 150.906885,117.974331 151.403059,117.049377 C151.858159,116.200989 152.526102,115.535292 153.377039,115.081583 C154.305577,114.5865 155.23684,114.359115 157.766463,114.359115 L157.766463,114.359115 Z" transform="scale(-1 1) rotate(-10 0 2005.116)"/>
    <path stroke="#1C1C1C" stroke-width="2" d="M200.83651,166.188534 C203.366133,166.188534 204.297395,166.415919 205.225933,166.911003 C206.076871,167.364711 206.744813,168.030408 207.199914,168.878796 C207.696088,169.80375 207.923745,170.731596 207.923745,173.251277 L207.923745,173.251277 L207.923745,186.154126 C207.923745,188.673806 207.696088,189.601653 207.199914,190.526607 C206.744813,191.374994 206.076871,192.040692 205.225933,192.4944 C204.297395,192.989484 203.366133,193.216869 200.83651,193.216869 L200.83651,193.216869 L187.894464,193.216869 C185.364841,193.216869 184.433578,192.989484 183.50504,192.4944 C182.654103,192.040692 181.986161,191.374994 181.53106,190.526607 C181.034886,189.601653 180.807229,188.673806 180.807229,186.154126 L180.807229,186.154126 L180.807229,173.251277 C180.807229,170.731596 181.034886,169.80375 181.53106,168.878796 C181.986161,168.030408 182.654103,167.364711 183.50504,166.911003 C184.433578,166.415919 185.364841,166.188534 187.894464,166.188534 L187.894464,166.188534 Z" transform="scale(-1 1) rotate(-10 0 2401.31)"/>
    <path stroke="#1C1C1C" stroke-width="2" d="M87.0358931,146.122415 C89.5655166,146.122415 90.496779,146.3498 91.4253169,146.844883 C92.2762544,147.298591 92.9441967,147.964289 93.3992977,148.812677 C93.8954711,149.737631 94.1231287,150.665477 94.1231287,153.185157 L94.1231287,153.185157 L94.1231287,166.088007 C94.1231287,168.607687 93.8954711,169.535534 93.3992977,170.460488 C92.9441967,171.308875 92.2762544,171.974573 91.4253169,172.428281 C90.496779,172.923364 89.5655166,173.15075 87.0358931,173.15075 L87.0358931,173.15075 L74.0938479,173.15075 C71.5642244,173.15075 70.6329619,172.923364 69.704424,172.428281 C68.8534866,171.974573 68.1855442,171.308875 67.7304432,170.460488 C67.2342699,169.535534 67.0066123,168.607687 67.0066123,166.088007 L67.0066123,166.088007 L67.0066123,153.185157 C67.0066123,150.665477 67.2342699,149.737631 67.7304432,148.812677 C68.1855442,147.964289 68.8534866,147.298591 69.704424,146.844883 C70.6329619,146.3498 71.5642244,146.122415 74.0938479,146.122415 L74.0938479,146.122415 Z" transform="scale(-1 1) rotate(-10 0 1080.497)"/>
    <path stroke="#1C1C1C" stroke-width="2" d="M125.118777,152.837455 C127.6484,152.837455 128.579662,153.06484 129.5082,153.559923 C130.359138,154.013631 131.02708,154.679329 131.482181,155.527717 C131.978355,156.45267 132.206012,157.380517 132.206012,159.900197 L132.206012,159.900197 L132.206012,172.803047 C132.206012,175.322727 131.978355,176.250574 131.482181,177.175527 C131.02708,178.023915 130.359138,178.689613 129.5082,179.143321 C128.579662,179.638404 127.6484,179.86579 125.118777,179.86579 L125.118777,179.86579 L112.176731,179.86579 C109.647108,179.86579 108.715845,179.638404 107.787307,179.143321 C106.93637,178.689613 106.268428,178.023915 105.813327,177.175527 C105.317153,176.250574 105.089496,175.322727 105.089496,172.803047 L105.089496,172.803047 L105.089496,159.900197 C105.089496,157.380517 105.317153,156.45267 105.813327,155.527717 C106.268428,154.679329 106.93637,154.013631 107.787307,153.559923 C108.715845,153.06484 109.647108,152.837455 112.176731,152.837455 L112.176731,152.837455 Z" transform="scale(-1 1) rotate(-10 0 1522.502)"/>
    <path stroke="#1C1C1C" stroke-width="2" d="M162.753626,159.473494 C165.28325,159.473494 166.214512,159.700879 167.14305,160.195963 C167.993987,160.649671 168.66193,161.315368 169.117031,162.163756 C169.613204,163.08871 169.840862,164.016556 169.840862,166.536237 L169.840862,166.536237 L169.840862,179.439086 C169.840862,181.958766 169.613204,182.886613 169.117031,183.811567 C168.66193,184.659954 167.993987,185.325652 167.14305,185.77936 C166.214512,186.274444 165.28325,186.501829 162.753626,186.501829 L162.753626,186.501829 L149.811581,186.501829 C147.281957,186.501829 146.350695,186.274444 145.422157,185.77936 C144.57122,185.325652 143.903277,184.659954 143.448176,183.811567 C142.952003,182.886613 142.724345,181.958766 142.724345,179.439086 L142.724345,179.439086 L142.724345,166.536237 C142.724345,164.016556 142.952003,163.08871 143.448176,162.163756 C143.903277,161.315368 144.57122,160.649671 145.422157,160.195963 C146.350695,159.700879 147.281957,159.473494 149.811581,159.473494 L149.811581,159.473494 Z" transform="scale(-1 1) rotate(-10 0 1959.306)"/>
    <path stroke="#1C1C1C" stroke-width="2" d="M192.960388,210.856236 C195.490012,210.856236 196.421274,211.083621 197.349812,211.578705 C198.20075,212.032413 198.868692,212.69811 199.323793,213.546498 C199.819966,214.471452 200.047624,215.399298 200.047624,217.918979 L200.047624,217.918979 L200.047624,230.821828 C200.047624,233.341509 199.819966,234.269355 199.323793,235.194309 C198.868692,236.042696 198.20075,236.708394 197.349812,237.162102 C196.421274,237.657186 195.490012,237.884571 192.960388,237.884571 L192.960388,237.884571 L180.018343,237.884571 C177.48872,237.884571 176.557457,237.657186 175.628919,237.162102 C174.777982,236.708394 174.11004,236.042696 173.654939,235.194309 C173.158765,234.269355 172.931108,233.341509 172.931108,230.821828 L172.931108,230.821828 L172.931108,217.918979 C172.931108,215.399298 173.158765,214.471452 173.654939,213.546498 C174.11004,212.69811 174.777982,212.032413 175.628919,211.578705 C176.557457,211.083621 177.48872,210.856236 180.018343,210.856236 L180.018343,210.856236 Z" transform="scale(-1 1) rotate(-10 0 2355.954)"/>
    <path stroke="#1C1C1C" stroke-width="2" d="M79.159772,190.790117 C81.6893955,190.790117 82.620658,191.017502 83.5491959,191.512586 C84.4001333,191.966294 85.0680757,192.631991 85.5231767,193.480379 C86.01935,194.405333 86.2470076,195.333179 86.2470076,197.85286 L86.2470076,197.85286 L86.2470076,210.755709 C86.2470076,213.275389 86.01935,214.203236 85.5231767,215.12819 C85.0680757,215.976577 84.4001333,216.642275 83.5491959,217.095983 C82.620658,217.591067 81.6893955,217.818452 79.159772,217.818452 L79.159772,217.818452 L66.2177268,217.818452 C63.6881033,217.818452 62.7568409,217.591067 61.828303,217.095983 C60.9773655,216.642275 60.3094232,215.976577 59.8543222,215.12819 C59.3581488,214.203236 59.1304912,213.275389 59.1304912,210.755709 L59.1304912,210.755709 L59.1304912,197.85286 C59.1304912,195.333179 59.3581488,194.405333 59.8543222,193.480379 C60.3094232,192.631991 60.9773655,191.966294 61.828303,191.512586 C62.7568409,191.017502 63.6881033,190.790117 66.2177268,190.790117 L66.2177268,190.790117 Z" transform="scale(-1 1) rotate(-10 0 1035.14)"/>
    <path stroke="#1C1C1C" stroke-width="2" d="M117.242655,197.505157 C119.772279,197.505157 120.703541,197.732542 121.632079,198.227625 C122.483017,198.681334 123.150959,199.347031 123.60606,200.195419 C124.102233,201.120373 124.329891,202.048219 124.329891,204.5679 L124.329891,204.5679 L124.329891,217.470749 C124.329891,219.990429 124.102233,220.918276 123.60606,221.84323 C123.150959,222.691617 122.483017,223.357315 121.632079,223.811023 C120.703541,224.306106 119.772279,224.533492 117.242655,224.533492 L117.242655,224.533492 L104.30061,224.533492 C101.770987,224.533492 100.839724,224.306106 99.9111864,223.811023 C99.060249,223.357315 98.3923066,222.691617 97.9372056,221.84323 C97.4410323,220.918276 97.2133747,219.990429 97.2133747,217.470749 L97.2133747,217.470749 L97.2133747,204.5679 C97.2133747,202.048219 97.4410323,201.120373 97.9372056,200.195419 C98.3923066,199.347031 99.060249,198.681334 99.9111864,198.227625 C100.839724,197.732542 101.770987,197.505157 104.30061,197.505157 L104.30061,197.505157 Z" transform="scale(-1 1) rotate(-10 0 1477.145)"/>
    <path stroke="#1C1C1C" stroke-width="2" d="M154.877505,204.141196 C157.407129,204.141196 158.338391,204.368581 159.266929,204.863665 C160.117866,205.317373 160.785809,205.983071 161.24091,206.831458 C161.737083,207.756412 161.964741,208.684258 161.964741,211.203939 L161.964741,211.203939 L161.964741,224.106788 C161.964741,226.626469 161.737083,227.554315 161.24091,228.479269 C160.785809,229.327657 160.117866,229.993354 159.266929,230.447062 C158.338391,230.942146 157.407129,231.169531 154.877505,231.169531 L154.877505,231.169531 L141.93546,231.169531 C139.405836,231.169531 138.474574,230.942146 137.546036,230.447062 C136.695099,229.993354 136.027156,229.327657 135.572055,228.479269 C135.075882,227.554315 134.848224,226.626469 134.848224,224.106788 L134.848224,224.106788 L134.848224,211.203939 C134.848224,208.684258 135.075882,207.756412 135.572055,206.831458 C136.027156,205.983071 136.695099,205.317373 137.546036,204.863665 C138.474574,204.368581 139.405836,204.141196 141.93546,204.141196 L141.93546,204.141196 Z" transform="scale(-1 1) rotate(-10 0 1913.95)"/>
    <path stroke="#1C1C1C" stroke-width="2" d="M185.005506,255.970615 C187.53513,255.970615 188.466392,256.198 189.39493,256.693084 C190.245868,257.146792 190.91381,257.81249 191.368911,258.660877 C191.865084,259.585831 192.092742,260.513678 192.092742,263.033358 L192.092742,263.033358 L192.092742,275.936207 C192.092742,278.455888 191.865084,279.383734 191.368911,280.308688 C190.91381,281.157076 190.245868,281.822773 189.39493,282.276481 C188.466392,282.771565 187.53513,282.99895 185.005506,282.99895 L185.005506,282.99895 L172.063461,282.99895 C169.533838,282.99895 168.602575,282.771565 167.674037,282.276481 C166.8231,281.822773 166.155157,281.157076 165.700056,280.308688 C165.203883,279.383734 164.976225,278.455888 164.976225,275.936207 L164.976225,275.936207 L164.976225,263.033358 C164.976225,260.513678 165.203883,259.585831 165.700056,258.660877 C166.155157,257.81249 166.8231,257.146792 167.674037,256.693084 C168.602575,256.198 169.533838,255.970615 172.063461,255.970615 L172.063461,255.970615 Z" transform="scale(-1 1) rotate(-10 0 2310.143)"/>
    <path stroke="#1C1C1C" stroke-width="2" d="M71.2048898,235.904496 C73.7345132,235.904496 74.6657757,236.131881 75.5943136,236.626965 C76.4452511,237.080673 77.1131934,237.746371 77.5682944,238.594758 C78.0644678,239.519712 78.2921254,240.447558 78.2921254,242.967239 L78.2921254,242.967239 L78.2921254,255.870088 C78.2921254,258.389769 78.0644678,259.317615 77.5682944,260.242569 C77.1131934,261.090956 76.4452511,261.756654 75.5943136,262.210362 C74.6657757,262.705446 73.7345132,262.932831 71.2048898,262.932831 L71.2048898,262.932831 L58.2628446,262.932831 C55.7332211,262.932831 54.8019586,262.705446 53.8734207,262.210362 C53.0224833,261.756654 52.3545409,261.090956 51.8994399,260.242569 C51.4032666,259.317615 51.175609,258.389769 51.175609,255.870088 L51.175609,255.870088 L51.175609,242.967239 C51.175609,240.447558 51.4032666,239.519712 51.8994399,238.594758 C52.3545409,237.746371 53.0224833,237.080673 53.8734207,236.626965 C54.8019586,236.131881 55.7332211,235.904496 58.2628446,235.904496 L58.2628446,235.904496 Z" transform="scale(-1 1) rotate(-10 0 989.33)"/>
    <path stroke="#1C1C1C" stroke-width="2" d="M109.287773,242.619536 C111.817397,242.619536 112.748659,242.846921 113.677197,243.342005 C114.528135,243.795713 115.196077,244.46141 115.651178,245.309798 C116.147351,246.234752 116.375009,247.162598 116.375009,249.682279 L116.375009,249.682279 L116.375009,262.585128 C116.375009,265.104808 116.147351,266.032655 115.651178,266.957609 C115.196077,267.805996 114.528135,268.471694 113.677197,268.925402 C112.748659,269.420486 111.817397,269.647871 109.287773,269.647871 L109.287773,269.647871 L96.345728,269.647871 C93.8161045,269.647871 92.8848421,269.420486 91.9563042,268.925402 C91.1053667,268.471694 90.4374244,267.805996 89.9823234,266.957609 C89.48615,266.032655 89.2584924,265.104808 89.2584924,262.585128 L89.2584924,262.585128 L89.2584924,249.682279 C89.2584924,247.162598 89.48615,246.234752 89.9823234,245.309798 C90.4374244,244.46141 91.1053667,243.795713 91.9563042,243.342005 C92.8848421,242.846921 93.8161045,242.619536 96.345728,242.619536 L96.345728,242.619536 Z" transform="scale(-1 1) rotate(-10 0 1431.335)"/>
    <path stroke="#1C1C1C" stroke-width="2" d="M146.922623,249.255575 C149.452246,249.255575 150.383509,249.48296 151.312047,249.978044 C152.162984,250.431752 152.830926,251.09745 153.286027,251.945837 C153.782201,252.870791 154.009858,253.798638 154.009858,256.318318 L154.009858,256.318318 L154.009858,269.221167 C154.009858,271.740848 153.782201,272.668694 153.286027,273.593648 C152.830926,274.442036 152.162984,275.107733 151.312047,275.561441 C150.383509,276.056525 149.452246,276.28391 146.922623,276.28391 L146.922623,276.28391 L133.980578,276.28391 C131.450954,276.28391 130.519692,276.056525 129.591154,275.561441 C128.740216,275.107733 128.072274,274.442036 127.617173,273.593648 C127.121,272.668694 126.893342,271.740848 126.893342,269.221167 L126.893342,269.221167 L126.893342,256.318318 C126.893342,253.798638 127.121,252.870791 127.617173,251.945837 C128.072274,251.09745 128.740216,250.431752 129.591154,249.978044 C130.519692,249.48296 131.450954,249.255575 133.980578,249.255575 L133.980578,249.255575 Z" transform="scale(-1 1) rotate(-10 0 1868.139)"/>
    <path stroke="#1C1C1C" stroke-width="2" d="M101.220427,287.714085 C103.75005,287.714085 104.681313,287.94147 105.609851,288.436553 C106.460788,288.890261 107.128731,289.555959 107.583832,290.404347 C108.080005,291.3293 108.307663,292.257147 108.307663,294.776827 L108.307663,294.776827 L108.307663,307.679677 C108.307663,310.199357 108.080005,311.127204 107.583832,312.052157 C107.128731,312.900545 106.460788,313.566243 105.609851,314.019951 C104.681313,314.515034 103.75005,314.74242 101.220427,314.74242 L101.220427,314.74242 L88.2783818,314.74242 C85.7487583,314.74242 84.8174958,314.515034 83.8889579,314.019951 C83.0380205,313.566243 82.3700781,312.900545 81.9149771,312.052157 C81.4188038,311.127204 81.1911462,310.199357 81.1911462,307.679677 L81.1911462,307.679677 L81.1911462,294.776827 C81.1911462,292.257147 81.4188038,291.3293 81.9149771,290.404347 C82.3700781,289.555959 83.0380205,288.890261 83.8889579,288.436553 C84.8174958,287.94147 85.7487583,287.714085 88.2783818,287.714085 L88.2783818,287.714085 Z" transform="scale(-1 1) rotate(-10 0 1384.219)"/>
    <path stroke="#1C1C1C" stroke-width="2" d="M63.1375435,280.999045 C65.667167,280.999045 66.5984295,281.22643 67.5269674,281.721513 C68.3779048,282.175222 69.0458472,282.840919 69.5009481,283.689307 C69.9971215,284.614261 70.2247791,285.542107 70.2247791,288.061788 L70.2247791,288.061788 L70.2247791,300.964637 C70.2247791,303.484317 69.9971215,304.412164 69.5009481,305.337118 C69.0458472,306.185505 68.3779048,306.851203 67.5269674,307.304911 C66.5984295,307.799995 65.667167,308.02738 63.1375435,308.02738 L63.1375435,308.02738 L50.1954983,308.02738 C47.6658748,308.02738 46.7346124,307.799995 45.8060745,307.304911 C44.955137,306.851203 44.2871946,306.185505 43.8320937,305.337118 C43.3359203,304.412164 43.1082627,303.484317 43.1082627,300.964637 L43.1082627,300.964637 L43.1082627,288.061788 C43.1082627,285.542107 43.3359203,284.614261 43.8320937,283.689307 C44.2871946,282.840919 44.955137,282.175222 45.8060745,281.721513 C46.7346124,281.22643 47.6658748,280.999045 50.1954983,280.999045 L50.1954983,280.999045 Z" transform="scale(-1 1) rotate(-10 0 942.215)"/>
    <path stroke="#1C1C1C" stroke-width="2" d="M166.181577,362.726423 C168.7112,362.726423 169.642463,362.953808 170.571001,363.448892 C171.421938,363.9026 172.089881,364.568298 172.544982,365.416685 C173.041155,366.341639 173.268812,367.269486 173.268812,369.789166 L173.268812,369.789166 L173.268812,382.692015 C173.268812,385.211696 173.041155,386.139542 172.544982,387.064496 C172.089881,387.912884 171.421938,388.578581 170.571001,389.032289 C169.642463,389.527373 168.7112,389.754758 166.181577,389.754758 L166.181577,389.754758 L153.239532,389.754758 C150.709908,389.754758 149.778646,389.527373 148.850108,389.032289 C147.99917,388.578581 147.331228,387.912884 146.876127,387.064496 C146.379954,386.139542 146.152296,385.211696 146.152296,382.692015 L146.152296,382.692015 L146.152296,369.789166 C146.152296,367.269486 146.379954,366.341639 146.876127,365.416685 C147.331228,364.568298 147.99917,363.9026 148.850108,363.448892 C149.778646,362.953808 150.709908,362.726423 153.239532,362.726423 L153.239532,362.726423 Z" transform="scale(-1 1) rotate(-10 0 2201.74)"/>
    <path stroke="#1C1C1C" stroke-width="2" d="M52.3809604,342.660304 C54.9105839,342.660304 55.8418464,342.887689 56.7703843,343.382773 C57.6213217,343.836481 58.2892641,344.502179 58.7443651,345.350566 C59.2405384,346.27552 59.468196,347.203367 59.468196,349.723047 L59.468196,349.723047 L59.468196,362.625896 C59.468196,365.145577 59.2405384,366.073423 58.7443651,366.998377 C58.2892641,367.846765 57.6213217,368.512462 56.7703843,368.96617 C55.8418464,369.461254 54.9105839,369.688639 52.3809604,369.688639 L52.3809604,369.688639 L39.4389152,369.688639 C36.9092917,369.688639 35.9780293,369.461254 35.0494914,368.96617 C34.1985539,368.512462 33.5306116,367.846765 33.0755106,366.998377 C32.5793372,366.073423 32.3516796,365.145577 32.3516796,362.625896 L32.3516796,362.625896 L32.3516796,349.723047 C32.3516796,347.203367 32.5793372,346.27552 33.0755106,345.350566 C33.5306116,344.502179 34.1985539,343.836481 35.0494914,343.382773 C35.9780293,342.887689 36.9092917,342.660304 39.4389152,342.660304 L39.4389152,342.660304 Z" transform="scale(-1 1) rotate(-10 0 880.927)"/>
    <path stroke="#1C1C1C" stroke-width="2" d="M90.4638439,349.375344 C92.9934674,349.375344 93.9247298,349.602729 94.8532677,350.097813 C95.7042052,350.551521 96.3721476,351.217219 96.8272485,352.065606 C97.3234219,352.99056 97.5510795,353.918406 97.5510795,356.438087 L97.5510795,356.438087 L97.5510795,369.340936 C97.5510795,371.860617 97.3234219,372.788463 96.8272485,373.713417 C96.3721476,374.561804 95.7042052,375.227502 94.8532677,375.68121 C93.9247298,376.176294 92.9934674,376.403679 90.4638439,376.403679 L90.4638439,376.403679 L77.5217987,376.403679 C74.9921752,376.403679 74.0609127,376.176294 73.1323748,375.68121 C72.2814374,375.227502 71.613495,374.561804 71.1583941,373.713417 C70.6622207,372.788463 70.4345631,371.860617 70.4345631,369.340936 L70.4345631,369.340936 L70.4345631,356.438087 C70.4345631,353.918406 70.6622207,352.99056 71.1583941,352.065606 C71.613495,351.217219 72.2814374,350.551521 73.1323748,350.097813 C74.0609127,349.602729 74.9921752,349.375344 77.5217987,349.375344 L77.5217987,349.375344 Z" transform="scale(-1 1) rotate(-10 0 1322.932)"/>
    <path stroke="#1C1C1C" stroke-width="2" d="M128.098693,356.011383 C130.628317,356.011383 131.559579,356.238769 132.488117,356.733852 C133.339055,357.18756 134.006997,357.853258 134.462098,358.701646 C134.958271,359.626599 135.185929,360.554446 135.185929,363.074126 L135.185929,363.074126 L135.185929,375.976976 C135.185929,378.496656 134.958271,379.424502 134.462098,380.349456 C134.006997,381.197844 133.339055,381.863542 132.488117,382.31725 C131.559579,382.812333 130.628317,383.039718 128.098693,383.039718 L128.098693,383.039718 L115.156648,383.039718 C112.627025,383.039718 111.695762,382.812333 110.767224,382.31725 C109.916287,381.863542 109.248345,381.197844 108.793244,380.349456 C108.29707,379.424502 108.069413,378.496656 108.069413,375.976976 L108.069413,375.976976 L108.069413,363.074126 C108.069413,360.554446 108.29707,359.626599 108.793244,358.701646 C109.248345,357.853258 109.916287,357.18756 110.767224,356.733852 C111.695762,356.238769 112.627025,356.011383 115.156648,356.011383 L115.156648,356.011383 Z" transform="scale(-1 1) rotate(-10 0 1759.736)"/>
    <path stroke="#1C1C1C" stroke-width="2" d="M211.162447,426.950231 C216.07252,453.128811 211.960512,475.259202 199.685521,495.586084 L199.685521,495.586084 L199.093841,496.555965 C189.67112,511.84481 177.251616,524.565901 154.983567,543.538806 L154.983567,543.538806 L151.301925,546.656777 C150.219762,547.568605 148.847588,548.72304 147.43678,549.909403 L147.43678,549.909403 L146.587509,550.623502 C145.616112,551.440225 144.650172,552.252163 143.770763,552.991364 C142.084796,554.408532 140.716751,555.558467 140.23645,555.963599 L140.23645,555.963599 L138.122158,557.751827 C115.802302,576.682752 102.375766,590.538851 91.545977,605.723049 L91.789,605.383 L87.5824268,602.39846 C98.5331723,587.151057 111.810813,573.405132 133.210517,555.154978 L134.059474,554.432224 L137.848407,551.229053 C138.516046,550.667533 139.434423,549.895574 140.471311,549.023999 C141.260272,548.360824 142.117821,547.639996 142.985768,546.910283 L143.963528,546.08818 C146.240885,544.173195 148.439542,542.323005 149.506997,541.419723 L149.506997,541.419723 L151.608051,539.635883 C173.802208,520.727294 185.933389,508.223686 194.989181,493.382788 L194.989181,493.382788 L195.270937,492.918627 C206.922719,473.623771 210.799829,452.777646 206.059398,427.714491 L206.101,427.941 Z" transform="matrix(-1 0 0 1 300.372 0)"/>
  </g>
</svg>
