<?xml version="1.0" encoding="UTF-8"?>
<svg width="283px" height="400px" viewBox="0 0 283 400" version="1.1" xmlns="http://www.w3.org/2000/svg" xmlns:xlink="http://www.w3.org/1999/xlink">
    <!-- Generator: Sketch 51.1 (57501) - http://www.bohemiancoding.com/sketch -->
    <title>home-header-background-left</title>
    <desc>Created with Sketch.</desc>
    <defs></defs>
    <g id="Page-1" stroke="none" stroke-width="1" fill="none" fill-rule="evenodd">
        <g id="13&quot;-MacBook-in-Safari" transform="translate(0.000000, -97.000000)">
            <g id="home-header-background-left" transform="translate(-87.000000, 95.000000)">
                <path d="M114.267031,304.267653 C171.81877,300.003444 190.344082,258.216287 190.344082,227.518245 C190.344082,196.820203 182.523666,176.335218 155.74749,165.967464 C128.971315,155.599711 101.104607,165.967464 90.0763331,195.8262 C79.0480592,225.684935 97.7471485,272.876426 144.946517,266.651836 C192.145885,260.427246 200.552907,221.457462 187.634485,186.624203 C174.716063,151.790944 134.548717,160.034143 114.267031,145.17879 C93.9853456,130.323438 88.6714701,104.914205 95.6865132,68.2984767 C102.701556,31.6827487 198.407033,25.3153954 171.856859,114.403159" id="Path-2" stroke="#A94E31" stroke-width="3" transform="translate(140.045606, 173.633827) scale(1, -1) translate(-140.045606, -173.633827) "></path>
                <g id="Group" transform="translate(185.760350, 208.008209) rotate(-230.000000) translate(-185.760350, -208.008209) translate(-44.239650, 158.508209)" fill-rule="nonzero">
                    <g id="Path-28" transform="translate(0.000000, 0.087136)">
                        <path d="M0.605905231,3.9788966 C0.605905231,2.0951489 2.1320874,0.563743488 4.02079584,0.563743488 L453.70616,0.563743488 C455.595248,0.563743488 457.121051,2.09637052 457.121051,3.9788966 L457.121051,94.4677618 C457.121051,96.3515095 455.594869,97.8829149 453.70616,97.8829149 L4.02079584,97.8829149 C2.13170861,97.8829149 0.605905231,96.3502879 0.605905231,94.4677618 L0.605905231,3.9788966 Z" id="Path" fill="#A94E31"></path>
                        <path d="M3.8798339,94.4677618 C3.8798339,94.5194041 153.821943,94.5664789 453.70616,94.6089862 C453.758273,94.6089862 453.80526,64.3989564 453.847122,3.9788966 C453.847122,3.92725428 303.905013,3.88017947 4.02079584,3.83767216 C3.96868354,3.83767216 3.92169623,34.047702 3.8798339,94.4677618 Z" id="Mask" fill="#E06841"></path>
                    </g>
                    <path d="M32.0189177,4.75831063 C32.0189177,3.85424019 32.7518116,3.12134629 33.6558821,3.12134629 C34.5599525,3.12134629 35.2928464,3.85424019 35.2928464,4.75831063 L35.2928464,39.863635 C35.2928464,40.7677055 34.5599525,41.5005994 33.6558821,41.5005994 C32.7518116,41.5005994 32.0189177,40.7677055 32.0189177,39.863635 L32.0189177,4.75831063 Z" id="Path-1" fill="#A94E31"></path>
                    <path d="M167.246406,4.75831063 C167.246406,3.85424019 167.9793,3.12134629 168.883371,3.12134629 C169.787441,3.12134629 170.520335,3.85424019 170.520335,4.75831063 L170.520335,39.863635 C170.520335,40.7677055 169.787441,41.5005994 168.883371,41.5005994 C167.9793,41.5005994 167.246406,40.7677055 167.246406,39.863635 L167.246406,4.75831063 Z" id="Path-1-Copy-4" fill="#A94E31"></path>
                    <path d="M302.61624,4.75831063 C302.61624,3.85424019 303.349133,3.12134629 304.253204,3.12134629 C305.157274,3.12134629 305.890168,3.85424019 305.890168,4.75831063 L305.890168,39.863635 C305.890168,40.7677055 305.157274,41.5005994 304.253204,41.5005994 C303.349133,41.5005994 302.61624,40.7677055 302.61624,39.863635 L302.61624,4.75831063 Z" id="Path-1-Copy-8" fill="#A94E31"></path>
                    <path d="M65.8969622,4.75831063 C65.8969622,4.24731429 66.3112066,3.83306992 66.8222029,3.83306992 C67.3331993,3.83306992 67.7474436,4.24731429 67.7474436,4.75831063 L67.7474436,27.5811521 C67.7474436,28.0921484 67.3331993,28.5063928 66.8222029,28.5063928 C66.3112066,28.5063928 65.8969622,28.0921484 65.8969622,27.5811521 L65.8969622,4.75831063 Z" id="Path-1-Copy" fill="#A94E31"></path>
                    <path d="M16.9303769,4.75831063 C16.9303769,4.52246617 17.1215666,4.33127645 17.3574111,4.33127645 C17.5932555,4.33127645 17.7844453,4.52246617 17.7844453,4.75831063 L17.7844453,27.5811521 C17.7844453,27.8169965 17.5932555,28.0081862 17.3574111,28.0081862 C17.1215666,28.0081862 16.9303769,27.8169965 16.9303769,27.5811521 L16.9303769,4.75831063 Z" id="Path-1-Copy-13" fill="#A94E31"></path>
                    <path d="M50.6660767,4.75831063 C50.6660767,4.52246617 50.8572664,4.33127645 51.0931109,4.33127645 C51.3289553,4.33127645 51.520145,4.52246617 51.520145,4.75831063 L51.520145,27.5811521 C51.520145,27.8169965 51.3289553,28.0081862 51.0931109,28.0081862 C50.8572664,28.0081862 50.6660767,27.8169965 50.6660767,27.5811521 L50.6660767,4.75831063 Z" id="Path-1-Copy-14" fill="#A94E31"></path>
                    <path d="M84.5441212,4.75831063 C84.5441212,4.52246617 84.7353109,4.33127645 84.9711553,4.33127645 C85.2069998,4.33127645 85.3981895,4.52246617 85.3981895,4.75831063 L85.3981895,27.5811521 C85.3981895,27.8169965 85.2069998,28.0081862 84.9711553,28.0081862 C84.7353109,28.0081862 84.5441212,27.8169965 84.5441212,27.5811521 L84.5441212,4.75831063 Z" id="Path-1-Copy-15" fill="#A94E31"></path>
                    <path d="M118.279821,4.75831063 C118.279821,4.52246617 118.471011,4.33127645 118.706855,4.33127645 C118.9427,4.33127645 119.133889,4.52246617 119.133889,4.75831063 L119.133889,27.5811521 C119.133889,27.8169965 118.9427,28.0081862 118.706855,28.0081862 C118.471011,28.0081862 118.279821,27.8169965 118.279821,27.5811521 L118.279821,4.75831063 Z" id="Path-1-Copy-16" fill="#A94E31"></path>
                    <path d="M150.449729,4.75831063 C150.449729,4.52246617 150.640918,4.33127645 150.876763,4.33127645 C151.112607,4.33127645 151.303797,4.52246617 151.303797,4.75831063 L151.303797,27.5811521 C151.303797,27.8169965 151.112607,28.0081862 150.876763,28.0081862 C150.640918,28.0081862 150.449729,27.8169965 150.449729,27.5811521 L150.449729,4.75831063 Z" id="Path-1-Copy-17" fill="#A94E31"></path>
                    <path d="M185.893565,4.75831063 C185.893565,4.52246617 186.084755,4.33127645 186.320599,4.33127645 C186.556444,4.33127645 186.747634,4.52246617 186.747634,4.75831063 L186.747634,27.5811521 C186.747634,27.8169965 186.556444,28.0081862 186.320599,28.0081862 C186.084755,28.0081862 185.893565,27.8169965 185.893565,27.5811521 L185.893565,4.75831063 Z" id="Path-1-Copy-18" fill="#A94E31"></path>
                    <path d="M218.063473,4.75831063 C218.063473,4.52246617 218.254663,4.33127645 218.490507,4.33127645 C218.726352,4.33127645 218.917541,4.52246617 218.917541,4.75831063 L218.917541,27.5811521 C218.917541,27.8169965 218.726352,28.0081862 218.490507,28.0081862 C218.254663,28.0081862 218.063473,27.8169965 218.063473,27.5811521 L218.063473,4.75831063 Z" id="Path-1-Copy-19" fill="#A94E31"></path>
                    <path d="M253.507309,4.75831063 C253.507309,4.52246617 253.698499,4.33127645 253.934344,4.33127645 C254.170188,4.33127645 254.361378,4.52246617 254.361378,4.75831063 L254.361378,27.5811521 C254.361378,27.8169965 254.170188,28.0081862 253.934344,28.0081862 C253.698499,28.0081862 253.507309,27.8169965 253.507309,27.5811521 L253.507309,4.75831063 Z" id="Path-1-Copy-20" fill="#A94E31"></path>
                    <path d="M285.677217,4.75831063 C285.677217,4.52246617 285.868407,4.33127645 286.104251,4.33127645 C286.340096,4.33127645 286.531286,4.52246617 286.531286,4.75831063 L286.531286,27.5811521 C286.531286,27.8169965 286.340096,28.0081862 286.104251,28.0081862 C285.868407,28.0081862 285.677217,27.8169965 285.677217,27.5811521 L285.677217,4.75831063 Z" id="Path-1-Copy-21" fill="#A94E31"></path>
                    <path d="M321.121054,4.75831063 C321.121054,4.52246617 321.312243,4.33127645 321.548088,4.33127645 C321.783932,4.33127645 321.975122,4.52246617 321.975122,4.75831063 L321.975122,27.5811521 C321.975122,27.8169965 321.783932,28.0081862 321.548088,28.0081862 C321.312243,28.0081862 321.121054,27.8169965 321.121054,27.5811521 L321.121054,4.75831063 Z" id="Path-1-Copy-22" fill="#A94E31"></path>
                    <path d="M353.290962,4.75831063 C353.290962,4.52246617 353.482151,4.33127645 353.717996,4.33127645 C353.95384,4.33127645 354.14503,4.52246617 354.14503,4.75831063 L354.14503,27.5811521 C354.14503,27.8169965 353.95384,28.0081862 353.717996,28.0081862 C353.482151,28.0081862 353.290962,27.8169965 353.290962,27.5811521 L353.290962,4.75831063 Z" id="Path-1-Copy-23" fill="#A94E31"></path>
                    <path d="M388.734798,4.75831063 C388.734798,4.52246617 388.925988,4.33127645 389.161832,4.33127645 C389.397677,4.33127645 389.588866,4.52246617 389.588866,4.75831063 L389.588866,27.5811521 C389.588866,27.8169965 389.397677,28.0081862 389.161832,28.0081862 C388.925988,28.0081862 388.734798,27.8169965 388.734798,27.5811521 L388.734798,4.75831063 Z" id="Path-1-Copy-24" fill="#A94E31"></path>
                    <path d="M420.904706,4.75831063 C420.904706,4.52246617 421.095896,4.33127645 421.33174,4.33127645 C421.567584,4.33127645 421.758774,4.52246617 421.758774,4.75831063 L421.758774,27.5811521 C421.758774,27.8169965 421.567584,28.0081862 421.33174,28.0081862 C421.095896,28.0081862 420.904706,27.8169965 420.904706,27.5811521 L420.904706,4.75831063 Z" id="Path-1-Copy-25" fill="#A94E31"></path>
                    <path d="M201.124451,4.75831063 C201.124451,4.24731429 201.538695,3.83306992 202.049691,3.83306992 C202.560688,3.83306992 202.974932,4.24731429 202.974932,4.75831063 L202.974932,27.5811521 C202.974932,28.0921484 202.560688,28.5063928 202.049691,28.5063928 C201.538695,28.5063928 201.124451,28.0921484 201.124451,27.5811521 L201.124451,4.75831063 Z" id="Path-1-Copy-5" fill="#A94E31"></path>
                    <path d="M336.351939,4.75831063 C336.351939,4.24731429 336.766184,3.83306992 337.27718,3.83306992 C337.788176,3.83306992 338.202421,4.24731429 338.202421,4.75831063 L338.202421,27.5811521 C338.202421,28.0921484 337.788176,28.5063928 337.27718,28.5063928 C336.766184,28.5063928 336.351939,28.0921484 336.351939,27.5811521 L336.351939,4.75831063 Z" id="Path-1-Copy-9" fill="#A94E31"></path>
                    <path d="M99.632662,4.75831063 C99.632662,3.85424019 100.365556,3.12134629 101.269626,3.12134629 C102.173697,3.12134629 102.906591,3.85424019 102.906591,4.75831063 L102.906591,39.863635 C102.906591,40.7677055 102.173697,41.5005994 101.269626,41.5005994 C100.365556,41.5005994 99.632662,40.7677055 99.632662,39.863635 L99.632662,4.75831063 Z" id="Path-1-Copy-2" fill="#A94E31"></path>
                    <path d="M235.002495,4.75831063 C235.002495,3.85424019 235.735389,3.12134629 236.63946,3.12134629 C237.54353,3.12134629 238.276424,3.85424019 238.276424,4.75831063 L238.276424,39.863635 C238.276424,40.7677055 237.54353,41.5005994 236.63946,41.5005994 C235.735389,41.5005994 235.002495,40.7677055 235.002495,39.863635 L235.002495,4.75831063 Z" id="Path-1-Copy-6" fill="#A94E31"></path>
                    <path d="M370.229984,4.75831063 C370.229984,3.85424019 370.962878,3.12134629 371.866948,3.12134629 C372.771019,3.12134629 373.503912,3.85424019 373.503912,4.75831063 L373.503912,39.863635 C373.503912,40.7677055 372.771019,41.5005994 371.866948,41.5005994 C370.962878,41.5005994 370.229984,40.7677055 370.229984,39.863635 L370.229984,4.75831063 Z" id="Path-1-Copy-10" fill="#A94E31"></path>
                    <path d="M133.510706,4.75831063 C133.510706,4.24731429 133.924951,3.83306992 134.435947,3.83306992 C134.946944,3.83306992 135.361188,4.24731429 135.361188,4.75831063 L135.361188,27.5811521 C135.361188,28.0921484 134.946944,28.5063928 134.435947,28.5063928 C133.924951,28.5063928 133.510706,28.0921484 133.510706,27.5811521 L133.510706,4.75831063 Z" id="Path-1-Copy-3" fill="#A94E31"></path>
                    <path d="M268.738195,4.75831063 C268.738195,4.24731429 269.152439,3.83306992 269.663436,3.83306992 C270.174432,3.83306992 270.588676,4.24731429 270.588676,4.75831063 L270.588676,27.5811521 C270.588676,28.0921484 270.174432,28.5063928 269.663436,28.5063928 C269.152439,28.5063928 268.738195,28.0921484 268.738195,27.5811521 L268.738195,4.75831063 Z" id="Path-1-Copy-7" fill="#A94E31"></path>
                    <path d="M403.965684,4.75831063 C403.965684,4.24731429 404.379928,3.83306992 404.890924,3.83306992 C405.401921,3.83306992 405.816165,4.24731429 405.816165,4.75831063 L405.816165,27.5811521 C405.816165,28.0921484 405.401921,28.5063928 404.890924,28.5063928 C404.379928,28.5063928 403.965684,28.0921484 403.965684,27.5811521 L403.965684,4.75831063 Z" id="Path-1-Copy-11" fill="#A94E31"></path>
                </g>
                <g id="Group-2" transform="translate(115.803013, 42.457736) rotate(41.000000) translate(-115.803013, -42.457736) translate(97.303013, 27.457736)" fill="#A94E31">
                    <rect id="Rectangle-4" transform="translate(21.800254, 13.945568) rotate(-30.000000) translate(-21.800254, -13.945568) " x="9.58127721" y="6.03040272" width="24.4379532" height="15.83033" rx="1"></rect>
                    <path d="M2.47880049,19.1855809 C2.47880049,17.525881 3.82807184,16.1804284 5.48561375,16.1804284 L13.4825147,16.1804284 L13.4825147,27.9089386 L5.48561375,27.9089386 C3.82499664,27.9089386 2.47880049,26.5635293 2.47880049,24.903786 L2.47880049,19.1855809 Z" id="Rectangle-5" transform="translate(7.980658, 22.044683) rotate(-30.000000) translate(-7.980658, -22.044683) "></path>
                </g>
            </g>
        </g>
    </g>
</svg>