<svg xmlns="http://www.w3.org/2000/svg" width="22" height="22" viewBox="0 0 22 22">
  <path fill="#E06841" fill-rule="evenodd" d="M141.414214,26.631728 L137.171573,22.3890873 C136.781049,21.998563 136.781049,21.365398 137.171573,20.9748737 L138.232747,19.9146212 L137.035747,18.7176212 L134.153618,21.5990642 C134.476654,23.4576157 133.920542,25.4391085 132.485281,26.8743687 L128.684747,23.0736212 L127.016689,24.7415629 C126.772612,24.9856406 126.376883,24.9856406 126.132806,24.7415629 C125.915848,24.524605 125.891741,24.1878245 126.060486,23.9442393 L126.132806,23.8576795 L127.801747,22.1906212 L124,18.3890873 C125.404706,16.9843809 127.332636,16.4217903 129.156449,16.7013155 L129.196699,16.6568542 L132.085747,13.7676212 L131.035747,12.7176212 L129.974874,13.7781746 C129.584349,14.1686989 128.951184,14.1686989 128.56066,13.7781746 L124.318019,9.53553391 C123.927495,9.14500961 123.927495,8.51184464 124.318019,8.12132034 L127.146447,5.29289322 C127.536971,4.90236893 128.170136,4.90236893 128.56066,5.29289322 L132.803301,9.53553391 C133.193825,9.9260582 133.193825,10.5592232 132.803301,10.9497475 L131.742747,12.0106212 L132.792747,13.0606212 L137.681981,8.17157288 C138.072505,7.78104858 138.70567,7.78104858 139.096194,8.17157288 L142.631728,11.7071068 C143.022252,12.0976311 143.022252,12.7307961 142.631728,13.1213203 L137.742747,18.0106212 L138.939747,19.2076212 L140,18.1464466 C140.390524,17.7559223 141.023689,17.7559223 141.414214,18.1464466 L145.656854,22.3890873 C146.047379,22.7796116 146.047379,23.4127766 145.656854,23.8033009 L142.828427,26.631728 C142.437903,27.0222523 141.804738,27.0222523 141.414214,26.631728 Z" transform="translate(-124 -5)"/>
</svg>
