<svg xmlns="http://www.w3.org/2000/svg" xmlns:xlink="http://www.w3.org/1999/xlink" width="136" height="135" viewBox="0 0 136 135">
  <defs>
    <path id="icon-build-a" d="M23.5009605,4.02968886 C38.5798704,1.34322962 53.2462169,0 67.5,0 C81.2380941,0 95.3594393,1.24779414 109.864035,3.74338241 L111.315773,3.99710038 C121.29643,5.76844293 129.102852,13.5940933 130.849636,23.5790787 C133.616545,39.3953224 135,54.0356295 135,67.5 C135,80.9643705 133.616545,95.6046776 130.849636,111.420921 C129.102852,121.405907 121.296431,129.231557 111.315773,131.002899 C96.3012882,133.667633 81.6960306,135 67.5,135 C53.7661892,135 39.6493663,133.752984 25.1495313,131.258951 L23.698271,131.005392 C13.7052428,129.232377 5.89289911,121.390524 4.15757232,111.390882 C1.38585744,95.4191605 0,80.4200141 0,66.3934426 C0,53.0602339 1.25223217,39.2238961 3.75669652,24.8844294 L4.00297263,23.4951683 C5.76897561,13.6776146 13.3948061,5.97399847 23.1669917,4.09160095 L23.5009605,4.02968886 Z"/>
  </defs>
  <g fill="none" fill-rule="evenodd" transform="translate(.143)">
    <mask id="icon-build-b" fill="#fff">
      <use xlink:href="#icon-build-a"/>
    </mask>
    <use fill="#369EFF" xlink:href="#icon-build-a"/>
    <path fill="#FFF" fill-rule="nonzero" d="M63.28125,92.8077731 L63.28125,86.5174689 L60.5129657,86.5174689 C56.4182117,86.5174689 55.6107955,85.5739232 55.6107955,80.8561951 L55.6107955,72.9075379 C55.6107955,68.9903939 52.7848385,66.4742722 47.5654691,66.159757 L47.5654691,65.6450958 C52.7848385,65.3305806 55.6107955,62.7858666 55.6107955,58.8973149 L55.6107955,50.9200654 C55.6107955,46.2023373 56.4182117,45.2587916 60.5129657,45.2587916 L63.28125,45.2587916 L63.28125,38.9684874 L58.6386065,38.9684874 C50.3049171,38.9684874 47.5943054,41.570386 47.5943054,49.5762277 L47.5943054,55.8951242 C47.5943054,60.4127063 45.5180921,62.1568362 39.1741071,61.8995055 L39.1741071,69.876755 C45.5180921,69.6480166 47.5943054,71.3921464 47.5943054,75.9097286 L47.5943054,82.2000328 C47.5943054,90.2058745 50.3049171,92.8077731 58.6386065,92.8077731 L63.28125,92.8077731 Z M82.3881793,92.8077731 C90.7218686,92.8077731 93.4324803,90.2058745 93.4324803,82.2000328 L93.4324803,75.9097286 C93.4324803,71.3921464 95.5086936,69.6480166 101.852679,69.876755 L101.852679,61.8995055 C95.5086936,62.1568362 93.4324803,60.4127063 93.4324803,55.8951242 L93.4324803,49.5762277 C93.4324803,41.570386 90.7218686,38.9684874 82.3881793,38.9684874 L77.7455357,38.9684874 L77.7455357,45.2587916 L80.5138201,45.2587916 C84.608574,45.2587916 85.4159903,46.2023373 85.4159903,50.9200654 L85.4159903,58.8973149 C85.4159903,62.7858666 88.2419472,65.3305806 93.4613166,65.6450958 L93.4613166,66.159757 C88.2419472,66.4742722 85.4159903,68.9903939 85.4159903,72.9075379 L85.4159903,80.8561951 C85.4159903,85.5739232 84.608574,86.5174689 80.5138201,86.5174689 L77.7455357,86.5174689 L77.7455357,92.8077731 L82.3881793,92.8077731 Z" mask="url(#icon-build-b)"/>
    <path fill="#FFF" fill-opacity=".3" fill-rule="nonzero" d="M102.968225 22.0934874C105.014927 22.0934874 106.674107 23.7124577 106.674107 25.7095588 106.674107 27.6158826 105.162334 29.1776699 103.244799 29.3157118L102.968225 29.3256303 31.6299895 29.3256303C29.5832872 29.3256303 27.9241071 27.7066599 27.9241071 25.7095588 27.9241071 23.803235 29.4358807 22.2414478 31.3534152 22.1034058L31.6299895 22.0934874 102.968225 22.0934874zM55.5133929 38.164916C57.5844607 38.164916 59.2633929 39.7838863 59.2633929 41.7809874 59.2633929 43.6873112 57.733622 45.2490984 55.7932598 45.3871404L55.5133929 45.3970588 40.5133929 45.3970588C38.442325 45.3970588 36.7633929 43.7780885 36.7633929 41.7809874 36.7633929 39.8746636 38.2931637 38.3128763 40.233526 38.1748344L40.5133929 38.164916 55.5133929 38.164916zM64.4598214 88.789916C66.4717159 88.789916 68.1026786 90.4088863 68.1026786 92.4059874 68.1026786 94.3123112 66.6166155 95.8740984 64.7316921 96.0121404L64.4598214 96.0220588 44.4241071 96.0220588C42.4122127 96.0220588 40.78125 94.4030885 40.78125 92.4059874 40.78125 90.4996636 42.2673131 88.9378763 44.1522364 88.7998344L44.4241071 88.789916 64.4598214 88.789916zM91.6741071 104.861345C93.745175 104.861345 95.4241071 106.480315 95.4241071 108.477416 95.4241071 110.38374 93.8943363 111.945527 91.953974 112.083569L91.6741071 112.093487 31.6741071 112.093487C29.6030393 112.093487 27.9241071 110.474517 27.9241071 108.477416 27.9241071 106.571092 29.453878 105.009305 31.3942402 104.871263L31.6741071 104.861345 91.6741071 104.861345zM102.197066 71.914916C104.225867 71.914916 105.870536 73.5338863 105.870536 75.5309874 105.870536 77.4373112 104.371985 78.9990984 102.471222 79.1371404L102.197066 79.1470588 70.9725765 79.1470588C68.9437754 79.1470588 67.2991071 77.5280885 67.2991071 75.5309874 67.2991071 73.6246636 68.7976582 72.0628763 70.6984212 71.9248344L70.9725765 71.914916 102.197066 71.914916zM72.4955357 55.039916C74.5074302 55.039916 76.1383929 56.6588863 76.1383929 58.6559874 76.1383929 60.5623112 74.6523297 62.1240984 72.7674064 62.2621404L72.4955357 62.2720588 52.4598214 62.2720588C50.447927 62.2720588 48.8169643 60.6530885 48.8169643 58.6559874 48.8169643 56.7496636 50.3030274 55.1878763 52.1879507 55.0498344L52.4598214 55.039916 72.4955357 55.039916z" mask="url(#icon-build-b)"/>
  </g>
</svg>
