<svg xmlns="http://www.w3.org/2000/svg" xmlns:xlink="http://www.w3.org/1999/xlink" width="125" height="135" viewBox="0 0 125 135">
  <defs>
    <path id="icon-design-a" d="M77.1960175,4.6082131 L109.742655,23.3560726 C118.836582,28.5944531 124.438673,38.2753795 124.438673,48.7521405 L124.438673,86.2478595 C124.438673,96.7246205 118.836582,106.405547 109.742655,111.643927 L77.1960175,130.391787 C68.1020902,135.630167 56.8979098,135.630167 47.8039825,130.391787 L15.2573449,111.643927 C6.16341766,106.405547 0.561327436,96.7246205 0.561327436,86.2478595 L0.561327436,48.7521405 C0.561327436,38.2753795 6.16341766,28.5944531 15.2573449,23.3560726 L47.8039825,4.6082131 C56.8979098,-0.630167398 68.1020902,-0.630167398 77.1960175,4.6082131 Z"/>
  </defs>
  <g fill="none" fill-rule="evenodd" transform="translate(-.143)">
    <mask id="icon-design-b" fill="#fff">
      <use xlink:href="#icon-design-a"/>
    </mask>
    <use fill="#9B38F0" xlink:href="#icon-design-a"/>
    <path fill="#FFF" fill-rule="nonzero" d="M116.140464,72.9293478 L106.03429,72.9293478 L106.034138,69.0507888 L70.1183911,69.0516422 C69.4137621,72.5140303 66.3974249,75.1387969 62.7467782,75.2523774 L62.5,75.2562112 C58.7391554,75.2562112 55.6020547,72.5917505 54.8816089,69.0516422 L18.1881381,69.0507888 L18.1883124,72.9293478 L8.08213805,72.9293478 L8.08213805,62.8462733 L18.1883124,62.8462733 L18.1881381,65.9477888 L54.8816089,65.9483578 C55.5862379,62.4859697 58.6025751,59.8612031 62.2532218,59.7476226 L62.5,59.7437888 C66.2608446,59.7437888 69.3979453,62.4082495 70.1183911,65.9483578 L106.034138,65.9477888 L106.03429,62.8462733 L116.140464,62.8462733 L116.140464,72.9293478 Z" mask="url(#icon-design-b)"/>
    <path fill="#FFF" fill-opacity=".202" fill-rule="nonzero" d="M-55.2758012-53.4968944C-122.253633-53.4968944-176.549894.675260444-176.549894 67.5-176.549894 134.32474-122.253633 188.496894-55.2758012 188.496894 11.7020305 188.496894 65.9982911 134.32474 65.9982911 67.5 65.9982911.675260444 11.7020305-53.4968944-55.2758012-53.4968944zM-55.2758012-46.5163043C7.83792485-46.5163043 59.0017089 4.53053388 59.0017089 67.5 59.0017089 130.469466 7.83792485 181.516304-55.2758012 181.516304-118.389527 181.516304-169.553311 130.469466-169.553311 67.5-169.553311 4.53053388-118.389527-46.5163043-55.2758012-46.5163043zM126.246638 22.9017857C101.559296 22.9017857 81.5462517 42.8690864 81.5462517 67.5 81.5462517 92.1309136 101.559296 112.098214 126.246638 112.098214 150.93398 112.098214 170.947025 92.1309136 170.947025 67.5 170.947025 42.8690864 150.93398 22.9017857 126.246638 22.9017857zM126.246638 29.8823758C147.069874 29.8823758 163.950443 46.7243598 163.950443 67.5 163.950443 88.2756402 147.069874 105.117624 126.246638 105.117624 105.423402 105.117624 88.5428339 88.2756402 88.5428339 67.5 88.5428339 46.7243598 105.423402 29.8823758 126.246638 29.8823758z" mask="url(#icon-design-b)"/>
  </g>
</svg>
