<svg xmlns="http://www.w3.org/2000/svg" width="175" height="123" viewBox="0 0 175 123">
  <path fill="#FFF" d="M87.4900199,0.000552105455 C93.3010701,0.0128437164 142.108643,0.217703898 154.847112,3.63204026 C162.341956,5.65613117 168.232737,11.5620403 170.223987,19.0484039 C171.455796,23.6677675 172.26879,29.9955415 172.805367,36.3360084 L172.897216,37.4547009 C173.757918,48.2633295 173.838608,58.8186245 173.846173,60.7027446 L173.846173,61.2967905 C173.833913,64.3503644 173.629578,90.1799494 170.223987,102.951131 C168.205081,110.465222 162.314299,116.371131 154.847112,118.367495 C149.01994,119.929372 135.645035,120.819642 122.290891,121.327096 L120.428418,121.395448 C104.921628,121.944829 89.9188725,121.994773 87.3192542,121.999314 L86.5276666,121.999314 C83.9293274,121.994773 68.9337283,121.944829 53.4296,121.395448 L51.5674246,121.327096 C38.2152463,120.819642 24.8386759,119.929372 18.9996119,118.367495 C11.5047681,116.343404 5.61398688,110.437495 3.62273688,102.951131 C0.217146255,90.1799494 0.0128108175,64.3503644 0.00055069125,61.2967905 L0.00055069125,60.7027446 C0.0128108175,57.6491706 0.217146255,31.8195857 3.62273688,19.0484039 C5.64164313,11.534313 11.5324244,5.6284039 18.9996119,3.63204026 C31.7640775,0.217703898 80.5487733,0.0128437164 86.3569847,0.000552105455 Z M69.5552369,34.8529494 L69.5552369,87.1465857 L114.717893,60.9997675 L69.5552369,34.8529494 Z" transform="translate(.245 .844)"/>
</svg>
