<svg xmlns="http://www.w3.org/2000/svg" width="73" height="73" viewBox="0 0 73 73">
  <path fill="#FFF" fill-rule="evenodd" d="M52.5,16 C32.3497872,16 16,32.3497872 16,52.5 C16,72.6502813 32.3497872,89 52.5,89 C72.6105875,89 89,72.6502813 89,52.5 C89,32.3497872 72.6105875,16 52.5,16 Z M76.6089344,32.8248347 C80.9636125,38.1296078 83.5765562,44.8991031 83.6557156,52.2228281 C82.6264156,52.0250437 72.3334156,49.92675 61.9614844,51.2332219 C61.7240062,50.7185719 61.5259938,50.1642281 61.2885156,49.6101125 C60.6550125,48.1058563 59.9425781,46.5619062 59.2299156,45.0971156 C70.7103063,40.4258 75.9359656,33.6957703 76.6089344,32.8248347 Z M52.5,21.3839553 C60.4175344,21.3839553 67.6621,24.3530478 73.1649312,29.2223531 C72.6105875,30.0141066 67.8995781,36.3085772 56.8149844,40.4652656 C51.7081781,31.0829634 46.0472563,23.40293 45.176275,22.2152884 C47.5118188,21.6610587 49.9664438,21.3839553 52.5,21.3839553 Z M39.2381812,24.3134453 C40.0694687,25.4219047 45.6117656,33.1415406 50.7977312,42.3258531 C36.229395,46.205575 23.3633503,46.1265373 21.9777647,46.1265373 C23.9967394,36.4669187 30.5287338,28.4305769 39.2381812,24.3134453 Z M21.3047731,52.5396937 C21.3047731,52.2228281 21.3047731,51.9061906 21.3047731,51.5895531 C22.6507563,51.6290188 37.7733222,51.8270312 53.3312875,47.1557156 C54.2419625,48.89745 55.07325,50.6788781 55.8650719,52.4603062 C55.4690469,52.5791594 55.0335563,52.6980125 54.6377594,52.8166375 C38.5650756,58.0026031 30.0141066,72.1750969 29.3015125,73.3627156 C24.353025,67.8601125 21.3047731,60.5363875 21.3047731,52.5396937 Z M52.5,83.6951813 C45.2949,83.6951813 38.6442578,81.2407844 33.3790644,77.1235844 C33.9332941,75.9756594 40.2672531,63.7826063 57.8442844,57.6465 C57.9234437,57.6068063 57.9631375,57.6068063 58.0422969,57.5673406 C62.4364406,68.9288781 64.2180969,78.4695219 64.6930531,81.2010906 C60.9321844,82.8242 56.8149844,83.6951813 52.5,83.6951813 Z M69.8790188,78.3508969 C69.5623813,76.4506156 67.8995781,67.3454625 63.8220719,56.1420156 C73.6004219,54.5980656 82.1512313,57.13185 83.220225,57.4881812 C81.8742875,66.1578437 76.8861063,73.6398875 69.8790188,78.3508969 Z" transform="translate(-16 -16)"/>
</svg>
