<svg xmlns="http://www.w3.org/2000/svg" width="54" height="76" viewBox="0 0 54 76">
  <defs>
    <linearGradient id="logo-bonfire-a" x1="50%" x2="50%" y1="6.112%" y2="93.593%">
      <stop offset="0%" stop-color="#FF9766"/>
      <stop offset="100%" stop-color="#FF3321"/>
    </linearGradient>
  </defs>
  <g fill="none" fill-rule="evenodd" transform="translate(-.014 -.702)">
    <path fill="#FFF" fill-rule="nonzero" d="M27.1453552,0.70212766 C22.5793583,0.70212766 19.2315453,2.53205729 17.3063617,5.9452702 C16.100826,8.08259899 15.679323,9.92360489 15.1731532,13.9405381 L14.9920144,15.402798 C14.7165797,17.5643593 14.4960904,18.7008718 14.1329255,19.6922612 C13.3481444,21.8346041 11.9364355,23.5708172 9.47612359,25.644106 L9.22658144,25.852586 C8.89596041,26.126494 6.16163543,28.2875534 5.26748971,29.0555317 L5.19545419,29.1178703 C3.76675223,30.3649994 2.72921195,31.5115712 1.96543923,32.8383849 C-1.91954037,39.5873091 0.252932068,49.9752572 6.20473003,59.9700995 C12.0056878,69.7116361 19.9838463,76.7021277 27.1453552,76.7021277 C32.7853639,76.7021277 39.494324,71.9996689 44.8310045,64.9090383 C50.5318374,57.3345732 54.0138233,47.9585969 54.0138233,38.5587314 C54.0138233,29.1552458 50.530191,19.836958 44.8175135,12.3339993 C39.4889461,5.33552573 32.7762911,0.70212766 27.1453552,0.70212766 Z M27.1453552,8.73231634 C29.7006498,8.73231634 34.4102958,11.9831411 38.3640228,17.1759164 C43.0638218,23.3485734 45.9243921,31.0002467 45.9243921,38.5587314 C45.9243921,46.126847 43.0558487,53.8510009 38.3505319,60.1027641 C34.3869386,65.3690296 29.6747042,68.671939 27.1453552,68.671939 C23.6526986,68.671939 17.6534116,63.4153419 13.1684746,55.8837963 C8.54646809,48.1220701 6.9310226,40.3976159 8.98903244,36.8224742 C9.23100425,36.4021246 9.72042576,35.8612715 10.5373341,35.1481835 L10.8647055,34.8722878 C11.8219919,34.0807352 13.9920293,32.3639385 14.4098667,32.0177748 C18.0221263,29.0251435 20.344973,26.2319754 21.7353198,22.4365224 C22.336582,20.7951606 22.6412096,19.2947715 22.9723863,16.7612289 L23.2159393,14.8135634 C23.894945,9.5050294 24.4363314,8.73231634 27.1453552,8.73231634 Z"/>
    <path fill="url(#logo-bonfire-a)" d="M27.1430841,8.70212766 C29.7108568,8.70212766 34.4435011,11.956227 38.416535,17.154233 C43.1392842,23.3331077 46.0138233,30.9924886 46.0138233,38.558587 C46.0138233,46.1343259 43.1312722,53.8662604 38.4029782,60.1243211 C34.4200298,65.3958912 29.6847845,68.7021277 27.1430841,68.7021277 C23.633372,68.7021277 17.6047891,63.4402356 13.0979512,55.9011034 C8.45337434,48.1315588 6.83004026,40.3993237 8.89809983,36.8205808 C9.14125325,36.3998078 9.63306472,35.8584099 10.4539623,35.1446036 L10.7829322,34.86843 C11.7448933,34.07608 13.9255275,32.3575541 14.3454053,32.0110416 C17.9753044,29.0153958 20.309494,26.2194142 21.7066303,22.4201381 C22.3108285,20.7771229 22.6169437,19.2752224 22.9497376,16.7391278 L23.19448,14.7895004 C23.8768014,9.47561908 24.4208315,8.70212766 27.1430841,8.70212766 Z"/>
  </g>
</svg>
