<svg xmlns="http://www.w3.org/2000/svg" width="69" height="62" viewBox="0 0 69 62">
  <path fill="#FFF" fill-rule="evenodd" d="M71.9872607,58.8783009 L82.8424039,58.8783009 C85.1385808,58.8783009 87,60.7387625 87,63.0337582 C87,65.3287539 85.1385808,67.1892155 82.8424039,67.1892155 L76.7992931,67.1892155 L81.1100722,74.6344098 C82.1494713,76.5967091 81.6875161,78.3858643 79.7242069,80.0018755 C77.7608976,81.6178866 75.739844,81.2715985 73.661046,78.9630111 L57.6725391,51.3864184 C55.4783678,47.6019643 55.6379916,42.8977019 58.0836526,39.2705235 L59.4559261,37.2352941 L71.9872607,58.8783009 L71.9872607,58.8783009 Z M51.8900237,24.6620889 L53.8566139,21.1400589 C54.9992954,19.0935935 57.5300661,18.3924227 59.5092485,19.5739501 C61.488431,20.7554774 62.1665489,23.3722824 61.0238674,25.4187478 L55.8269172,34.7261344 C55.6598921,35.211343 55.4081512,35.6668452 55.0784415,36.0666038 L42.9128327,57.8543869 L55.9318113,57.8543869 C58.9789619,57.8543869 61.4491656,60.4085659 61.4491656,63.5593054 L61.4491656,66.4117647 L22.1380158,66.4117647 C19.8526528,66.4117647 18,64.4961304 18,62.1330758 C18,59.7700212 19.8526528,57.8543869 22.1380158,57.8543869 L33.3564946,57.8543869 L47.1118547,33.2194667 L42.8280946,25.547542 C41.6854131,23.5010767 42.3635311,20.8842716 44.3427135,19.7027443 C46.321896,18.521217 48.8526667,19.2223878 49.9953482,21.2688531 L51.8900237,24.6620889 L51.8900237,24.6620889 Z M36.369033,71.2543515 L31.7498366,78.8956265 C30.5216538,80.9273397 27.8984559,81.6021343 25.8460139,80.4143329 C23.7912574,79.225192 23.0571165,76.6107119 24.1914079,74.5218202 L26.0899785,71.0254452 C27.497597,68.433199 30.7351329,67.4755874 33.3212173,68.8865599 C33.6090581,69.0436064 33.8818396,69.2269225 34.1360975,69.4341801 L36.369033,71.2543515 Z" transform="translate(-18 -19)"/>
</svg>
