<svg xmlns="http://www.w3.org/2000/svg" width="72" height="71" viewBox="0 0 72 71">
  <path fill="#FFFFFE" fill-rule="evenodd" d="M52.0002981,17 C71.8818961,17 88,33.2954372 88,53.3984674 C88,69.4751051 77.6979342,83.1142082 63.4016643,87.9326186 C61.5768495,88.2900513 60.9288346,87.1550668 60.9288346,86.1864421 L60.9694219,77.6124801 L60.9694219,77.6124801 L60.9705651,76.1976134 C60.9705651,72.8017009 59.8199959,70.5865823 58.5287353,69.4570225 C66.5451625,68.5559062 74.9669716,65.4776448 74.9669716,51.4973833 C74.9669716,47.5234303 73.5701925,44.276398 71.2619002,41.727354 L71.3228004,41.5719745 C71.7418753,40.4621769 72.7370571,36.9846275 71.0027946,32.3402636 L70.9089795,32.0947525 C70.9089795,32.0947525 67.8900766,31.1164838 61.0188532,35.8257958 C58.141834,35.0193118 55.0597392,34.6148643 52.0002981,34.601001 C48.940857,34.6148643 45.8611468,35.0193118 42.9894929,35.8257958 C36.1099234,31.1164838 33.0868474,32.0947525 33.0868474,32.0947525 C31.132072,37.108455 32.3643138,40.8099634 32.7380998,41.727354 C30.4351728,44.276398 29.0288553,47.5234303 29.0288553,51.4973833 C29.0288553,65.4444934 37.4345684,68.5655503 45.4307266,69.4859547 C44.4011757,70.394304 43.4682012,72.0012444 43.145088,74.3531881 L42.918795,74.4526631 C40.7560104,75.3754917 35.8869625,76.666332 32.7817564,71.5185834 L32.6182841,71.2397098 C32.3013057,70.7081107 30.5016495,67.9277657 27.3531835,67.5943458 L27.1318425,67.5763614 C26.8617653,67.5766885 23.7778566,67.6268394 26.9041772,69.7891396 L26.9531397,69.8144417 C27.2925147,69.9974792 29.3252117,71.2179683 30.8174859,74.9037941 L30.9857813,75.3306661 C31.4619131,76.4390431 34.1163983,81.3693397 43.030031,79.409686 L43.0786308,86.0284541 L43.0786308,86.0284541 L43.0789153,86.1864421 C43.0789153,87.1478337 42.4183813,88.2743798 40.619201,87.9374406 C26.3151811,83.124455 16,69.4805299 16,53.3984674 C16,33.2954372 32.1204885,17 52.0002981,17 Z M39.3076713,75.8896064 C39.7357069,75.8811678 40.086243,76.1222692 40.086243,76.4206321 C40.0963776,76.7208033 39.7506106,76.9697404 39.322575,76.9745624 C38.8921548,76.9848093 38.5440033,76.7418996 38.5392341,76.4465505 C38.5392341,76.1433656 38.8772511,75.8968394 39.3076713,75.8896064 Z M42.8279362,75.9486762 C42.8792051,76.2416144 42.5817264,76.5423883 42.1566715,76.6219517 C41.7387704,76.6997069 41.3518692,76.5188809 41.2988118,76.2283538 C41.2469468,75.9281826 41.5497909,75.6274087 41.9670958,75.5496535 C42.3927468,75.4749121 42.7736866,75.6509161 42.8279362,75.9486762 Z M36.5510743,75.4568295 C36.9576485,75.5809967 37.2247237,75.912511 37.1400704,76.2024354 C37.0530325,76.4875377 36.6482467,76.6171297 36.2404802,76.4959763 C35.8333099,76.3712063 35.5668309,76.037281 35.6490996,75.7491649 C35.7337528,75.4622543 36.1403271,75.3272375 36.5510743,75.4568295 Z M34.2600704,74.0964151 C34.5724529,74.3893533 34.6678369,74.8088696 34.457396,75.0264636 C34.2600704,75.2464686 33.8397847,75.1873987 33.5321714,74.8872275 C33.2174043,74.5936867 33.1297702,74.1771841 33.327692,73.9571791 C33.5274022,73.7365714 33.9500724,73.798655 34.2600704,74.0964151 Z M32.5181205,72.1254116 C32.7380998,72.4539122 32.7380998,72.8426881 32.5127551,73.0012123 C32.2921797,73.1561199 31.931509,73.0108563 31.708549,72.6871778 C31.4879735,72.3634992 31.4879735,71.975326 31.7133182,71.8198157 C31.9368744,71.6643053 32.2921797,71.8041441 32.5181205,72.1254116 Z M30.9913807,70.1483806 C31.2268599,70.4051535 31.2727634,70.7420927 31.0933223,70.9048361 C30.9216311,71.0657712 30.5859988,70.9910298 30.3582695,70.7366679 C30.1227903,70.4829087 30.0786752,70.1435586 30.252751,69.9802124 C30.4298075,69.8192773 30.7553053,69.8946214 30.9913807,70.1483806 Z M29.3150072,68.7108138 C29.576717,68.830159 29.7257545,69.0790961 29.6351397,69.2605249 C29.5558518,69.4419537 29.2744691,69.4955987 29.0181246,69.3714315 C28.757011,69.2526891 28.6103581,69.006163 28.6950114,68.8247342 C28.7725109,68.6384834 29.0544898,68.5872494 29.3150072,68.7108138 Z" transform="translate(-16 -17)"/>
</svg>
