<svg xmlns="http://www.w3.org/2000/svg" width="67" height="55" viewBox="0 0 67 55">
  <path fill="#FFF" d="M42.07016,82 C67.35328,82 81.18208,60.8382074 81.18208,42.4867961 C81.18208,41.8857319 81.18208,41.2873752 81.14188,40.6917259 C83.8321481,38.7258421 86.1544327,36.2917176 88,33.5033227 C85.4911959,34.6263971 82.8298225,35.3629089 80.10472,35.6882724 C82.9743139,33.9527186 85.122011,31.2229933 86.14812,28.0071048 C83.4497821,29.624713 80.4977316,30.7647226 77.41936,31.377938 C73.1583818,26.8006289 66.3877279,25.6803164 60.9039921,28.6452074 C55.4202562,31.6100984 52.587217,37.9228389 53.99348,44.0436066 C42.9408806,43.4838304 32.6431951,38.2098269 25.6632,29.5341329 C22.014709,35.8795428 23.8782875,43.9971987 29.91904,48.0723614 C27.7314664,48.0068604 25.5915887,47.4106849 23.68,46.3341486 C23.68,46.3910061 23.68,46.450571 23.68,46.5101359 C23.6817906,53.1207403 28.294294,58.8144489 34.7082,60.1234283 C32.6844505,60.6810103 30.561116,60.7625174 28.50132,60.361688 C30.3021404,66.018793 35.4628198,69.894198 41.34388,70.0057905 C36.4762899,73.8705575 30.4632395,75.9685851 24.27228,75.9622828 C23.1785816,75.9601616 22.0859469,75.8932619 21,75.7619281 C27.2863043,79.8374591 34.6007679,81.9992336 42.07016,81.98917" transform="translate(-21 -27)"/>
</svg>
