<?xml version="1.0" encoding="UTF-8"?>
<svg width="348px" height="343px" viewBox="0 0 348 343" version="1.1" xmlns="http://www.w3.org/2000/svg" xmlns:xlink="http://www.w3.org/1999/xlink">
    <!-- Generator: Sketch 49.2 (51160) - http://www.bohemiancoding.com/sketch -->
    <title>Native App Icon Copy</title>
    <desc>Created with Sketch.</desc>
    <defs></defs>
    <g id="Services" stroke="none" stroke-width="1" fill="none" fill-rule="evenodd">
        <g id="13&quot;-MacBook-in-Safari" transform="translate(-75.000000, -1120.000000)" fill="#F5F5F6" fill-rule="nonzero">
            <g id="Native-App-Block" transform="translate(75.000000, 1099.000000)">
                <g id="Combined-Shape">
                    <path d="M262.443346,236.632437 L324.306122,236.632437 C337.39189,236.632437 348,247.240548 348,260.326314 C348,273.412082 337.39189,284.020192 324.306122,284.020192 L289.866816,284.020192 L314.433674,326.471723 C320.357143,337.660498 317.72449,347.862029 306.535714,357.076314 C295.346939,366.290601 283.829082,364.316111 271.982143,351.152846 L180.864651,193.914697 C168.360208,172.336231 169.269894,145.513138 183.207561,124.831438 L191.028062,113.226825 L262.443346,236.632437 Z M155.050993,52.8251391 L166.311498,33.3213729 C172.854382,21.9887661 187.34533,18.1059282 198.677937,24.6488118 C210.010544,31.1916955 213.893381,45.6826436 207.350498,57.0152505 L177.593265,108.556291 C176.636895,111.243206 175.19545,113.765618 173.307565,115.97934 L103.648467,236.632437 L178.193878,236.632437 C195.641567,236.632437 209.785714,250.776585 209.785714,268.224273 L209.785714,284.020192 L-15.3061225,284.020192 C-28.3918897,284.020192 -39,273.412082 -39,260.326314 C-39,247.240548 -28.3918897,236.632437 -15.3061225,236.632437 L48.9298006,236.632437 L127.69166,100.212894 L103.163266,57.7284676 C96.6203817,46.3958608 100.503219,31.9049126 111.835827,25.362029 C123.168433,18.8191454 137.659382,22.7019832 144.202265,34.0345901 L155.050993,52.8251391 Z M63.6734697,309.68856 L38.0117611,352.038364 C31.1886546,363.298612 16.6156136,367.038488 5.21337741,360.455404 C-6.20171679,353.864896 -10.2801989,339.374811 -3.97870122,327.797666 L6.56871,308.419905 C14.3886625,294.053046 32.3746267,288.74573 46.7414855,296.565683 C48.3405706,297.436073 49.8559939,298.452055 51.2685105,299.600727 L63.6734697,309.68856 Z" id="Native-App-Icon-Copy"></path>
                </g>
            </g>
        </g>
    </g>
</svg>