<svg xmlns="http://www.w3.org/2000/svg" width="133" height="155" viewBox="0 0 133 155">
  <g fill="none" fill-rule="evenodd">
    <g fill="#828282" fill-opacity=".218" transform="translate(0 37)">
      <circle cx="113.538" cy="113.538" r="4.462"/>
      <circle cx="86.765" cy="113.538" r="4.462"/>
      <circle cx="59" cy="113.538" r="4.462"/>
      <circle cx="31.235" cy="113.538" r="4.462"/>
      <circle cx="4.462" cy="113.538" r="4.462"/>
      <circle cx="113.538" cy="86.765" r="4.462"/>
      <circle cx="86.765" cy="86.765" r="4.462"/>
      <circle cx="59" cy="86.765" r="4.462"/>
      <circle cx="31.235" cy="86.765" r="4.462"/>
      <circle cx="4.462" cy="86.765" r="4.462"/>
      <circle cx="113.538" cy="59" r="4.462"/>
      <circle cx="86.765" cy="59" r="4.462"/>
      <circle cx="59" cy="59" r="4.462"/>
      <circle cx="31.235" cy="59" r="4.462"/>
      <circle cx="4.462" cy="59" r="4.462"/>
      <circle cx="113.538" cy="31.235" r="4.462"/>
      <circle cx="86.765" cy="31.235" r="4.462"/>
      <circle cx="59" cy="31.235" r="4.462"/>
      <circle cx="31.235" cy="31.235" r="4.462"/>
      <circle cx="4.462" cy="31.235" r="4.462"/>
      <circle cx="113.538" cy="4.462" r="4.462"/>
      <circle cx="86.765" cy="4.462" r="4.462"/>
      <circle cx="59" cy="4.462" r="4.462"/>
      <circle cx="31.235" cy="4.462" r="4.462"/>
      <circle cx="4.462" cy="4.462" r="4.462"/>
    </g>
    <circle cx="69.5" cy="63.5" r="63.5" fill="#369EFF"/>
  </g>
</svg>
