<svg xmlns="http://www.w3.org/2000/svg" width="118" height="92" viewBox="0 0 118 92">
  <g fill="#828282" fill-opacity=".218" fill-rule="evenodd">
    <circle cx="114" cy="87.828" r="4"/>
    <circle cx="86" cy="87.828" r="4"/>
    <circle cx="59" cy="87.828" r="4"/>
    <circle cx="32" cy="87.828" r="4"/>
    <circle cx="4" cy="87.828" r="4"/>
    <circle cx="114" cy="59.828" r="4"/>
    <circle cx="86" cy="59.828" r="4"/>
    <circle cx="59" cy="59.828" r="4"/>
    <circle cx="32" cy="59.828" r="4"/>
    <circle cx="4" cy="59.828" r="4"/>
    <circle cx="114" cy="32.828" r="4"/>
    <circle cx="86" cy="32.828" r="4"/>
    <circle cx="59" cy="32.828" r="4"/>
    <circle cx="32" cy="32.828" r="4"/>
    <circle cx="4" cy="32.828" r="4"/>
    <circle cx="114" cy="4.828" r="4"/>
    <circle cx="86" cy="4.828" r="4"/>
    <circle cx="59" cy="4.828" r="4"/>
    <circle cx="32" cy="4.828" r="4"/>
    <circle cx="4" cy="4.828" r="4"/>
  </g>
</svg>
